<?xml version="1.0" standalone="no"?>
<!DOCTYPE svg PUBLIC "-//W3C//DTD SVG 1.1//EN" "http://www.w3.org/Graphics/SVG/1.1/DTD/svg11.dtd" >
<svg>
<metadata>
Created by FontForge 20090914 at Mon May 14 12:16:32 2012
 By www-data
Copyright (c) 2012 by M&#195;&#165;ns Greb&#195;&#164;ck. All rights reserved. Personal use only. Please visit www.mawns.com for a commercial license. 
</metadata>
<defs>
<font id="ConeriaScriptSlantedDemo" horiz-adv-x="1112" >
  <font-face 
    font-family="Coneria Script Slanted Demo"
    font-weight="500"
    font-style="oblique"
    font-stretch="normal"
    units-per-em="1000"
    panose-1="2 0 0 0 0 0 0 0 0 0"
    ascent="750"
    descent="-250"
    x-height="510"
    cap-height="846"
    bbox="-751.579 -551.111 2384.84 1164.46"
    underline-thickness="50"
    underline-position="-50"
    unicode-range="U+0020-U+FB02"
  />
<missing-glyph horiz-adv-x="750" 
 />
    <glyph glyph-name=".notdef" horiz-adv-x="750" 
 />
    <glyph glyph-name=".null" horiz-adv-x="0" 
 />
    <glyph glyph-name="nonmarkingreturn" horiz-adv-x="750" 
 />
    <glyph glyph-name="space" unicode=" " horiz-adv-x="750" 
 />
    <glyph glyph-name="space" unicode="&#xa0;" horiz-adv-x="750" 
 />
    <glyph glyph-name="c" unicode="c" horiz-adv-x="608" 
d="M764 228q-76 -61 -161 -115t-192 -87q-57 -18 -113 -26t-110 -7q-49 0 -79 16t-41 43q-12 32 -2 69t35 75.5t61.5 76t77.5 69.5q43 33 93 64t105 54q56 23 119.5 40.5t119.5 14.5q57 -2 80 -27t14 -62q-10 -37 -43.5 -74t-77.5 -69l-21 -15q-14 -10 -32 -21l-37.5 -22
t-37 -17t-30.5 -6t-18 11q-3 7 2.5 14t14.5 13.5t20 12.5l20 11q50 30 96 64l39.5 30.5t37.5 34t26.5 35t6.5 33.5q-3 18 -21 24.5t-42.5 6t-52.5 -8t-51 -18.5q-52 -23 -96 -55l-84 -63q-45 -35 -84 -71t-73 -74q-18 -19 -39 -44.5t-35 -51.5t-14.5 -49t22.5 -36
q18 -10 45 -12t57 2t61 11t57 15q74 23 141 57.5t125 75.5l45 32.5t42 34.5q9 7 17.5 9.5t13.5 1t4 -6.5t-11 -13z" />
    <glyph glyph-name="d" unicode="d" horiz-adv-x="725" 
d="M873 221l-89.5 -69.5t-96.5 -66.5q-21 -14 -45 -28.5t-50.5 -28t-53.5 -24.5t-53 -17q-30 -6 -42.5 1t-14.5 20.5t3.5 30t11.5 28.5q17 31 40.5 62l49.5 63l-83 -56.5t-87 -53.5q-24 -14 -55.5 -30t-65.5 -29.5t-68 -22.5t-62 -10t-49 8.5t-28 33.5q-10 32 3.5 69
t41.5 75.5t65.5 75t76.5 68.5q37 30 82.5 62t96.5 59t107 46t113 25q60 6 96.5 -12t32.5 -55v-4l129 138.5l138 136.5l124.5 112.5t139.5 106.5l46 29.5t52 29t55 24t56 15.5q21 4 39.5 1t21.5 -16q2 -8 -1.5 -16.5t-10 -18t-15 -18.5l-15.5 -17q-35 -37 -76 -73.5
t-85.5 -71.5l-90 -70l-90.5 -69l-142 -107l-144 -106l-92 -92l-91 -93l-71 -72l-72.5 -74t-60.5 -76q-1 0 -3 -5t-3.5 -10t-1.5 -9t2 -3q-1 -3 5 -2.5t13.5 2t15 3.5t9.5 3q40 12 74 32t64 40q67 43 125 89l15.5 11.5t14.5 11.5l13.5 13t17.5 13q13 6 21 1t-3 -13zM701 484
q-19 6 -40 5.5t-43 -6.5t-43 -15.5t-39 -21.5q-49 -30 -92 -63.5l-82 -66.5l-84 -72.5t-77 -74.5q-16 -17 -30.5 -34t-30.5 -34q-15 -17 -30 -37t-9 -36q4 -15 24 -16.5t45 4.5t50 15.5t41 17.5q56 26 106 57.5l97 63.5l45 31.5t43 32.5l23.5 20t26.5 20l56 64.5l57 64.5
q14 25 13 48t-27 33zM1191 698l176 143l38.5 34l40 36.5t35.5 37t25 36.5q1 2 2.5 5.5t2.5 7t0 5.5t-6 2q-11 -1 -21.5 -6l-20.5 -10q-27 -17 -48.5 -36l-41.5 -38l-80.5 -70l-77.5 -71l-133 -126l-129 -127l-9 -9l125.5 92z" />
    <glyph glyph-name="e" unicode="e" horiz-adv-x="608" 
d="M765 228q-79 -63 -169.5 -119t-203.5 -88q-54 -16 -107 -23t-102 -6q-52 1 -80.5 21t-36.5 50q-8 34 5 72t41 77t67.5 76.5t83.5 69.5q39 28 87 56.5t101.5 51t109 36t108.5 13.5q50 0 76.5 -17t32.5 -42.5t-6.5 -56t-39.5 -58.5q-28 -29 -66.5 -57t-83 -50t-93.5 -36.5
t-97 -15.5q-48 -2 -84 10t-47 38q-29 -29 -53 -58.5t-41 -59.5q-9 -16 -14.5 -32t-3.5 -29.5t13 -23.5t35 -14q47 -8 102.5 1t112 28.5t109 46t93.5 52.5q32 21 61.5 43t56.5 45q8 8 21 16.5t27 3.5q8 -2 0.5 -8.5t-15.5 -12.5zM386 216q55 5 106.5 30t92.5 54
q22 16 40.5 31.5t36.5 32.5l36 35t28 36q15 27 -2.5 43.5t-60.5 14.5q-27 -2 -53.5 -11t-51 -22t-47 -28l-41.5 -28q-48 -33 -90.5 -67.5t-82.5 -70.5l-4 -4q1 -23 26 -36t67 -10z" />
    <glyph glyph-name="f" unicode="f" horiz-adv-x="342" 
d="M195 75q-20 0 -31.5 5t-16.5 12.5t-5 17.5t3 19l-168 -177l-108.5 -114t-113.5 -113q-39 -38 -81 -74.5t-90 -70.5q-18 -13 -40 -26.5t-46 -25t-49 -18.5t-49 -7q-33 1 -37.5 16.5t9 39.5t40 52.5t55 55.5t53.5 48t36 31q89 75 186 146l198 141q9 6 18 13t19 13
l165.5 190l171.5 189l182 186.5t196 182.5l83 71.5t94 67.5q19 13 45 28t54 28.5t57 22.5t55 10q36 1 40 -13.5t-11 -38t-43.5 -51.5t-59.5 -54.5l-57.5 -47.5t-36.5 -30l-220.5 -172l-227.5 -169l-68 -70l-153 -158l-9.5 -13.5l-9.5 -13.5l-16.5 -23.5t-15 -25.5t-9 -25.5
t1.5 -23.5q5 -13 24 -12t42 8.5t44.5 17.5t31.5 16q29 14 54 30t48 33q13 8 25 19t29 18q11 5 21.5 2.5t8.5 -9.5q-2 -5 -13 -11l-42 -30.5t-47 -30.5l-40 -24t-47.5 -24.5t-53.5 -20.5t-57 -12q-5 -1 -9 -1h-9zM-251 -128q-48 -35 -93 -71.5l-90 -73.5q-42 -36 -81.5 -74
t-66.5 -76q-3 -5 -9 -13t-9 -16.5t-2 -15t11 -6.5q12 -1 25.5 2.5t26.5 9.5t25 13l22 13q48 31 84 67l70 71l111.5 123l107.5 124l22.5 26l22.5 25l-89 -63zM525 520l191.5 142.5t182.5 146.5l82.5 71.5t73.5 74.5q1 2 7.5 10.5t12.5 17.5t7.5 15.5t-5.5 6.5q-17 -1 -33 -11
t-28 -19q-45 -32 -81 -66.5l-75 -68.5l-79 -70.5l-76 -71.5l-94 -90.5l-91 -91.5z" />
    <glyph glyph-name="g" unicode="g" horiz-adv-x="680" 
d="M836 227q-37 -30 -81 -55t-92 -47t-99 -40.5l-100 -35.5l-49 -49l-50 -49l-161 -149.5t-181 -141.5q-44 -30 -93.5 -57t-105.5 -44q-29 -9 -57.5 -12.5t-54 -2t-45 10t-29.5 23.5q-15 23 -7.5 50.5t29 55.5t52.5 55.5t64 50.5q76 53 166 92.5t184 73.5l81.5 28.5
l82.5 26.5l69.5 73l70.5 72q-55 -35 -121 -67q-38 -19 -83.5 -35t-87.5 -17q-28 -1 -44.5 7t-24.5 21t-8.5 29t2.5 32q11 38 40 76.5t65 74.5q38 36 80.5 69.5t92.5 64.5q36 22 87.5 46.5t105 39.5t102 16.5t77.5 -20.5q16 -13 16 -31t-8 -37q30 23 64 45t72 37q8 3 19.5 6
t22 3.5t16.5 -2t3 -10.5q-2 -6 -10 -11t-17 -6q0 -1 -3 -3.5t-7 -5.5l-7.5 -5.5t-4.5 -3.5q-31 -27 -56 -54.5l-52 -55.5l-132 -140.5l-135 -138.5l49 18q48 17 94 37t89 44l40.5 24.5t37.5 26.5q7 5 15 9.5t15 1.5q13 -5 2 -14zM671 384l8 7q11 13 18.5 28t8.5 28t-6 23
t-25 15q-19 4 -39 2t-40 -9t-39 -17t-36 -21q-91 -60 -172.5 -128t-147.5 -137l-25 -25q-14 -14 -26 -28t-19 -27.5t-2 -23.5q6 -14 26.5 -13.5t45 7t48.5 17l39 17.5q51 24 98 53t90 59l34 24l77 75t84 74zM-75 -147q-56 -26 -104.5 -57.5t-87.5 -66.5q-19 -17 -35.5 -36
t-26.5 -37.5t-10.5 -36.5t13.5 -31q13 -13 35 -16t47.5 0.5t52.5 13t50 21.5q54 27 92.5 60.5t72.5 68.5l120.5 123l117.5 123q-88 -29 -173 -60t-164 -69z" />
    <glyph glyph-name="h" unicode="h" horiz-adv-x="707" 
d="M-47 5q14 28 34.5 56t44.5 55l55 67.5l56 67.5q21 26 44.5 50.5l48.5 50.5l146.5 155.5l156.5 155.5l83 78l85 77l83.5 69.5t93.5 65.5q19 12 44.5 26.5t52.5 27t54.5 20.5t52.5 8t32.5 -8t4.5 -20t-13.5 -26t-20.5 -25q-34 -38 -75 -73l-83 -70l-92.5 -74l-94.5 -73
l-137 -102.5l-137 -101.5l-133 -141l-38.5 -42.5l-39.5 -42.5q81 60 168 117l99.5 62.5t106.5 56.5l37.5 17t41.5 16t42 11t39 2q26 -3 31.5 -17.5t0 -32.5t-18 -37.5t-22.5 -32.5q-29 -38 -67.5 -75l-79.5 -73l-80 -71.5l-80 -72.5l-34 -31t-26 -33q-5 -8 -2.5 -13t10 -7.5
t17.5 -2.5t21 1q58 8 112.5 37t99.5 57l45.5 30.5l44.5 31.5l37 30q11 8 20.5 17t20.5 16q9 5 17.5 4.5t10.5 -5.5t-2 -8.5l-10 -8.5q-10 -9 -22 -17.5l-24 -17.5q-43 -32 -89.5 -63t-96.5 -59q-49 -26 -104.5 -50.5t-111.5 -27.5q-30 -2 -47 6t-23.5 21t-4 29.5t11.5 33.5
q18 37 50 73t68 71q29 31 63 61l68 59l67 57q23 20 50 41t43 42q3 5 -8 5t-26.5 -3l-30 -6t-16.5 -4q-37 -14 -72.5 -33.5l-68.5 -38.5q-75 -46 -144.5 -95l-137.5 -100l-65 -50.5l-64 -51.5l-2 -2l-14 -12l-14 -12.5t-15 -11.5l-7 -6q-11 -9 -23.5 -18t-26.5 -18
q-9 -5 -18 -11t-20 -11q-5 -3 -11.5 -4.5t-12 -1.5t-8.5 2t-1 8zM716 659l94.5 73.5l91.5 74.5l84 72.5t73 74.5q3 4 10 12t12 16.5t6.5 15t-7.5 7.5q-5 1 -11 -1.5l-13 -5.5t-13 -7l-9 -6q-44 -29 -79 -63t-73 -65l-186 -170.5l-174 -173.5l98 72.5z" />
    <glyph glyph-name="i" unicode="i" horiz-adv-x="395" 
d="M552 229l-89 -64.5t-94.5 -63t-101 -57t-109.5 -46.5q-23 -8 -45.5 -13.5t-41 -6t-33 5.5t-21.5 20t-6 30.5t7 34t15.5 35t20.5 34.5q52 78 129.5 154.5t164.5 148.5q9 7 28.5 24.5t42.5 32.5t44.5 22t33.5 -8q4 -6 1 -13.5t-9 -15.5t-13.5 -16l-13.5 -14l-33 -37.5
l-34 -37.5l-135 -148l-47 -52l-48 -52l-46 -55l-20 -26q-10 -14 -9 -25q0 -8 9.5 -10.5t23 -1t27.5 5t23 6.5q38 16 75.5 36t69.5 40q40 23 75.5 47l70.5 49q17 11 33.5 23l32.5 24q6 4 12.5 5t11 -1t4.5 -6t-6 -8zM746 781q-32 0 -41 13.5t0 30t33 30.5t56 14t40.5 -14
t-0.5 -30.5t-32.5 -30t-55.5 -13.5z" />
    <glyph glyph-name="j" unicode="j" horiz-adv-x="297" 
d="M453 227q-36 -30 -79.5 -55t-91.5 -47t-98.5 -40.5l-99.5 -35.5l-81 -80l-157 -149.5t-178 -143.5q-42 -29 -87 -56.5t-97 -47.5q-28 -11 -58.5 -18t-58.5 -9.5t-52.5 1.5t-40.5 16q-27 19 -25.5 46.5t20 57.5t49.5 59.5t64 53.5q77 57 171.5 99t192.5 77l83 28.5
l83 27.5l97 103l101 102l79 76t83 75q38 34 83.5 69t99.5 61q8 4 19 8.5t23 8t22.5 4t16.5 -3.5q7 -5 4.5 -9t-9 -8.5t-15 -8.5t-12.5 -7q-34 -26 -60.5 -55.5l-53.5 -57.5l-137 -144.5l-140 -144.5l49 18q48 18 93.5 38t88.5 44l41 24.5t37 26.5q7 5 15 9.5t16 1.5
q5 -2 5.5 -6t-5.5 -8zM-456 -148q-57 -27 -107 -59.5t-91 -69.5q-18 -17 -33.5 -36t-24.5 -37.5t-7.5 -36t18.5 -29.5q16 -12 40.5 -13.5t52 4.5t55.5 17t52 24q39 23 69.5 49t59.5 54q69 66 132 132.5l126 132.5q-88 -29 -174.5 -60.5t-167.5 -71.5zM725 781
q-32 0 -41 13.5t0 30t33 30.5t56 14t40.5 -14t-0.5 -30.5t-32.5 -30t-55.5 -13.5z" />
    <glyph glyph-name="k" unicode="k" horiz-adv-x="650" 
d="M-47 5q14 28 34 56t43 55l55.5 67.5l55.5 67.5q22 26 46 50.5t47 50.5q143 156 305 311l82 78l84 77l83.5 69.5t93.5 65.5l45 26.5t52 27t54.5 20.5t52.5 8q26 0 33.5 -8t4.5 -20t-13 -26t-20 -25q-34 -38 -75 -73l-84 -70l-93 -74l-95 -73l-136.5 -103l-137.5 -102
l-132 -140q-45 -51 -93 -99q79 60 165 117q46 32 95.5 62.5t103.5 56.5l38 18.5t43.5 20t44.5 16.5t41 9q54 3 75 -19.5t10 -54.5q-11 -35 -49.5 -68t-88.5 -57q-78 -39 -161 -52t-164 -17l9 -3q20 -8 32.5 -21t19.5 -29q11 -32 -5 -68t-41 -73q-3 -5 -7.5 -11.5t-7.5 -13.5
t-2 -12t9 -6q25 -3 56.5 8.5t54.5 23.5q57 28 107 62.5t93 69.5q12 9 22.5 18l20.5 18q7 5 13 11t14 11q11 5 19.5 2.5t4.5 -9.5q-3 -5 -10 -10t-12 -10l-87 -66t-93 -63q-43 -27 -96.5 -55t-109.5 -38q-29 -5 -46 0.5t-26.5 16.5t-12 25t-2.5 28q2 29 13 58t29 58
q6 13 10 26.5t0.5 24.5t-16 17.5t-37.5 4.5l-155 -119l-75 -62l-11 -9h-1q-10 -9 -22.5 -18t-26.5 -18l-37 -22q-6 -3 -12.5 -4.5t-12 -1.5t-8 2t-0.5 8zM687 386q9 6 26.5 19.5t31.5 28t20 27.5t-7 18q-20 8 -44 3.5t-49 -14.5q-48 -19 -92 -45.5l-85 -52.5l-78.5 -52.5
l-75.5 -53.5q46 -1 93.5 8t93 25.5t87.5 39.5t79 49zM716 659l94 73.5l90 74.5l84.5 72.5t73.5 74.5q3 4 9.5 12t12 16.5t6.5 15t-7 7.5q-5 1 -11 -1.5t-12.5 -5.5t-12.5 -7l-9 -6q-45 -29 -79.5 -62.5t-72.5 -65.5q-99 -85 -189 -172l-176 -175l100.5 74z" />
    <glyph glyph-name="l" unicode="l" horiz-adv-x="282" 
d="M435 221l-90 -69.5t-97 -66.5q-21 -14 -45.5 -28.5t-50.5 -28t-53 -24.5t-54 -17q-29 -6 -41 1t-14 20.5t3.5 30t11.5 28.5q20 37 48 74t60 74l221.5 253t244.5 248l123 112.5t140 106.5l45.5 29.5t51.5 29t55.5 24t55.5 15.5q22 4 40 1t22 -16q2 -8 -1.5 -16.5t-10 -18
t-15 -18.5l-15.5 -17q-35 -37 -76 -73.5t-85.5 -71.5l-90.5 -70l-90 -69l-140.5 -106l-143.5 -105l-93.5 -93l-92.5 -94l-69 -72l-73.5 -74t-61.5 -76l-2 -5q-2 -4 -3.5 -9.5t-2 -9.5t1.5 -3q0 -3 6 -2.5t14 2t15.5 3.5t9.5 3q38 12 73 32t65 40q67 43 125 89l28 23
q7 5 15 13t17 13q12 6 20 1t-1 -13zM752 698l88.5 71l86.5 72l39.5 34t39.5 36.5t35 37t26 36.5q2 4 5 12.5t-7 7.5t-20.5 -6t-19.5 -10q-27 -17 -48.5 -36l-43.5 -38l-78.5 -70l-78.5 -71l-133 -126l-130 -127l-11 -10z" />
    <glyph glyph-name="m" unicode="m" horiz-adv-x="1080" 
d="M-80 7l219.5 239.5l220.5 239.5l24 23.5t28 22.5t32.5 14t38.5 -2q19 -6 22 -15.5t-3.5 -20.5t-18.5 -23.5l-22 -22.5l-138 -133.5l-138 -133.5l61.5 46l62.5 46l96 67t101 64l49 28t54 28.5t57 24.5t57 17q47 10 72.5 -3t23.5 -39q-1 -35 -25 -73t-54 -73l-35 -39
l95.5 63.5t99.5 60.5l99 54t105 43q45 13 73.5 3.5t24.5 -37.5q-2 -17 -11.5 -35t-23 -36t-30.5 -35.5l-33 -33.5q-30 -31 -63.5 -61l-68.5 -59l-53 -47l-53 -47l-20 -18q-12 -10 -24 -21.5t-22 -23t-13 -21t3.5 -15t27.5 -5.5q26 0 53 8t53 19.5t50.5 25.5t44.5 27
q48 29 91.5 60l85.5 64q5 5 12 11t15 8q10 3 17 0.5t5 -7.5q-1 -6 -9 -11.5t-13 -10.5q-13 -9 -23.5 -17.5l-21.5 -17.5l-92 -63.5t-99 -58.5q-25 -13 -53 -26t-57.5 -23t-58.5 -15.5t-56 -2.5t-38 14.5t-11.5 27.5t7 34t17.5 34q23 38 56 75t72 74t81 72.5l82 70.5
l46.5 39.5t43.5 39.5q10 10 10 14t-19 2q-29 -2 -60.5 -14t-61.5 -27.5t-58 -33l-50 -31.5l-112.5 -74l-107.5 -76l-82 -61l-80 -67t-86 -65l-39.5 -27t-42.5 -25q-11 -6 -22.5 -7t-20 1t-12.5 7t-1 13q6 13 20.5 27.5t24.5 26.5l39 38.5l39 37.5l71 65.5l70 66.5l57 52.5
l54 53.5q12 13 26.5 26.5l28 27t24.5 27.5t17 27q4 10 -3 13t-19.5 2t-29 -5.5t-32.5 -9.5t-29 -10t-19 -8q-53 -26 -103 -57.5l-98 -63.5q-66 -45 -129 -92.5l-123 -95.5l-63.5 -51t-60.5 -51q-10 -8 -18 -16t-17 -16q-3 -4 -7 -7.5t-8 -7.5q-11 -11 -27 -15.5t-28.5 -3
t-17 8.5t7.5 19z" />
    <glyph glyph-name="o" unicode="o" horiz-adv-x="660" 
d="M153 264q29 32 66 63.5t80 60t91.5 52.5t100.5 42q51 18 103 27t96 1q43 -8 64 -28t25 -49q4 -31 -8.5 -65.5t-37 -69t-58.5 -68t-72 -63.5q-37 -30 -85.5 -61t-103.5 -56.5t-112.5 -42t-112.5 -16.5q-50 0 -78 13.5t-39 35.5t-8 51t16 59t32.5 60t40.5 54zM257 242
q-38 -35 -71.5 -73.5t-50.5 -76.5q-6 -13 -8 -27.5t2.5 -26.5t17.5 -19.5t38 -5.5q28 3 56.5 12t55 22t51 28.5l45.5 29.5q50 33 93 68t81 73q51 48 93 101l25.5 35t22 37.5t9 35.5t-12.5 29q-13 11 -35 11t-47 -7t-49.5 -17.5t-42.5 -20.5q-54 -29 -100.5 -63.5
t-88.5 -69.5q-22 -18 -43 -37z" />
    <glyph glyph-name="p" unicode="p" horiz-adv-x="675" 
d="M465 496q-12 -28 -32.5 -56t-43.5 -55l-29.5 -34.5l-28.5 -34.5l77.5 53t82.5 51q24 14 56 30t66 29.5t68 22.5t62.5 10t49 -8.5t28.5 -33.5q10 -32 -3.5 -69t-42 -75.5t-66.5 -75.5t-76 -68q-37 -30 -82.5 -62t-97 -59t-107 -46t-112.5 -25q-30 -3 -54.5 0t-42 12
t-26.5 23t-7 32q0 4 1 6l-109.5 -112.5l-114.5 -112.5l-82 -78q-41 -39 -86 -77l-83.5 -69.5t-93.5 -65.5l-45 -26.5t-52 -26.5t-54.5 -20.5t-52.5 -8.5t-32.5 8t-4.5 20t13 26t20 25q34 38 75 73l84 70l92.5 74l94.5 73l137 103l137 102l66.5 70l65.5 70l50.5 55.5
l52.5 54.5l77.5 77t84.5 75q11 9 23.5 18t26.5 18l37 22q6 3 12.5 4.5t12 1.5t8 -2t0.5 -8zM155 18q18 -6 39 -5.5t43 6.5t43 15.5t40 21.5q48 30 91 63.5l83 66.5l83.5 72.5t76.5 74.5l31 34l29 34l15.5 17.5t15 19.5t9.5 19t1 17q-5 15 -24.5 16.5t-45 -4.5t-51 -16
t-41.5 -17q-54 -26 -104.5 -57.5l-98.5 -63.5l-43 -31.5l-44 -32.5q-11 -8 -20.5 -17t-19.5 -17l-39 -42t-39 -43l-41 -44q-17 -26 -17.5 -51.5t28.5 -35.5zM-297 -158l-94 -73.5l-91 -74.5l-83 -72.5t-73 -74.5q-3 -4 -10 -12t-12.5 -16.5t-6.5 -15t7 -7.5q4 -1 10.5 1.5
t13 5.5t12.5 7l9 6q45 29 80 62.5l71 65.5q98 85 187 170l174 173l-98 -72z" />
    <glyph glyph-name="q" unicode="q" horiz-adv-x="614" 
d="M905 497l-245.5 -263.5l-250.5 -263.5l51 39.5l50 39.5l86.5 67l84.5 67l71 58q6 4 7 6q13 9 23.5 4.5t-0.5 -13.5l-66 -51.5l-70 -56l-70 -56l-66 -51.5l-80 -63l-80 -62l-35 -28l-81 -83.5l-81 -84.5l-111 -115l-29 -30.5t-28 -30.5l-24 -23.5t-31 -26t-36 -20.5
t-38 -7q-22 1 -26.5 11t2 24.5t21 32.5t30.5 34.5l31 31.5l23 23l55 57l53 56l203 205l106 109l106 108q-23 -16 -47 -30q-24 -15 -50 -29q-24 -14 -55 -30t-65 -29.5t-67.5 -22.5t-62 -10t-49.5 8.5t-28 33.5q-11 32 2.5 69t41.5 75.5t66 75t76 68.5q37 30 83 62t97.5 59
t107.5 46t113 25q30 3 54.5 0t42 -12t26 -23t6.5 -32l-3 -14l70 69q14 13 30.5 23.5t40.5 8.5q17 -2 21.5 -12.5t-6.5 -22.5zM708 390q10 13 16 27.5t6 27.5t-6.5 23t-21.5 16q-18 6 -39 5.5t-43 -6.5t-43 -15.5t-40 -21.5q-48 -30 -91 -63.5l-83 -66.5q-44 -36 -84 -72.5
t-76 -74.5l-62 -68l-15 -17.5t-14 -19.5t-9.5 -19t-0.5 -17q4 -15 24 -16.5t45 4.5t50.5 15.5t41.5 17.5q55 26 105.5 57.5t96.5 63.5l40.5 28.5l40.5 29.5l80.5 81z" />
    <glyph glyph-name="r" unicode="r" horiz-adv-x="516" 
d="M117 223l82 66l80 65l85.5 67.5t79.5 68.5q-17 24 -20.5 51t28.5 59q18 19 48.5 32t59.5 12q32 -1 41.5 -16.5t-1.5 -35.5q-7 -13 -19 -25t-26 -24q-1 -9 -1 -16v-8q-2 -18 -3 -36t1 -35q2 -16 6.5 -31t4.5 -31q0 -13 -6 -27.5t-15.5 -29.5t-21.5 -29.5l-23 -27.5
l-67 -74t-71 -71q-5 -5 -16 -14t-23.5 -20.5t-24.5 -24t-19.5 -23.5t-8.5 -18.5t9 -9.5q19 -4 40.5 0t43.5 12t42.5 18.5t37.5 20.5q48 30 90 63t79 68l11 11q9 9 19 17t18.5 11.5t11.5 -5.5q1 -4 -5 -11t-14.5 -14.5l-17 -14.5t-12.5 -11q-40 -34 -82 -66t-91 -61
q-41 -23 -88.5 -44t-95.5 -25q-25 -2 -40 3t-22 14.5t-7.5 22.5t4.5 27q13 38 42.5 76t64.5 74q36 35 75.5 69.5l81.5 68.5q25 22 33.5 35.5t1.5 35.5q-4 15 -14.5 29.5t-22.5 29.5l-86 -69l-86 -68l-52.5 -42l-53.5 -43q-9 -8 -24 -22.5t-29 -17.5q-12 -3 -16 2.5t4 11.5z
" />
    <glyph glyph-name="s" unicode="s" horiz-adv-x="515" 
d="M524 551q-13 -12 -16.5 -26t-2 -28t5 -27t5.5 -23q5 -21 9 -41.5l8 -41.5q5 -30 4 -62.5t-10 -66.5t-28.5 -68t-52.5 -67q-32 -32 -77.5 -61t-99.5 -43q-24 -6 -48.5 -8.5t-47 -1.5t-42 6t-32.5 14q-18 11 -23.5 26.5t-1 33.5t16.5 36.5t29 35.5q34 35 86 63.5t111 41.5
q39 9 77 9q-1 24 -4 48.5t-4 49.5t1 50.5t10 51.5l-8 -7l-159 -146q-14 -14 -28.5 -26.5t-28.5 -26.5q-7 -6 -17 -15.5t-21 -9.5q-9 0 -10 3.5t3 8.5t10 10t9 8q14 14 29 27.5l31 27.5l164 152l52 48q9 13 22 24.5t31 21.5q14 8 31 13q13 3 18.5 -2t-1.5 -12zM201 181
q-23 -14 -44 -31.5t-35.5 -36.5t-21.5 -37.5t-1 -34.5q4 -11 15.5 -18t27.5 -10t35 -3t39 4q28 5 50 16.5t39.5 26.5t30.5 31.5t23 32.5q16 29 25 57t11 55q-48 2 -98.5 -11.5t-95.5 -40.5z" />
    <glyph glyph-name="t" unicode="t" horiz-adv-x="360" 
d="M510 221l-81 -64t-90.5 -65t-100 -56.5t-109.5 -40.5q-21 -5 -39.5 -7.5t-34 -1t-26.5 8t-15 19.5q-5 15 -1.5 33.5t12.5 37.5t21 38l23 36q31 42 66.5 83.5l70.5 83.5l120 139.5t130 138.5l13 13h-206q-16 0 -15 10t21 10h221q29 29 60 57l64 56q43 35 89.5 66.5
t103.5 56.5q14 6 35 14t42.5 13t40.5 5.5t29 -8.5q11 -11 1.5 -26t-22.5 -28q-17 -19 -36.5 -37.5t-39.5 -35.5l-82 -67l-85 -66h288q7 0 9.5 -3t0.5 -7t-7.5 -7t-12.5 -3h-304l-89 -67l-89 -66l-58 -43l-99 -103l-117 -118.5t-104 -120.5q-12 -15 -22 -31t-12 -31
q0 -20 30 -21q25 -3 53 5t55.5 21t53 28.5l45.5 27.5q35 22 66.5 45l60.5 46q11 9 22.5 20.5t25.5 19.5q6 5 13 6t11 -0.5t5 -5.5t-5 -8zM816 759l34 30.5t31 31.5l15 15q8 8 13 16q5 7 5.5 12.5t2.5 10.5q-1 -1 -6 -2.5t-11 -4t-11.5 -4.5t-7.5 -3q-25 -14 -45 -31t-38 -34
l-79 -71.5l-78 -72.5l-16 -15h44l75 60t72 62zM644 617h-40l-123 -122l82.5 60.5z" />
    <glyph glyph-name="u" unicode="u" horiz-adv-x="786" 
d="M945 229l-89 -64.5t-94.5 -63t-101 -57t-109.5 -46.5q-23 -8 -45.5 -13.5t-41 -6t-33 5.5t-21.5 20q-8 14 -7 30.5t7.5 34t16 35t20.5 34.5l27 38t31 38l-5 -3l-95 -67t-100 -64q-47 -27 -104.5 -56.5t-114.5 -41.5q-47 -10 -72 3t-23 39q1 35 24.5 73t53.5 73
q66 76 153 151l85.5 71.5t91.5 69.5l40 27t43 25q10 6 21.5 7t19.5 -1t12 -7.5t1 -12.5q-6 -13 -20 -27.5l-25 -26.5l-39 -38.5l-39 -37.5l-70 -65.5l-71 -66.5l-56.5 -52.5l-53.5 -53.5l-27.5 -26.5l-28 -27t-24.5 -27.5t-17 -27q-6 -15 11 -15.5t41 5.5t47.5 15t32.5 13
q53 26 103.5 57.5l97.5 63.5l92 65l89 67q38 38 78.5 74.5t83.5 71.5q9 7 28.5 24.5t42.5 32.5t44.5 22t33.5 -8q4 -6 1 -13.5t-9 -15.5t-13.5 -16l-13.5 -14l-33 -37.5l-34 -37.5l-135 -148l-47 -52l-48 -52l-46 -55l-20 -26q-10 -14 -9 -25q0 -8 9.5 -10.5t23 -1t27.5 5
t23 6.5q38 16 75.5 36t69.5 40q40 23 75.5 47l70.5 49q17 11 33.5 23l32.5 24q6 4 12.5 5t11 -1t4.5 -6t-6 -8z" />
    <glyph glyph-name="v" unicode="v" horiz-adv-x="525" 
d="M492 496q-17 -29 -41.5 -58t-53 -57.5l-59 -56.5l-59.5 -55l-52.5 -52t-49.5 -52l-33 -36.5t-30 -37.5l-11 -15.5t-10.5 -17.5t-6 -17t2.5 -14q6 -9 22.5 -8t36.5 7t38.5 14.5l29.5 13.5q56 26 105.5 57.5t94.5 64.5q-7 14 -6.5 30.5t6 33.5t14.5 34.5t19 34.5
q23 35 55 71t77 68q15 11 35 23t42.5 21.5t45.5 15t43 3.5q25 -3 26.5 -17.5t-9 -32.5t-27 -36l-26.5 -29q-51 -54 -112.5 -105t-130.5 -99q2 -14 15.5 -21.5t47.5 -0.5q26 5 49 16t43 24q4 3 11 9l15 12.5t16 11.5t15 6q8 1 10.5 -1t1 -5.5t-5.5 -7.5t-8 -7
q-37 -31 -82 -54q-24 -12 -49 -19t-47.5 -9t-41.5 1.5t-31 14.5q-15 -11 -30.5 -20.5l-30.5 -19.5l-43.5 -29.5t-58 -36t-65 -35.5t-65 -26.5t-58.5 -9.5t-44 15q-13 12 -15 28t3.5 34.5t15.5 37t20 34.5q25 38 54.5 76t63.5 76t72 75.5t81 72.5q24 19 48 36t51 33
q11 7 23 12.5t27 4.5q12 -2 16.5 -8.5t-0.5 -15.5zM599 322l40.5 36t38.5 37q20 19 38.5 39.5t23.5 40.5q5 13 -7.5 15t-30.5 -5q-29 -11 -51.5 -29.5t-39.5 -35.5q-36 -37 -66.5 -75.5t-50.5 -77.5q-6 -11 -12 -23.5t-10 -25.5l63.5 52z" />
    <glyph glyph-name="w" unicode="w" horiz-adv-x="845" 
d="M861 495q-18 -27 -42 -54t-51.5 -53l-57 -52l-57.5 -51l-46.5 -43.5l-46.5 -43.5q-38 -35 -75.5 -73.5t-53.5 -75.5q-7 -16 -2 -22.5t18 -6t31 5.5t36.5 12t35 15l26.5 13q45 23 86.5 50t80.5 56q-7 8 -8 17q-8 31 7.5 67t39.5 70q25 35 59.5 71t82.5 65q15 9 40 21.5
t51.5 21t48.5 8.5t30 -15q5 -12 -3.5 -28.5t-19.5 -30.5q-23 -33 -58 -68q-49 -49 -105 -95.5t-117 -91.5q0 -1 1 -2q3 -8 12.5 -11t22 -3t27 2.5t27.5 7.5q23 8 44.5 20t39.5 26q3 3 10.5 9t15 11t14.5 6t9 -6q1 -3 -1.5 -6.5t-7.5 -7.5l-9 -7q-4 -3 -7 -5
q-22 -16 -46.5 -30t-51.5 -25q-43 -17 -78.5 -17.5t-56.5 13.5l-48 -32.5l-48 -31.5l-86.5 -53.5t-96.5 -44.5q-29 -10 -52.5 -10.5t-39 6.5t-22.5 20t-4 30q5 33 28.5 68.5t49.5 68.5l19.5 24t20.5 24l-110.5 -82.5t-117.5 -77.5l-46 -28t-52.5 -28t-55.5 -22.5t-54 -11.5
q-24 -2 -37.5 4t-19 16.5t-5 24t5.5 27.5q11 35 39 70.5t60 69.5q36 38 77 75t85 72l87.5 70t95.5 67l27.5 16.5t28.5 16.5q10 6 22.5 9.5t23 4t17.5 -3t6 -13.5q-2 -10 -13.5 -21.5t-19.5 -20.5l-32.5 -31.5l-33.5 -30.5l-45 -39.5l-45 -39.5l-112 -100.5l-110 -100.5
l-26 -23t-37 -35t-26.5 -33.5t5.5 -18.5q22 -2 45.5 5t46 17.5t43.5 23t37 23.5q90 57 169 116.5l157 121.5l20 16q33 32 69.5 63.5t78.5 61.5l41.5 28t45.5 27q11 6 22 6.5t19 -2t10.5 -8.5t-2.5 -14zM947 340l39 36.5t36 37.5q6 7 15.5 17t17 21t10.5 20.5t-3 15.5
q-4 4 -12 3.5t-17.5 -3.5t-18 -7t-13.5 -7q-26 -15 -46 -34.5l-38 -37.5q-36 -37 -65 -76t-46 -77q-11 -21 -16 -41q42 32 80.5 65z" />
    <glyph glyph-name="x" unicode="x" horiz-adv-x="512" 
d="M479 500q-2 -46 -17 -94t-36 -97l167 104l127 80q5 3 11 7.5t13 6.5q14 5 18.5 -1.5t-6.5 -13.5l-10 -6l-155.5 -97.5l-156.5 -97.5l-22 -14l-40 -92q-9 -17 -15 -35t-13 -36l-14.5 -37.5t-11.5 -36.5v-13q0 -7 11 -7q12 0 26 5t27.5 12t26 15l22.5 14q48 32 92 66t83 69
l11 11.5t18 16.5t19.5 12.5t16.5 -1.5q4 -3 -0.5 -9t-12 -12.5t-16 -13l-13.5 -10.5l-68 -57.5t-73 -56.5l-37.5 -26.5t-46 -29t-50 -23t-48.5 -9.5q-23 1 -33.5 12.5t-15.5 23.5q-7 15 -9.5 32t-1.5 35q1 20 4.5 41.5t8.5 43.5l-140 -87l-108 -68q-4 -2 -10.5 -7t-14 -9.5
t-14.5 -8t-13 -3.5q-15 0 -9.5 7.5t18 16.5t26.5 17t17 10l82.5 51.5l82.5 51.5l90 57l15 46q13 37 29 74t38 74l-16 -15l-134 -120l-11.5 -12t-19 -18.5t-21 -17t-18.5 -7.5q-10 0 -10.5 3.5t3 9t10 10.5t9.5 8l73 66l81.5 74l82.5 74l28 27q3 4 6.5 7t7.5 7q8 7 18.5 11
t20 4.5t15.5 -3t6 -11.5z" />
    <glyph glyph-name="y" unicode="y" horiz-adv-x="648" 
d="M804 227q-36 -30 -80 -55t-92.5 -46.5t-99 -40.5t-100.5 -36l-49 -49l-50 -49l-160.5 -149t-180.5 -142q-44 -30 -94 -57t-105 -44q-29 -9 -58.5 -12.5t-54.5 -2t-44.5 10t-28.5 23.5q-15 23 -7.5 50.5t29 55.5t52.5 55.5t64 50.5q75 53 165.5 92.5t184.5 73.5l81 28.5
l82 26.5l139 144l-36 -21l-37 -20q-43 -22 -96 -41t-102 -24q-23 -2 -38 2.5t-23 13.5t-10.5 21t-0.5 25q7 37 35.5 75.5t62.5 74.5q36 38 76.5 74t85.5 71q35 29 73.5 57t85.5 51q10 5 21 6t19 -1t11.5 -7.5t0.5 -12.5q-3 -11 -14 -22t-20 -22q-48 -53 -104.5 -104
l-110.5 -103l-38 -36.5l-38 -38.5l-35 -36q-4 -5 -11 -12t-13 -15t-8.5 -15t2.5 -11q9 -6 24 -6t32 3t34 8.5t29 11.5q46 20 87 43.5t79 49.5l29.5 20t28.5 21l77.5 75t83.5 74q38 32 85 67t101 56q8 3 19.5 6t21.5 3.5t16.5 -2t4.5 -10.5q-2 -6 -10 -11t-19 -6
q1 -1 -2 -3.5l-6.5 -5.5t-7.5 -5.5t-5 -3.5q-30 -27 -55.5 -54.5l-52.5 -55.5l-132 -140.5l-135 -139.5l50 19q48 17 94 37t89 44l40.5 24.5t37.5 26.5q7 5 14.5 9.5t15.5 1.5q12 -5 1 -14zM-107 -147q-55 -26 -104.5 -57.5t-87.5 -66.5q-18 -17 -35 -36t-26.5 -37.5
t-10 -36.5t13.5 -31q13 -13 34.5 -16t47 0.5t52.5 13t50 21.5q54 27 93 60.5t74 68.5l119.5 123l117.5 124q-88 -29 -172.5 -60t-165.5 -70z" />
    <glyph glyph-name="z" unicode="z" horiz-adv-x="543" 
d="M497 487q-15 -11 -23.5 -22.5t-8 -21t11 -15t32.5 -4.5q55 2 116.5 16t115.5 34q15 5 28.5 11l27.5 12q8 4 16.5 9t16.5 7q16 3 17 -4.5t-10 -13.5q-11 -5 -21 -11l-21 -12l-405 -231l-58 -33l-56 -32l30 -2q54 -8 81 -33q23 -23 28 -55q8 3 17 6t17 7q57 24 108 53.5
t94 63.5q8 5 17.5 14t20.5 8q9 0 11 -4.5t-5 -9.5q-6 -7 -16 -14l-17 -12l-53 -35q-44 -28 -92.5 -50.5t-100.5 -42.5q0 -30 -17 -62q-17 -35 -50 -70.5t-77 -66t-98 -54t-112 -32.5q-24 -4 -51 -5t-51.5 1.5t-44.5 9.5t-31 19q-11 15 -5.5 32t21.5 34.5t39 34t46 29.5
q74 42 155.5 65l165.5 46q8 17 12 34t0.5 32t-16.5 25.5t-39 14.5q-4 1 -13.5 1t-17 1.5t-9 5t10.5 9.5l8 5l138 79l290 165l-19 -9q-48 -23 -102 -43t-105 -22q-44 -1 -71 13t-32 37l-62 -56l-60 -56q-14 -11 -26 -22.5l-23 -22.5q-7 -5 -15.5 -13t-19.5 -8q-10 0 -10.5 4
t4 9.5t11.5 11t10 8.5q36 31 69 63l125 112q6 18 24 36q18 17 45.5 31.5t56.5 20.5q11 2 20.5 0.5t14.5 -6t3.5 -11t-11.5 -13.5zM153 -7q-27 -8 -56 -19t-56.5 -23.5t-52.5 -28t-44 -32.5q-14 -14 -23 -30t2 -27t34 -13.5t45 -0.5q55 4 102 26t84.5 53.5t65 67t43.5 66.5
q-36 -10 -72.5 -19t-71.5 -20z" />
    <glyph glyph-name="a" unicode="a" horiz-adv-x="818" 
d="M978 229l-90 -64.5t-95 -63t-101.5 -57t-109.5 -46.5q-21 -8 -41.5 -13.5t-38.5 -6.5t-32 3.5t-23 17.5t-9 30t5 35.5t14.5 37t19.5 35.5l18 28l-64 -42.5l-66 -40.5q-24 -14 -55 -30t-65 -29.5t-68 -22.5t-62 -10t-49 8.5t-28 33.5q-11 32 2.5 69t41.5 75.5t66 75
t76 68.5q37 30 82.5 62t97 59t107.5 46t113 25q60 6 96.5 -12t32.5 -55q-3 -17 -9 -33l29 21q17 12 41 27t51 28t54.5 21.5t51.5 7.5q9 0 10 -3.5t-2 -8t-8 -9.5t-9 -8l-34.5 -29.5l-33.5 -28.5l-92.5 -85.5l-88.5 -87.5l-53.5 -54l-51.5 -55l-26 -29.5l-27.5 -31t-24 -31
t-14.5 -30.5q-2 -8 2.5 -12t12.5 -5.5t19.5 0t22.5 4.5q41 10 82.5 32.5t73.5 41.5q40 23 77 47.5l73 50.5l75 54q13 9 24 4t0 -14zM700 378q12 14 20.5 30t10.5 31t-4 27t-23 18q-19 6 -40 5.5t-43 -6.5t-43 -15.5t-39 -21.5q-49 -30 -92 -63.5l-82 -66.5
q-45 -36 -85 -72.5t-76 -74.5l-31.5 -34t-29.5 -34q-15 -17 -30 -37t-9 -36q4 -15 24 -16.5t45 4.5t50 15.5t41 17.5q56 26 106 57.5l97 63.5l36.5 25.5t35.5 26.5q34 40 74.5 79t86.5 77z" />
    <glyph glyph-name="zero" unicode="0" horiz-adv-x="813" 
d="M258 364q69 75 160 142.5t199 124.5q44 24 101.5 49.5t116 42t112 19t90.5 -21.5q32 -22 39 -56t1 -68q-5 -38 -20 -76.5t-40 -77.5q-34 -55 -84.5 -108.5t-113.5 -103.5q-66 -52 -140 -98.5t-158 -85.5q-34 -16 -72 -31.5t-77.5 -27t-78.5 -17.5t-74 -1q-40 5 -61.5 23
t-30.5 42t-8 51.5t7 52.5q13 56 47 113t85 113zM360 345l-68.5 -77.5t-61.5 -79.5q-24 -35 -41.5 -72t-12.5 -69q3 -26 27 -42.5t72 -12.5q52 3 105.5 24.5t98.5 47.5q100 57 179.5 126.5t145.5 138.5q54 56 104 113.5t85 115.5q11 19 20 39.5t12 40t-2 37t-22 29.5
q-18 12 -42.5 14t-53 -2t-57.5 -13.5t-56 -20.5q-71 -30 -130.5 -71t-110.5 -83q-54 -45 -101 -90.5t-90 -92.5z" />
    <glyph glyph-name="n" unicode="n" horiz-adv-x="707" 
d="M-80 7l219.5 239.5l220.5 239.5l24 23.5t28 22.5t32.5 14t38.5 -2q19 -6 22 -15.5t-3.5 -20.5t-18.5 -23.5l-22 -22.5l-142.5 -138l-142.5 -138l-35 -35l89.5 66.5l90.5 64.5l99.5 67.5t103.5 64.5l49.5 27l50.5 26l57 26.5t60 20.5q25 6 47 4t33 -15q9 -14 3 -32
t-17 -35q-21 -37 -54.5 -72.5l-69.5 -70.5q-40 -38 -82 -74l-83 -73q-20 -17 -38.5 -35l-36.5 -35l-14 -14q-8 -8 -13 -16t-5 -14.5t11 -9.5q13 -4 29.5 -3t34.5 5.5t35.5 11l32.5 12.5q53 23 100 53.5t90 61.5q43 30 80 62q8 5 15.5 12t18.5 6q9 0 11 -5.5t-5 -11.5
q-5 -6 -16 -13l-20 -13l-45.5 -33.5l-47.5 -33.5q-48 -32 -98 -62t-107 -53q-32 -14 -66 -23t-66 -9q-29 0 -43.5 8.5t-19 22t-0.5 30t12 32.5q19 37 52 73.5t68 71.5q46 46 98 90l104 89l34.5 28.5t33.5 29.5l9 9q5 5 6.5 8.5t-2 5t-13.5 1.5q-23 -1 -47.5 -8.5
t-47.5 -18.5t-45 -23.5l-40 -23.5q-93 -54 -177 -112.5l-165 -118.5l-80.5 -61l-78.5 -62q-15 -11 -29.5 -23l-28.5 -24l-13 -12q-11 -11 -27 -15.5t-28.5 -3t-17 8.5t7.5 19z" />
    <glyph glyph-name="b" unicode="b" horiz-adv-x="600" 
d="M447 425q23 13 54.5 28.5t66 29t69 23t63 11t48.5 -8t25 -34.5q3 -16 -1.5 -33.5t-14.5 -35.5t-23 -36.5t-27 -35.5q-29 -35 -66.5 -69.5t-80.5 -67.5t-90 -64t-101 -57q-53 -26 -112.5 -48.5t-116.5 -30.5q-56 -9 -82 2.5t-28.5 37t13.5 61.5t42.5 76.5t60 82.5l65.5 79
l58.5 66l39.5 43l146.5 156.5t156.5 153.5l77 70t84 70t94 64.5t107 54.5q23 9 46.5 16.5t44.5 5.5q24 -2 30.5 -13.5t-1.5 -26.5q-10 -18 -26 -36.5t-35.5 -36.5l-40 -35.5l-39.5 -33.5l-185.5 -148l-192.5 -145l-165 -122l-48.5 -46.5l-48.5 -47.5l66 41zM63 61
q-5 -14 -2.5 -28.5t20.5 -19.5q20 -7 48 -2t53 15q51 20 92 49.5l79 58.5q75 55 142.5 112.5t124.5 117.5q17 18 30.5 36l26.5 36q4 7 8 15t5 15t-3 12.5t-16 7.5q-20 4 -46 -1t-52.5 -15t-51.5 -21.5t-44 -21.5q-57 -29 -109.5 -61.5t-100.5 -66.5l-3 -3q-27 -28 -58.5 -57
t-60 -58.5t-50.5 -59.5t-32 -60zM579 577l190 145t178 149l37.5 36t35.5 37l12.5 13t15.5 18.5t10.5 18t-2.5 11.5q-6 4 -19 -2t-29 -17t-33 -25l-32 -27l-26 -23t-14 -13l-160 -146.5l-159 -147.5l-110 -104z" />
    <glyph glyph-name="A" unicode="A" 
d="M-62 -129l345.5 305l367.5 298l189 141.5t200 135.5l104.5 63.5t112.5 58.5q48 22 102.5 41t106.5 21q27 1 42 -7t21 -21t5 -28.5t-4 -30.5q-9 -39 -28.5 -79t-46.5 -80q-51 -81 -118.5 -161.5l-139.5 -159.5l-146 -156l-155 -155l-79.5 -76.5t-85.5 -75.5
q-37 -32 -86 -62q-11 -8 -26.5 -16.5t-31.5 -5.5q-10 2 -11 8.5t2.5 14t9 15.5l9.5 14q14 20 30.5 39.5l34.5 39.5l75 77.5l76 77.5l65 66l65 67q-88 -10 -175 -17t-175 -15q-56 -5 -110.5 -9l-111.5 -8q-6 0 -18.5 -1.5t-22.5 -1.5l-58 -50l-89 -76l-87 -76l-81 -73
q-5 -4 -14 -14t-20 -20t-22 -17t-19 -4q-13 3 -2 13zM356 204l109 12l44 4l43 4l102 9.5l101 9.5l103 8l49 4l49 4h6l77.5 80l76.5 81l112.5 120l106.5 121l67 77t58 79l16 28t12 31.5t-3.5 26.5t-30.5 12q-27 1 -56 -5.5t-58 -17t-56 -24.5l-51 -25q-57 -29 -108 -60
l-102 -64q-104 -68 -200.5 -139l-189.5 -144l-144.5 -116l-140.5 -117q4 1 8 1z" />
    <glyph glyph-name="M" unicode="M" horiz-adv-x="1404" 
d="M-57 -117l181.5 208.5l181.5 209.5l227 258l226 259q18 20 43.5 37t60.5 12q18 -3 24 -10t4.5 -16.5t-9 -20t-16.5 -20.5l-92 -99l-91 -99l-399 -430l187 162l194 159l180.5 137.5t198.5 128.5l46 26t51 26t53.5 20t53.5 9q30 1 44.5 -9t18 -26t-1 -34.5t-10.5 -33.5
q-15 -38 -37 -75.5t-50 -75t-59.5 -74.5l-64.5 -73l-32 -36l51 40.5l51 40.5l181 135.5t196 128.5l46 28t52.5 28t55.5 22t54 10q31 1 43.5 -9.5t13 -26.5t-6.5 -34.5t-14 -33.5q-19 -38 -46.5 -75.5t-59.5 -74.5t-68 -73.5l-72 -72.5q-55 -57 -113.5 -111.5l-118.5 -110.5
l-134 -121t-130 -123l-17 -16q-12 -13 -22.5 -26t-14 -22.5t11.5 -8.5q25 2 52.5 11.5t54.5 23t51.5 28l43.5 26.5q51 32 97.5 64.5l91.5 66.5l46.5 35.5l45.5 35.5l22.5 18l22.5 18l16 16q10 10 23 14q8 3 15 1t6 -8q-2 -6 -10.5 -12t-13.5 -11l-47.5 -37.5l-48.5 -37.5
l-90 -66.5t-93 -65.5l-94.5 -59.5t-100.5 -55.5q-18 -9 -43.5 -18.5t-49.5 -14.5t-42 -2.5t-21 19.5q-4 14 4 30.5t17 31.5q11 20 25 39l29 38q62 80 135 155q115 121 239 239l245 238l72 74l13.5 15.5t14 17.5t10 18t1.5 16q0 4 -5.5 5t-12 0.5t-14 -2t-11.5 -2.5
q-29 -7 -57 -19t-53 -26q-54 -29 -102 -61.5l-94 -65.5l-97 -70l-95 -71l-131.5 -103.5l-127.5 -104.5l-76 -74.5l-78 -72.5l-79.5 -75t-85.5 -74l-39 -33.5l-40 -33.5q-20 -15 -40.5 -32.5t-43.5 -30.5q-11 -6 -22.5 -7t-20 1.5t-12 7.5t0.5 13q10 18 30 38.5l37 37.5
l60 63.5l63 63.5l133 132l131 133l99 99q50 50 96 101l98 105l32.5 35t31.5 37t26 37.5t15 35.5q4 14 -3 20t-20 6t-31 -4.5t-36 -11t-35 -14.5l-27 -12q-48 -24 -91.5 -52.5l-86.5 -57.5q-95 -67 -183 -136l-174 -140l-323 -281l-73.5 -66l-70.5 -65l-69 -75l-21 -22
q-10 -11 -25 -15.5t-27 -3t-17 8.5t6 19z" />
    <glyph glyph-name="B" unicode="B" horiz-adv-x="1250" 
d="M630 456q-56 1 -98 15.5t-65.5 39t-26.5 58t19 72.5q22 40 62.5 75t92 64t110.5 51.5t119 37.5q124 31 249 40t234 -1q54 -5 101 -16.5t84 -30.5t61.5 -46t32.5 -61q11 -45 -5.5 -94.5t-55 -98t-94.5 -94.5t-125 -83q-118 -63 -244 -97.5t-253 -47.5q30 -5 56 -12
t45.5 -18.5t30.5 -28t9 -40.5q-3 -37 -34 -72.5t-78 -66t-105 -53.5t-114 -36q-53 -12 -106.5 -16.5t-105.5 -3t-100 8t-89 17.5q-46 12 -81.5 33.5t-54 50t-18.5 63.5t25 74q11 18 28 35.5t37 33.5q8 3 15.5 4.5t11.5 -3.5q2 -3 -0.5 -6.5t-7 -6.5t-10 -6t-9.5 -6
q-42 -32 -59 -68.5t-12 -68.5q5 -34 32 -58t68 -39t92.5 -21t106.5 -4q52 1 106.5 11t107.5 27.5t102 42t90 55.5q21 16 39 34t28.5 35.5t11 34.5t-13.5 31q-11 11 -28.5 18t-37.5 12q-11 2 -22.5 3.5t-24.5 1.5q-11 1 -25 -0.5t-24 0.5q-16 2 -11 10q6 9 20 9l1 1l1 -1h3
h14q32 0 65 2.5t66 7.5q57 9 115.5 26t113.5 40t105 52.5t93.5 62.5t79.5 68.5t63 71.5q27 37 41.5 73.5t14.5 70.5t-16.5 63t-51.5 51q-36 22 -84 34t-103 16.5t-114.5 2.5t-117.5 -8q-68 -7 -141.5 -22.5t-142 -41t-127.5 -61.5t-97 -83q-36 -45 -40.5 -88.5t31.5 -73.5
q33 -28 94 -36q11 -1 20 -1.5t18 -0.5q7 0 15 0.5t13 -3.5q5 -5 -2.5 -11t-18.5 -6zM1109 731q-63 -78 -137 -152.5l-150 -149.5l-122.5 -117.5l-124.5 -115.5l-77 -68.5l-81 -66.5q-8 -6 -17.5 -14t-20 -15.5t-21.5 -13t-23 -5.5q-17 -1 -21.5 4t-2 12.5t9 16.5t11.5 15
q44 56 95 109.5l104 107.5l153.5 148.5l157.5 147.5l73 65.5l77 64.5l35 31t44 24q23 5 36 -4t2 -24z" />
    <glyph glyph-name="C" unicode="C" horiz-adv-x="1028" 
d="M1152 474q53 -6 110 2t111 27.5t101.5 49.5t81.5 66q35 37 46.5 73t2.5 66t-37.5 53.5t-74.5 36.5q-47 13 -103.5 17t-117.5 -0.5t-123.5 -17t-122.5 -30.5q-118 -36 -223.5 -91t-193.5 -120q-91 -69 -160 -143.5t-114 -150.5q-22 -37 -39 -76t-24.5 -76.5t-2.5 -72.5
t28 -63q30 -37 84 -56.5t122.5 -24.5t146 4t153.5 31t145.5 56t121.5 78q33 28 54 60q5 8 8.5 16t3.5 16q0 4 4 7t9 4.5t10.5 1t7.5 -3.5q3 -5 0.5 -12.5t-8.5 -16t-13 -17t-12 -13.5q-16 -18 -36 -35t-42 -33q-94 -67 -210.5 -108t-236.5 -61q-54 -9 -108.5 -15t-105 -5.5
t-95 9.5t-78.5 29q-35 21 -55.5 49.5t-29 61t-6.5 68.5t12 72q21 75 71 153t124 153.5t168.5 144t203.5 123.5q111 56 231.5 90.5t239.5 43.5q55 4 112.5 3.5t111 -8t98.5 -21.5t77 -37q34 -24 44 -57.5t-1 -70.5t-42.5 -75t-80.5 -72q-48 -33 -105 -57t-118 -36
q-29 -5 -57.5 -7.5t-55.5 -2.5q-8 0 -19.5 -0.5t-16.5 4.5q-2 3 -0.5 6t5.5 5.5t9 4t10 1.5z" />
    <glyph glyph-name="D" unicode="D" horiz-adv-x="1343" 
d="M699 454q-56 1 -96.5 16t-62.5 39.5t-24.5 57.5t18.5 71t59.5 72t88 62t106 50t115.5 36q110 26 222 34t212 2q109 -7 184.5 -44t97.5 -104q19 -63 -4 -133.5t-74.5 -142.5t-124 -141.5t-153.5 -130.5q-80 -60 -179.5 -118t-207.5 -101.5t-220.5 -67t-217.5 -12.5
q-50 5 -99 14t-88.5 25t-66 40t-32.5 58t11 72.5t55 74.5q7 6 15.5 14.5t17.5 13.5q8 6 18 5.5t9 -6.5q0 -6 -11 -12t-16 -11q-24 -18 -41 -36q-34 -39 -39 -73.5t12.5 -62t54.5 -46t88 -24.5q49 -6 103.5 -3t110.5 12.5t111.5 24.5t107.5 34q117 42 218 101.5t189 125.5
q79 61 146 126.5t113 133.5q27 37 45 75.5t24 75t-1.5 70t-32.5 61.5q-23 26 -60 43.5t-82.5 27.5t-97.5 13.5t-105 2.5q-68 -2 -143.5 -13t-147 -33.5t-134.5 -57t-106 -82.5q-40 -44 -49 -89.5t22 -77.5q32 -31 96 -40l37 -3q7 0 16 1t13 -3q5 -5 -3 -11.5t-17 -5.5z
M1175 731q-63 -78 -137 -152.5l-150 -149.5l-122.5 -117.5l-124.5 -115.5l-77 -68.5l-81 -66.5q-8 -6 -17.5 -14t-20 -15.5t-21.5 -13t-23 -5.5q-17 -1 -21.5 4t-2 12.5t9 16.5t11.5 15q44 56 95 109.5l104 107.5l153.5 148.5l157.5 147.5l73 65.5l77 64.5l35 31t44 24
q23 5 36 -4t2 -24z" />
    <glyph glyph-name="E" unicode="E" horiz-adv-x="989" 
d="M1137 476q55 -2 114.5 9.5t118 31.5t112.5 47.5t98 58.5q45 32 77.5 70t37.5 75q2 34 -22.5 57.5t-65.5 37.5q-39 14 -88 21.5t-102.5 9t-109.5 -2t-110 -11.5q-120 -18 -236.5 -60.5t-220.5 -100.5q-54 -30 -107.5 -65.5t-99 -74.5t-79.5 -80t-50 -81q-17 -42 -4 -74
t47.5 -53t86 -31.5t111.5 -9.5q8 1 14.5 1t9.5 -2q6 -5 -0.5 -10.5t-15.5 -7.5q-8 -2 -16.5 -1t-15.5 2h-12q-51 0 -103.5 -12.5t-100.5 -33.5t-89 -49.5t-68 -61.5q-31 -38 -28 -69.5t44 -50.5q32 -17 75.5 -22t89.5 -6q56 0 115.5 7t119 21t118 34t112.5 46q52 25 101 56
t81 66q7 8 13 16.5t9 16.5q2 6 4 13.5t16 9.5q13 2 14 -4t-3.5 -14.5t-11.5 -17.5t-10 -12q-32 -36 -78.5 -68t-101.5 -59.5t-114 -50t-115 -38.5q-60 -17 -121 -28.5t-122 -19.5q-48 -6 -96 -10t-93 -1q-51 3 -93 17t-62 42q-19 29 -12 65t39 71q31 35 75.5 61t96 45
t106.5 30.5t108 18.5q-33 4 -63 12q-95 26 -127.5 85.5t2.5 136.5q25 53 70.5 101.5t106 92t133 80.5t150.5 66t158.5 50t158.5 32q106 15 208 16.5t193 -11.5q41 -6 79.5 -16.5t67 -28t43 -41.5t6.5 -56q-7 -32 -33 -63.5t-63 -61t-82.5 -55.5t-91.5 -47
q-48 -20 -97.5 -36.5t-100.5 -26.5q-26 -5 -53 -8.5t-53 -4.5q-7 0 -13.5 0.5t-6.5 5.5q-1 5 6 9.5t15 4.5z" />
    <glyph glyph-name="F" unicode="F" horiz-adv-x="1130" 
d="M624 501q-42 15 -69.5 37.5t-38 51.5t-1.5 63t39 71q31 38 76.5 68.5t99.5 52t113 33t116 10.5q55 -1 103.5 -12t88.5 -29q34 -16 59.5 -35.5t54.5 -38.5q32 -22 70 -40.5t83 -30.5l7 3q54 25 111.5 45.5t116.5 33.5q22 5 50.5 9t54 3t42.5 -8t17 -25q-1 -19 -19 -33.5
t-43.5 -25t-55 -17.5t-52.5 -11q-60 -9 -117.5 -12t-114.5 -2h-5q-67 -41 -124.5 -87t-109.5 -92l-102.5 -96.5l-98.5 -97.5l-41 -39l64 6l105 10l90 7q5 1 16 2.5t18 -0.5q4 -2 1 -6.5t-10 -5.5q-78 -11 -155 -20t-154 -17q-62 -55 -131.5 -106t-148.5 -97
q-100 -57 -212.5 -103t-228.5 -69l-36.5 -7.5t-35.5 -2.5q-11 2 -8 9.5t17 10.5q8 3 19 5.5t21 5.5q60 17 118 40t112 49q109 53 203 117t175 134l2 2l-29 -3l-173 -17l-51 -4l-51 -4q-4 0 -11.5 -1.5t-16 -2t-16 -0.5t-10.5 2q-5 4 1.5 6.5t16.5 4.5t20 3t12 1q39 5 79 9.5
t80 9.5l174 19q61 57 116 114.5t122 113.5q66 54 142 104.5t161 95.5q-37 3 -71.5 8.5t-64.5 16.5q-41 14 -69 35.5t-59 42.5q-39 25 -88 47t-116 24q-64 2 -131 -19.5t-119 -60.5q-54 -40 -77 -85.5t-6 -83.5q11 -18 27 -32.5t39 -24.5q4 -2 12 -3.5t15.5 -3.5t13 -4.5
t6.5 -5.5q1 -7 -9.5 -12t-19.5 -3zM1632 690q26 4 54 10.5t54 17.5q11 4 21 11t16 14t6 14t-8 12q-17 10 -44 9.5t-58 -6.5t-61.5 -16t-52.5 -19l-49.5 -21.5t-46.5 -23.5q38 -7 80 -8t89 6z" />
    <glyph glyph-name="G" unicode="G" horiz-adv-x="1241" 
d="M593 188q20 14 38 28.5t41 26.5q23 13 46.5 21.5t48.5 15.5q58 16 106 20.5t91 2.5t84.5 -8t88.5 -11q24 -2 59.5 0t62.5 6q6 1 16 3t20 5q3 2 6.5 3.5t6.5 3.5q2 2 5.5 3.5l8.5 3.5l1 1q11 5 19.5 6t6.5 -9q0 -5 -5 -7.5t-10 -5.5l-25 -9q-8 -4 -16 -9t-13 -9
q-26 -17 -47.5 -35.5t-39.5 -38.5q-25 -26 -42.5 -52t-37.5 -52q-42 -60 -92 -120.5t-113 -117.5q-38 -34 -82.5 -67.5t-94 -63.5t-104.5 -55.5t-114 -44.5l-40 -11.5t-39 -9.5q-18 -3 -20 5t15 14q18 9 38 16.5t40 17.5l54.5 28.5t50.5 30.5q94 59 166.5 126.5t127.5 137.5
l47 54l-44 -27q-53 -32 -111.5 -51.5t-120.5 -30.5q-49 -9 -101 -16t-101.5 -9.5t-95.5 1t-83 15.5q-45 14 -74.5 38.5t-45.5 54.5t-20.5 65t0.5 70q10 68 47 139.5t95.5 141.5t136.5 136.5t170 123.5q102 63 217 111t239 74q114 23 224.5 27t207.5 -10q33 -5 62.5 -13
t54 -20t42.5 -28.5t27 -37.5q17 -41 -3 -89.5t-66 -94.5q-45 -44 -108 -80.5t-137 -56.5q-78 -20 -145 -17q-14 1 -32.5 1t-27.5 5q-7 1 -7.5 4.5t3 7.5t9.5 6t13 1q49 -12 104 -7.5t109.5 21.5t104.5 45t88 63q39 35 59.5 71.5t21 69t-19.5 60t-62 44.5q-38 16 -86 22.5
t-101.5 6.5t-110 -7t-110.5 -18q-121 -26 -235 -72.5t-211 -106.5q-105 -63 -186.5 -135.5t-138.5 -149.5q-48 -63 -79.5 -128.5t-33.5 -125.5q-2 -73 52.5 -121t163.5 -59q44 -5 92 -5.5t97.5 6t99 21t95.5 40.5q29 16 55.5 34t51.5 38l30 26q43 36 91 71l96 69l18 12.5
t19 12.5q-30 -8 -64 -16t-66.5 -14.5t-61.5 -10.5t-49 -4q-50 0 -97.5 3.5t-95.5 6.5q-38 2 -78 -0.5t-78 -22.5q-17 -9 -25.5 -18t-22.5 -19q-7 -4 -13.5 -4.5t-10 2t-3.5 6t6 8.5z" />
    <glyph glyph-name="H" unicode="H" horiz-adv-x="1194" 
d="M504 783q20 8 40 18.5t40 18.5q29 12 60 18.5t60 8.5q60 4 110 -6t92 -27q15 -6 26 -14l21.5 -16l21 -16.5t24.5 -15.5q18 -10 51 -13t65 7l18 10q9 5 19 10q7 3 14 3.5t11.5 -1t4.5 -5t-7 -8.5l-11 -6l-22.5 -8.5t-22.5 -10.5q-26 -14 -47.5 -31t-40.5 -34
q-45 -38 -76.5 -77l-63.5 -79l-85.5 -102t-93.5 -101q33 6 66.5 10t67.5 7q58 5 112 5.5t106 -2.5q17 -2 35 -3t35 -3l33 36l33 36q69 75 150 148.5t183 137.5q45 29 97.5 54.5t109.5 39.5q26 6 52 8t46 -3q11 -2 13.5 -8t-16.5 -10q-14 -2 -27.5 -2t-28.5 -4
q-25 -6 -49 -16.5t-47 -22.5q-52 -29 -96 -64.5l-84 -70.5q-64 -59 -120.5 -119.5l-108.5 -121.5q-56 -63 -118.5 -121t-138.5 -115q-42 -31 -87 -60.5t-97 -55.5q-27 -15 -57 -26q-17 -6 -23 -2.5t-4.5 9.5t10 11.5t20.5 3.5q4 -1 14 4t20.5 12l19.5 13.5t12 8.5
q40 30 75 63q51 51 96 102l52 60l53 60q-97 8 -201 3.5t-210 -22.5q-5 -2 -11 -2.5t-11 -1.5q-6 -7 -12.5 -13l-12.5 -12l-76.5 -71t-85.5 -70.5t-95.5 -66t-106.5 -56.5q-23 -10 -50 -19.5t-54.5 -15.5t-53 -7.5t-45.5 5.5l-3 2q-14 3 -24 16t-9 18q0 16 13.5 33t34 33.5
t44.5 31.5l45 27q52 30 107.5 56t114.5 49q35 14 71 25.5l71 22.5q42 44 79.5 88t79.5 88q68 72 160 139.5t187 130.5l11 6q-10 -1 -19 -3q-9 -1 -19 -3q-50 -7 -96 -4.5t-84 13.5q-31 8 -56 21t-51 25l-31.5 15t-35.5 13t-41 6.5t-48 -4.5q-37 -7 -70 -28
q-10 -7 -18.5 -7.5t-12.5 2t-2.5 7t10.5 8.5zM269 135l-52.5 -27t-54.5 -32t-46 -35.5t-27 -36.5q-7 -15 10 -25q1 0 2 -0.5t2 -0.5q6 2 13 -1q-1 -2 8.5 -1t22 3t23.5 4t13 3q59 18 108.5 51t91.5 65q42 35 79 70l73 71q-70 -21 -136.5 -48.5t-129.5 -59.5z" />
    <glyph glyph-name="I" unicode="I" horiz-adv-x="624" 
d="M465 783q20 8 40 18.5t40 18.5q27 11 54.5 17.5t56.5 8.5q60 5 112 -4t93 -26q16 -6 28 -13.5t23 -15.5t21.5 -16.5t22.5 -15.5q9 -6 22.5 -10t30 -5.5t34 0t34.5 6.5l18 10q9 5 19 10q1 0 2 1v-1q6 3 12.5 3t10.5 -1.5t4 -5t-7 -7.5q-3 -3 -8 -4.5t-10 -3.5
q-38 -17 -68.5 -37t-57.5 -45q-45 -38 -76.5 -77l-63.5 -79q-101 -128 -228 -252l-76.5 -71t-85.5 -70.5t-95 -66t-106 -56.5q-23 -10 -50 -19.5t-54.5 -15.5t-53.5 -7.5t-46 5.5q-5 3 -5 7.5t3 8t9 5.5t14 0q-1 -2 8.5 -1t21.5 3l23 4t13 3q59 18 109 51t91 65
q44 36 82.5 73l76.5 75q48 49 90 98l88 98q68 72 160 139.5t187 130.5l11 6q-10 -1 -19 -3q-9 -1 -19 -3q-50 -7 -96 -4.5t-84 13.5q-29 8 -54.5 21l-50.5 25l-32 15t-36 13t-41 6.5t-47 -4.5q-39 -7 -72 -28q-10 -7 -18.5 -7.5t-12.5 2t-2.5 7t10.5 8.5z" />
    <glyph glyph-name="J" unicode="J" horiz-adv-x="789" 
d="M635 783q20 8 39.5 18.5t39.5 18.5q27 11 55 17.5t56 8.5q61 5 113.5 -4t93.5 -26q31 -12 49.5 -29t43.5 -32q9 -6 24 -10t32.5 -5.5t36.5 0.5t37 9q7 5 16.5 11t18.5 9q14 6 20 -0.5t-6 -14.5q-6 -3 -14 -6l-13 -5q-1 -1 -3 -1q-37 -17 -69.5 -42l-59.5 -47
q-43 -36 -79 -74t-68 -77l-115.5 -137.5l-120.5 -137.5q-69 -77 -146 -151.5t-169 -145.5l-86.5 -64t-101 -63t-111.5 -50t-116 -27q-26 -2 -49.5 0t-42.5 9q-9 4 -17 8.5t-13 10.5q-3 3 -1 7t7 7t11 4t11 -2q9 -2 16.5 -5.5t16.5 -5.5q11 -2 23 -2.5t24 0.5q29 3 58 12
t55 21q57 26 105 58t90 66q44 35 84 72l78 74q61 60 115.5 121l107.5 123l66 73.5t74 71.5q39 36 83 71l91 69l77 57.5l80 56.5l33 21q-61 -13 -123 -13q-38 0 -69.5 7t-58.5 17.5t-52.5 23l-51.5 24.5q-27 13 -62.5 20.5t-81.5 -5.5q-16 -5 -32.5 -11.5t-29.5 -15.5
q-8 -6 -15.5 -6.5t-11.5 2.5t-2.5 7.5t10.5 8.5z" />
    <glyph glyph-name="K" unicode="K" horiz-adv-x="1296" 
d="M468 783q20 8 39 18.5t41 18.5q27 11 54.5 17.5t54.5 8.5q61 5 113.5 -4t93.5 -26q16 -6 27.5 -13.5t22 -15.5l21 -16.5t22.5 -15.5q18 -11 53.5 -15.5t69.5 6.5l17.5 10t18.5 10q7 3 14 3.5t11 -1t4 -5t-8 -8.5q0 -1 -7 -5q-11 -5 -23.5 -9t-23.5 -11q-26 -14 -47.5 -31
t-40.5 -34q-45 -38 -77 -77l-63 -79l-71 -86t-77 -85h12q55 2 112 12t114 30t107.5 47t96.5 56q60 39 115 80.5t119 78.5q36 21 77 41t84 34q25 8 48 11l48 6q9 0 11.5 -4t0.5 -8t-8 -7.5t-15 -2.5q-21 3 -44 -6t-44.5 -23t-40 -30l-30.5 -26l-58 -51t-62 -48
q-91 -66 -197.5 -119t-228.5 -76q-28 -5 -55 -8t-53 -5q90 -23 114 -79.5t-9 -127.5q-20 -40 -48.5 -78.5l-57.5 -77.5q-6 -7 -12.5 -15.5t-11.5 -17t-7 -17t1 -14.5q2 -7 14.5 -8.5t22.5 -0.5q27 1 55.5 9t57 20t55.5 25.5t50 26.5q52 30 102.5 63l98.5 66l47 34.5
l50.5 37.5l49 37.5l43.5 35.5q8 5 16 7t13 -3t-2.5 -11t-14.5 -11q-6 -5 -16 -12.5l-21 -15.5l-21 -15.5l-17 -12.5q-87 -65 -178.5 -126.5t-197.5 -115.5q-47 -23 -99.5 -44t-104.5 -24q-42 -2 -56.5 15.5t-12.5 41.5q4 37 20.5 75t36.5 76t37.5 76t22.5 75q9 65 -69 93
q-11 4 -24.5 7t-27.5 5l-25 2q-15 -17 -31 -32.5l-32 -31.5l-76.5 -71t-85.5 -70.5t-95.5 -66t-106.5 -56.5q-23 -10 -50 -19.5t-54.5 -15.5t-53 -7.5t-45.5 5.5q-5 3 -5 7.5t3 8t8.5 5.5t13.5 0q-1 -2 8.5 -1t22 3t23.5 4t13 3q59 18 108 51t90 65q45 36 84 73t75 75
q49 49 91.5 98l88.5 98q68 72 159 139.5t188 130.5l11 6q-10 -1 -19 -3q-9 -1 -19 -3q-50 -7 -96 -4.5t-84 13.5q-31 8 -56 21t-51 25l-31.5 15t-35.5 13t-41 6.5t-48 -4.5q-37 -7 -70 -28q-10 -7 -18.5 -7.5t-12.5 2t-2.5 7t10.5 8.5z" />
    <glyph glyph-name="L" unicode="L" 
d="M1230 -75q-43 -32 -94.5 -54t-109.5 -31q-63 -11 -120.5 -6.5t-107.5 15.5q-50 9 -92.5 23.5t-76.5 36.5q-26 17 -48 37t-48 37q-17 12 -36.5 23t-42.5 21q-58 -31 -125 -57q-58 -22 -122 -38.5t-120 -12.5q-27 2 -43 11t-20 22.5t6 29.5t36 33q25 15 54 26t59.5 18.5
t61 12t58.5 6.5q89 8 169 0q56 38 104 80l93 84l181 175q42 42 98.5 91.5t123 97t140.5 89t150 67.5t151.5 32.5t146.5 -15.5q17 -5 35.5 -12t29.5 -17q4 -4 2 -8.5t-7 -8t-11.5 -4.5t-10.5 4q-11 5 -18 11t-18 11q-22 9 -47 14.5t-55 5.5q-58 1 -114.5 -15t-108.5 -42
t-98.5 -58.5t-83.5 -64.5q-72 -59 -130.5 -121.5l-120.5 -123.5q-72 -73 -159 -141.5t-190 -128.5l-20 -12q49 -9 90.5 -24.5t73.5 -38.5q29 -21 54 -45.5t54 -46.5t65 -38.5t88 -20.5q43 -3 89 4.5t91 27.5q41 20 70 47q6 5 13 6.5t11.5 0t5.5 -5.5t-6 -9zM147 33
q-23 -8 -45 -21t-35 -26.5t-11.5 -25.5t27.5 -19q22 -6 48.5 -4.5t55 8t57 16t53.5 20.5q63 28 116 60q-56 17 -122.5 18t-143.5 -26z" />
    <glyph glyph-name="N" unicode="N" horiz-adv-x="1074" 
d="M-36 -117l182 208.5l183 209.5l451 517q18 20 43.5 37t61.5 12q18 -3 24 -10t4.5 -16.5t-9 -20t-16.5 -20.5l-184 -198l-240.5 -259l-238.5 -257l231.5 192l241.5 189l193 140.5t207 131.5l104 55.5t114 38.5q31 6 51 1.5t30 -15t11.5 -26t-4.5 -32.5q-11 -38 -35 -76
t-54.5 -76.5t-66 -75.5l-70.5 -73q-76 -78 -156.5 -152.5l-161.5 -149.5q-8 -8 -32.5 -29.5l-56 -49.5l-64 -59.5t-56 -58t-34 -45t3.5 -20.5q24 -1 52 6.5t55.5 19t53.5 25.5l46 25q54 29 103 61.5t95 66.5q45 31 86 62.5l82 63.5q4 3 11.5 10t15.5 12.5t16 7.5t14 -3
q4 -4 1 -9t-9.5 -10.5t-14.5 -10.5t-13 -9l-166 -123.5t-180 -115.5q-48 -29 -101.5 -57t-110.5 -44q-21 -6 -40.5 -7.5t-33.5 1.5t-22 11t-6 23q2 17 11 35t21 36.5t26.5 37l27.5 35.5q30 39 65 77.5l71 76.5l239.5 235.5l237.5 236.5l62 68q4 6 11 15.5t11 19t3 17
t-12 10.5q-20 5 -48 -1.5t-57 -18t-56 -25.5l-46 -24q-104 -57 -197 -124l-182 -134l-212 -165.5l-204 -168.5l-100.5 -85l-97.5 -86l-63 -54l-18 -20q-5 -5 -9.5 -10.5l-9.5 -11.5q-11 -11 -26.5 -15.5t-27.5 -3t-17 8.5t6 19z" />
    <glyph glyph-name="O" unicode="O" horiz-adv-x="1034" 
d="M269 369q60 65 131.5 124.5t159.5 115.5q94 60 200 112t224 81q56 14 109 18.5t97.5 -1.5t77.5 -23t49 -47q18 -32 18.5 -69t-11.5 -76t-34.5 -78.5t-50.5 -77.5q-48 -66 -113 -130t-143 -124q-90 -69 -192.5 -130.5t-220.5 -106.5q-50 -19 -102.5 -34.5t-104.5 -23.5
t-100 -6.5t-87 15.5q-43 16 -62 44.5t-21.5 63t7.5 72.5t25 72q23 53 60 105.5t84 103.5zM374 348q-38 -37 -73.5 -76t-64.5 -78.5t-49.5 -79.5t-27.5 -78q-4 -17 -3.5 -34t6.5 -32t18.5 -27.5t32.5 -20.5q18 -7 41 -8.5t47.5 1t50 8.5t49.5 13q59 18 115 44t108.5 56
t100.5 62.5l91 64.5q85 62 157 127.5t133 133.5q30 34 59 70.5t51.5 73t37 73t15.5 69.5q2 30 -15.5 57t-62.5 35q-35 7 -80 -0.5t-86 -20.5q-109 -35 -207 -92t-179 -116q-75 -54 -140.5 -110.5t-124.5 -114.5z" />
    <glyph glyph-name="P" unicode="P" horiz-adv-x="1199" 
d="M1059 731q-66 -81 -143.5 -159l-156.5 -156l-158 -155l-163 -154l-82 -76.5l-84 -76.5l-84 -71q-8 -6 -18 -15t-21 -17.5t-23.5 -15t-24.5 -7.5q-16 -1 -21 3t-4 11t6 15t11 14l33 39.5l35 39.5l73.5 79l74.5 78l190.5 186.5l195.5 185.5l98.5 92.5l102.5 91.5l23.5 21
l24.5 21q14 11 27.5 23.5t29.5 22.5q13 8 26.5 9.5t23 -2t13 -10.5t-4.5 -17zM581 456q-58 1 -100.5 16t-66 40.5t-24.5 60t23 74.5q24 39 64.5 73t91.5 62.5t109 50t117 36.5q106 26 209.5 35.5t200.5 7.5q57 -1 109.5 -7.5t96.5 -20.5t77.5 -36t52.5 -53
q18 -30 19.5 -65.5t-12 -73t-40 -75t-63.5 -73.5q-72 -70 -175.5 -125t-217.5 -90q-119 -37 -243 -52q-29 -4 -56.5 -6.5t-56.5 -3.5q-5 0 -11.5 -0.5t-13.5 -0.5t-12.5 0.5t-8.5 2.5q-4 5 3 11.5t18 6.5q109 -2 224.5 24t219.5 80q69 36 129 81.5t104.5 95t70 99.5t25 95
t-30 81.5t-94.5 58.5q-39 13 -86 19t-98 7.5t-104 -2t-105 -10.5q-57 -7 -117.5 -20.5t-118.5 -33.5t-110.5 -48t-93.5 -64q-26 -23 -44 -48t-26 -50t-5.5 -48t18.5 -42q30 -36 99 -47l36 -3q8 0 17 0.5t16 -1.5q10 -3 3 -11t-19 -8z" />
    <glyph glyph-name="Q" unicode="Q" horiz-adv-x="1047" 
d="M653 -189q-27 -13 -55 -22t-55.5 -13t-53 -2.5t-45.5 9.5q-39 15 -57 44t-19 61q-1 4 -1 8v6q-57 -10 -109 -9.5t-94 15.5q-43 16 -62 44.5t-21.5 63t7.5 72.5t25 72q23 53 60 105.5t84 103.5q60 65 131.5 124.5t159.5 115.5q94 60 200 112t224 81q56 14 109 18.5
t97.5 -1.5t77.5 -23t49 -47q18 -32 18.5 -69t-11.5 -76t-34.5 -78.5t-50.5 -77.5q-48 -66 -113 -130t-143 -124q-88 -69 -191.5 -130.5t-221.5 -106.5q-15 -6 -30.5 -11.5t-31.5 -10.5l-8 -40q-2 -12 -3 -26t2.5 -26t14 -21t31.5 -12q19 -2 41.5 1.5t43.5 9.5l15 4.5t15 3.5
q11 2 13 -5.5t-8 -12.5zM362 348q-38 -37 -73.5 -76t-64.5 -78.5t-49.5 -79.5t-27.5 -78q-4 -17 -3.5 -34t6.5 -32t18.5 -27.5t32.5 -20.5q32 -13 78 -8.5t90 16.5q4 34 12.5 68.5t10.5 67.5q0 16 -5 32t-17.5 27.5t-33.5 17t-52 1.5q-20 -2 -37 -9t-37 -12q-9 -3 -13.5 -1
t-4.5 5.5t4.5 8t13.5 7.5q54 17 104 22.5t91 -8.5t63.5 -40.5t31.5 -56.5q5 -20 5.5 -40t-2.5 -40q85 38 160.5 86.5t140.5 96.5q85 62 157 127.5t133 133.5q30 34 59 70.5t51.5 73t37 73t15.5 69.5q2 30 -15.5 57t-62.5 35q-35 7 -80 -0.5t-86 -20.5q-109 -35 -207 -92
t-179 -116q-75 -54 -140.5 -110.5t-124.5 -114.5z" />
    <glyph glyph-name="R" unicode="R" horiz-adv-x="1304" 
d="M627 456q-57 1 -98.5 16t-65 40t-25.5 59t21 73q22 38 60.5 71.5t87 61.5t104.5 50.5t113 37.5q105 28 208.5 38t202.5 10q55 0 108 -6t97.5 -19.5t77.5 -35t50 -53.5t13.5 -69.5t-23.5 -75.5t-55.5 -76t-81.5 -71q-93 -67 -211 -109t-238 -62q-19 -3 -37.5 -5.5
t-37.5 -4.5l23 -6q39 -14 61 -38t27 -55q5 -35 -9.5 -73.5t-38.5 -76.5q-13 -19 -28 -37.5l-30.5 -37.5l-29.5 -37.5t-24 -37.5l-6.5 -12.5t-3.5 -12.5t3.5 -10.5t13.5 -5.5q18 -4 39.5 -0.5t44.5 11.5q56 19 106.5 48.5t94.5 58.5q49 32 93.5 65.5t86.5 68.5l86 73
q20 17 34 32q3 3 9 6.5t11.5 5t10 0.5t5.5 -6q0 -5 -4 -8l-173 -143t-192 -134q-17 -11 -45 -27t-60.5 -32t-67 -29.5t-65 -19.5t-53.5 -2t-34 23q-8 13 -7 30.5t6.5 35.5t14 36.5l16.5 35.5q17 38 37.5 77t38.5 78q7 16 13 32.5t6.5 32t-4.5 29.5t-18 25q-25 20 -67 28
q-11 2 -22.5 2.5t-22.5 -0.5q-15 -1 -14.5 7.5t14.5 13.5q14 3 32 0h8q13 0 26 0.5t24 1.5q30 2 60.5 5.5t60.5 10.5q61 12 117.5 34t107 50.5t94 62t76.5 69.5q34 37 55.5 74.5t27 73t-7.5 66t-48 53.5q-30 19 -70 30.5t-85.5 16.5t-95.5 4.5t-100 -4.5q-57 -4 -118 -13
t-121 -25t-117 -39t-106 -54q-45 -29 -77.5 -62.5t-47.5 -67.5t-9.5 -65t36.5 -53q18 -14 45 -21.5t56 -10.5h30q8 0 14.5 -0.5t9.5 -3.5q3 -5 -4.5 -11t-18.5 -6zM1130 751q-2 -2 -11.5 -7.5t-12.5 -7.5l-18.5 -14t-17.5 -15q-24 -19 -45.5 -38t-41.5 -39q-40 -37 -74 -74
l-69 -75l-104 -111l-109 -110q-75 -73 -161.5 -144.5t-193.5 -131.5q-48 -26 -102 -49.5t-111 -34.5q-5 -1 -13.5 -2.5t-17.5 -2.5t-16 0t-9 4q-5 5 -2 8t9.5 5.5t14.5 4l13 2.5q50 11 97 35.5t84 49.5q48 30 88.5 63l78.5 67q69 63 129.5 127t116.5 130l58 69
q34 38 72 73.5t81 70.5l86.5 65.5t96.5 60.5l45 21.5t47 16.5q16 3 15 -3t-3 -14z" />
    <glyph glyph-name="S" unicode="S" horiz-adv-x="1239" 
d="M1665 676q54 22 85 54.5t23 64.5q-8 31 -46.5 48t-94.5 11t-100.5 -27t-77.5 -49.5t-55 -61t-35 -62.5q-18 -39 -31.5 -78.5l-26.5 -78.5l-25 -78q-12 -39 -28 -78q-17 -39 -37 -78.5t-47 -78.5t-61 -77t-79 -74q-91 -72 -207 -114.5t-240 -60.5q-60 -9 -121 -14
t-117.5 -2.5t-106 13t-85.5 33.5q-49 30 -65.5 72t-6.5 91t43 101t83.5 101t115.5 92t139 74q54 23 112.5 38.5t116 22.5t112 5.5t100.5 -12.5t77.5 -33.5t42.5 -54.5q10 -32 1 -65q0 -6 -3 -12q-1 -4 -6 -7t-10.5 -4t-10.5 0t-6 5q-2 6 2 14.5t6 15.5q2 18 -0.5 35
t-11.5 31q-17 29 -55 46.5t-88 23.5q-52 6 -109 3t-115 -15t-114.5 -32.5t-108.5 -48.5q-67 -36 -123 -83t-95.5 -97.5t-58.5 -101.5t-12 -94.5t43 -76.5t108 -48q47 -10 104 -10.5t118 6.5t122.5 20.5t117.5 32.5q126 41 208.5 108.5t130.5 144.5q23 39 40.5 77.5t32.5 77
l29 77l29 77.5l32.5 75.5t42 78.5t58 76.5t78.5 70.5q39 28 88 49.5t99 32t96 8t79 -22.5q32 -20 38.5 -52.5t-22.5 -67.5q-14 -17 -33.5 -32.5t-42.5 -28.5l-17.5 -9t-18.5 -5q-11 0 -10.5 6.5t11.5 11.5z" />
    <glyph glyph-name="T" unicode="T" horiz-adv-x="971" 
d="M518 501q-46 15 -79 37.5t-49.5 52t-15.5 63.5t24 71q22 37 60.5 67.5t87 52t104 33t111.5 10.5q49 -1 92.5 -9.5t82 -22t72.5 -32t65 -38.5q42 -27 92 -49.5t108 -36.5q8 5 19 10q50 24 102.5 44.5t110.5 32.5q21 4 48 6.5t50.5 -0.5t37.5 -13.5t8 -30.5t-27.5 -34
t-50 -23t-59 -13.5t-54.5 -7.5q-93 -10 -182 -9q-50 -35 -91.5 -74.5t-77.5 -77.5q-60 -63 -111.5 -127.5l-105.5 -129.5q-61 -71 -135.5 -140t-173.5 -122q-47 -26 -99 -43.5t-104.5 -24t-103 -2t-94.5 24.5q-12 5 -27 12.5t-21 16.5q-7 5 0.5 12t17.5 6q8 -1 15.5 -5
t13.5 -6q46 -17 100.5 -20.5t113.5 11.5q57 15 106.5 42t92 60.5t78 70l65.5 69.5q28 31 53 63.5l50.5 64.5l52.5 63.5t59 61.5q53 54 118 103.5t140 93.5q-51 3 -97.5 11.5t-87.5 25.5q-32 13 -57 30t-54 34q-44 26 -98.5 48t-120.5 25q-69 3 -133 -19.5t-104 -63.5
q-44 -41 -54.5 -87t15.5 -83q13 -17 32.5 -30t44.5 -23q4 -2 12 -3.5t16 -3.5t14 -4.5t7 -5.5q4 -7 -5.5 -12t-19.5 -3zM1446 686q19 1 47.5 5.5t55.5 12t47 19.5t21 29q2 9 -4.5 14t-17 7t-22.5 2.5t-22 0.5q-28 -2 -55.5 -8.5t-53.5 -16.5q-33 -12 -63 -27.5t-59 -32.5
q62 -9 126 -5z" />
    <glyph glyph-name="U" unicode="U" horiz-adv-x="1073" 
d="M1559 820l-183 -209.5l-182 -208.5l-227 -259l-226 -258q-8 -10 -18.5 -20t-23.5 -17.5t-28 -11t-33 -0.5q-19 3 -25.5 10t-4.5 16t9.5 19.5t17.5 20.5l184 198l488 526l-238 -197.5l-247 -193.5l-191.5 -140.5t-207.5 -131.5l-103 -55.5t-113 -38.5q-32 -5 -51.5 -1
t-30 14.5t-12.5 26t3 32.5q11 37 35 76t55.5 77t67.5 75.5l71 73.5l154.5 151.5l160.5 149.5l33 29l56 50l63.5 59.5t56.5 58t34 44.5t-3 21q-24 1 -52 -6.5t-55.5 -19t-53 -25t-44.5 -24.5q-54 -30 -103 -62.5l-97 -65.5l-86 -63t-80 -64q-4 -3 -11.5 -9.5t-16 -12t-17 -8
t-14.5 2.5q-4 4 -0.5 9t10 10.5t14 10.5t12.5 9l166.5 123.5t178.5 116.5l102.5 56t110.5 44q21 6 40.5 7.5t33.5 -1.5t22 -11t6 -23q-3 -17 -11.5 -35t-20.5 -36.5t-26 -36.5l-27 -35q-63 -80 -137 -154q-115 -120 -239 -236.5t-239 -236.5l-31 -34t-28 -34
q-5 -6 -12 -15.5t-11 -18.5t-3.5 -16.5t10.5 -10.5q21 -5 48.5 1t57 17.5t56.5 25.5l46 24q104 58 198 124.5l182 133.5l212 165.5l205 168.5l198 171l58 51l21 23l21 22q10 11 25.5 15.5t27.5 3t17 -8t-5 -18.5z" />
    <glyph glyph-name="V" unicode="V" horiz-adv-x="840" 
d="M1472 888l-333.5 -311l-353.5 -305l-180 -144.5t-192 -140.5l-99 -63t-107 -57l-45 -19.5t-50.5 -17t-49 -8t-39.5 6.5q-18 9 -23 25t-3 34.5t8.5 38t12.5 34.5q15 38 35.5 77t45.5 78q54 81 116 161.5t130 160.5l141 161l150 160q31 32 66 63t78 60q14 8 31 16t29 -1
q8 -6 3 -17t-10 -19q-20 -38 -50 -74.5t-63 -72.5l-52.5 -60l-52.5 -60l-58 -64.5l-57 -65.5l-119.5 -136.5t-114.5 -136.5l-65 -80l-63 -80l-55.5 -74t-35.5 -75q-4 -11 -2 -24t21 -15q20 -2 43.5 4t43.5 14q56 20 107 50.5t96 60.5q105 69 200.5 142l186.5 148
l351.5 303.5l330.5 309.5q7 5 14 13.5t16 11.5q13 3 17.5 -1.5t-0.5 -10.5z" />
    <glyph glyph-name="W" unicode="W" horiz-adv-x="1331" 
d="M1938 888l-319 -314.5t-341 -308.5l-175.5 -148.5t-191.5 -142.5l-97.5 -63t-106.5 -56q-24 -11 -52 -19.5t-53 -11t-44.5 2.5t-27.5 22q-8 15 -7.5 33.5t6 38t14.5 39.5t18 38q18 38 42 74.5t51 73.5l56 74l-56 -48l-174 -143.5t-193 -136.5q-18 -12 -39 -24.5t-44 -24
t-46.5 -19t-47.5 -8.5q-28 -1 -40.5 8.5t-15.5 23.5t0.5 30.5t8.5 30.5q15 39 38 78.5t52 78.5t61 78l65 77q68 81 141 159.5l149 157.5l150 156l70 73.5t62 74.5q1 3 6 9.5t9 14t6 13.5t-2 8q-5 1 -12 0t-15.5 -3t-16 -5t-11.5 -5q-56 -22 -103 -53.5t-89 -63.5l-91 -71
l-85 -72l-75 -67q-16 -14 -31 -31t-35 -31q-8 -8 -19.5 -8.5t-13.5 6.5q-2 6 7.5 13.5t15.5 13.5l40.5 36l40.5 36l85.5 72.5l85.5 70.5l93 69.5t100 66.5l33.5 19.5t38.5 19t40.5 14t39.5 4.5q26 -1 32 -14t1 -31t-15.5 -36.5l-17.5 -30.5q-23 -39 -50.5 -78.5t-57.5 -78.5
q-62 -80 -130.5 -159.5l-140.5 -158l-144.5 -157l-141.5 -157.5l-31.5 -35t-29.5 -36q-16 -20 -30.5 -40.5t-19.5 -40.5q-3 -15 12 -15.5t35.5 5.5t42 15.5t32.5 15.5q53 28 100 61.5l92 67.5l87.5 70l84.5 70l95.5 83.5l93.5 83.5l59.5 69.5l62.5 69.5l75.5 79.5l77.5 79.5
l55.5 57t59.5 55l27.5 22t45.5 32.5t45 22.5t28 -7q5 -8 -3 -21.5t-15 -22.5q-22 -36 -54 -73l-153 -167.5l-155 -166.5l-112 -125l-107 -126l-33 -40l-33 -40l-30 -37.5t-30 -39.5t-23.5 -39.5t-9.5 -36.5q0 -18 17 -22t41 1t49.5 14.5t42.5 18.5q54 26 102.5 57t92.5 63
q99 70 188 143l175 148l336 309l80 78l79 78l77 76l36 37q7 7 16 17.5t20 14.5q11 3 16.5 -1t-0.5 -11z" />
    <glyph glyph-name="X" unicode="X" horiz-adv-x="1121" 
d="M993 898q-15 -59 -36.5 -118t-46 -118.5l-50.5 -119l-51 -118.5l-3 -8l199.5 135.5l200.5 135.5l264 179l51 34q6 4 13 4.5t10.5 -1t3.5 -5.5t-7 -8l-14 -9l-570 -386l-166 -113l-81 -196.5t-68 -194.5q-5 -18 -9 -35.5t-7 -35.5q-2 -16 -1.5 -34t13.5 -30
q9 -9 29.5 -6.5t44 10.5t45.5 18t35 17q54 29 102 61l96 66l90.5 68.5l85.5 69.5l40 34.5l39 34.5q6 5 13 9.5t17 2.5q10 -4 2.5 -12t-14.5 -13l-84.5 -72.5l-87.5 -70.5l-91.5 -69.5t-97.5 -66.5q-45 -29 -96 -57t-107 -45q-46 -14 -77.5 -8.5t-43.5 29.5q-18 31 -19 68
t2 73q7 67 26.5 136.5t42.5 139.5l-448 -302l-150 -101q-5 -3 -13 -9.5t-17.5 -13.5t-18.5 -12t-16 -5q-12 0 -11.5 4.5t7.5 10.5t16 11.5t12 8.5l90 62l321 217l119.5 80.5l119.5 80.5q1 2 2 4.5t2 5.5q58 162 140 329q41 84 91 166q11 19 23.5 37.5l24.5 37.5l10.5 14
t16.5 12t22.5 4t16.5 -6q6 -3 3 -11z" />
    <glyph glyph-name="Y" unicode="Y" horiz-adv-x="1010" 
d="M1529 832q-22 -11 -40.5 -25l-36.5 -28l-38.5 -31.5t-36.5 -32.5l-76 -71t-69 -72l-92.5 -100.5l-87.5 -100.5l-106.5 -119.5t-112 -118.5t-123.5 -115.5t-140 -110.5q-41 -29 -91.5 -61t-106 -58.5t-113.5 -43.5t-113 -16q-25 1 -47 6.5t-33 16.5q-5 4 -5 10t14 10
q11 3 19.5 -1.5t15.5 -6.5q25 -6 54 -3t58.5 12t58 21.5t52.5 25.5q54 29 101.5 62.5t90 69.5t81.5 73l75 73q66 66 123.5 133l117.5 135q-24 -17 -48.5 -32.5l-49.5 -31.5q-47 -29 -96.5 -55.5t-104.5 -47.5q-21 -8 -45.5 -16t-49 -15t-49.5 -11.5t-47 -5.5
q-29 -2 -46.5 4.5t-26 18t-10 26.5t3.5 32q10 38 38.5 76.5t60.5 75.5q62 72 136 140l149 137l46.5 43t44.5 43l13 13.5t13 15.5t10 15t3 13q-2 5 -14 5h-19q-29 -2 -58.5 -10t-58 -20t-55.5 -26l-51 -27q-56 -31 -106 -64t-98 -69q-5 -3 -13.5 -10.5t-18.5 -14t-20 -10
t-16 2.5q-3 4 0 8.5t9.5 9.5l13.5 10t12 8l96 66t102 62q46 26 96.5 51t104.5 43q17 6 37 11t39.5 8t37 1.5t28.5 -8.5q15 -10 15.5 -26.5t-8 -35.5t-21.5 -38l-23 -34q-27 -39 -62.5 -77l-71.5 -76l-106 -107l-107 -107l-64 -70q-6 -7 -14 -15.5t-14 -17t-9 -17t-1 -14.5
q4 -10 22 -12t34 -1q30 0 61 8.5t62 20.5q116 46 213.5 110.5t184.5 130.5q57 57 119 110.5t131 107.5l90.5 66.5t95.5 64.5q14 10 30.5 19.5t30.5 19.5q6 3 11 6t12 4q12 2 13 -5t-10 -13z" />
    <glyph glyph-name="Z" unicode="Z" horiz-adv-x="827" 
d="M842 781l-28.5 -22.5t-34.5 -30t-22.5 -29t8.5 -19.5q17 -8 44 -8.5t51 -0.5q26 1 53.5 2.5t54.5 4.5q55 6 112 16.5t114 24.5l55 14.5t56 16.5q4 1 13 4.5t14 2.5q9 2 15.5 0.5t-3.5 -9.5q-5 -4 -13.5 -5.5t-13.5 -2.5q-95 -23 -176 -64.5t-152.5 -92t-136 -106
l-124.5 -104.5q-69 -56 -142 -108t-155 -100q-60 -35 -120.5 -64l-123.5 -57l44 12q60 14 115.5 18.5t103.5 -6.5q24 -6 43.5 -14t38 -17.5l37 -18.5t39.5 -16q41 -12 88 -15q7 -1 19.5 -1t24 -1t18 -4.5t1.5 -11.5q-5 -7 -17 -12t-27 -9t-29 -6.5t-23 -3.5q-59 -9 -115 -1
q-50 8 -85.5 28t-67.5 41q-35 23 -80 31t-108 -3q-26 -5 -52.5 -11.5t-52.5 -15.5l-16 -7h-1q-5 -1 -9 -1.5t-7 1.5q-7 4 -1 8t15 8h2q6 2 11.5 3.5t8.5 3.5q55 19 103.5 45.5t92 56.5t82.5 62l75 64l117.5 103t125.5 101q91 69 197.5 127.5t226.5 104.5l33 12
q-33 -8 -65 -17t-64 -17l-114 -29t-114 -20q-30 -3 -60.5 -1.5t-52.5 9t-31 22.5t3 39q11 20 35 37.5t51 33.5l34.5 17.5t37.5 16.5q5 2 11.5 3t11.5 0t6 -3.5t-5 -8.5z" />
    <glyph glyph-name="one" unicode="1" horiz-adv-x="465" 
d="M162 220q52 21 101 47.5l96 53.5l105.5 63.5l102.5 66.5l75.5 52l73.5 53l56.5 46l57.5 46l82 63q1 1 2 1l1 1l10 8q5 4 10 7q7 6 17 6.5t11 -5.5q2 -5 -5.5 -11t-12.5 -11l-82 -81l-158 -157l-157 -157l-156 -157l-65 -67.5t-73 -66.5q-16 -13 -35.5 -25.5t-39.5 -22.5
q-20 -8 -32 -3.5t-10 16.5q3 16 11.5 32.5t21 32.5t27.5 32l31 32l144 138l93.5 86l96.5 85q-2 -1 -3.5 -2t-3.5 -2l-109 -69.5t-114 -66.5l-65 -34.5t-67 -32.5l-22 -11q-14 -7 -23 -3q-6 3 -3.5 8t10.5 9z" />
    <glyph glyph-name="two" unicode="2" horiz-adv-x="668" 
d="M419 207q-40 1 -61.5 14t-29.5 32.5t-5 44t13 50t24.5 50.5t28.5 45q25 36 59 73.5t76.5 72t93 65t108.5 53.5q50 19 103.5 29.5t102.5 8.5q55 -3 81 -28t21 -62q-4 -36 -27.5 -75t-58 -77.5t-76.5 -75t-84 -69.5q-93 -72 -201 -136t-227 -118l-81.5 -36t-83.5 -32
q24 4 48 7t47 5q22 1 46 0.5t43.5 -5t33 -13.5t16.5 -24q2 -4 0.5 -12t-3.5 -13q-5 -8 -14.5 -12.5t-19.5 -5.5t-18 1.5t-9 9.5q-1 -2 -7.5 -1.5t-15 1.5t-15.5 2.5t-9 1.5q-21 5 -44.5 8t-48.5 5q-50 5 -102.5 2.5t-106.5 -13.5l-31 -8q-4 -1 -8 -1q-7 -2 -13.5 -2.5
t-10.5 3.5q-5 5 0.5 11.5t16.5 8.5l4 2l3 1q6 2 13 2.5t15 2.5l33 8.5t34 9.5q60 18 118 43t112 54q109 57 204.5 123.5t179.5 137.5q87 72 159 150l29.5 34.5t29 39.5t17.5 38.5t-4 32.5q-9 13 -34 15.5t-50 1.5q-36 -2 -72.5 -11t-70.5 -23q-73 -31 -131 -75t-103 -90
q-21 -23 -40 -48t-33 -49.5t-21.5 -49t-7.5 -47.5q0 -20 11.5 -38.5t44.5 -23.5q9 -1 20.5 -0.5t15.5 -5.5q5 -6 -5.5 -13.5t-21.5 -6.5z" />
    <glyph glyph-name="three" unicode="3" horiz-adv-x="698" 
d="M665 708q3 0 7 0.5t8 0.5q11 0 18 -2t16 -4q29 -7 63.5 -8.5t67.5 -2.5q37 -1 75 0.5t76 3.5q18 2 34.5 3.5t33.5 3.5q5 0 13.5 2t17.5 3.5t16.5 1.5t10.5 -2q4 -4 -7 -12.5t-27 -18t-32 -17.5l-22 -11l-134 -72l-109.5 -54.5l-110.5 -52.5q40 -1 73.5 -10.5t53.5 -26.5
q29 -24 30 -57t-16 -68q-18 -37 -49 -73t-72 -69t-89.5 -63t-101.5 -54q-77 -36 -163.5 -57.5t-166.5 -23.5q-56 -2 -96 12.5t-53 46.5q-12 32 5 70.5t49 75.5q32 36 75 70t95 61q23 13 49.5 23.5t53.5 18.5q11 2 26 5t24 1q12 -4 3 -10.5t-18 -11.5q-54 -23 -95 -58.5
t-70 -67.5q-17 -18 -32.5 -36.5t-27.5 -37.5t-19 -38t-7 -36q0 -27 26 -40t64 -17q51 -5 108 10t107 40q53 26 97.5 60t78.5 71.5t56 76.5t30 74q4 15 6 30.5t-1 29t-12.5 25t-28.5 19.5q-9 4 -20 6l-22 4q-7 2 -13.5 3t-4.5 7q2 5 10 9.5l13 7.5l22 12l21 12l183.5 97.5
t190.5 90.5q-63 -10 -125.5 -21.5t-123.5 -16.5q-43 -4 -86.5 -4t-75.5 10q-13 5 -21 13t-5 19q1 5 6.5 9.5t13 8t15.5 5t15 1.5z" />
    <glyph glyph-name="four" unicode="4" horiz-adv-x="698" 
d="M848 574q-23 -35 -62 -64.5t-84 -56.5l-104 -63.5l-106 -62.5l-162 -90.5t-170 -84.5q93 13 184.5 24t182.5 19l83.5 87l87.5 86l109.5 106l110.5 105l63 61l34.5 33.5t33.5 33.5q5 7 14 13t22 4q8 -2 9.5 -7.5t-5.5 -11.5q-39 -36 -73 -73.5l-66 -74.5l-71 -82l-70 -82
l-60.5 -71l-61.5 -72l-36 -45q12 1 24 1.5t23 0.5q5 0 11 0.5t10 -2.5q7 -5 -2 -11t-19 -8q-16 -2 -33 -2t-32 -1l-33 -40l-21 -26t-19 -26q-14 -17 -29 -33.5l-31 -33.5l-25.5 -29t-36.5 -26q-18 -8 -35.5 -7t-22.5 12q-3 6 -1.5 14.5t5 17.5t8.5 17.5l9 15.5
q18 34 46.5 67.5l58.5 65.5q-64 -6 -126 -13t-125 -15l-123 -16l-28 -5q-16 -3 -24 0q-5 1 -5 4t2.5 6t7 6t7.5 6l168 111l137.5 90.5l138.5 90.5l59 39.5l61 38.5q52 34 108 59q14 5 29.5 11.5t30.5 8.5q16 3 24 -3.5t0 -16.5z" />
    <glyph glyph-name="five" unicode="5" horiz-adv-x="623" 
d="M1041 683q-16 -18 -40 -31.5t-52 -21.5t-56.5 -11t-52.5 0q-53 6 -88 31q-13 8 -22.5 17.5t-20.5 18.5l-206 -222l87 9.5t82 -3.5q47 -10 70 -35.5t25 -58.5q2 -35 -15 -72t-47.5 -74.5t-72 -72.5t-87.5 -65q-48 -31 -104 -57.5t-113 -42t-113 -18t-104 14.5
q-46 16 -55.5 46.5t4 66.5t45 73.5t68.5 68.5q17 15 38 31t44.5 31t49 27.5t52.5 19.5q11 3 16 -2.5t-5 -11.5q-6 -5 -13.5 -9.5t-12.5 -9.5q-21 -16 -38.5 -33l-33.5 -34q-75 -74 -121 -153q-11 -18 -16.5 -35.5t-2 -32t18 -24.5t43.5 -13q57 -6 111 11.5t101 47.5t85.5 66
t64.5 68q32 38 57 77.5t36 77.5q6 17 7 33t-4.5 29.5t-19 24t-36.5 15.5q-21 5 -47 6t-53 -4q-5 -1 -13 -2t-14 -1t-7.5 2.5t4.5 9.5l34 36l140 150l48 53q3 2 5.5 5t4.5 5q7 7 13.5 7.5t12.5 -2.5t11 -7t8 -5q36 -18 85.5 -23t106.5 6q4 1 26 6t43.5 8t35.5 1.5t3 -13.5z
" />
    <glyph glyph-name="six" unicode="6" horiz-adv-x="615" 
d="M1023 707q-160 -40 -298.5 -112t-256.5 -160q45 23 94.5 37.5t97.5 16.5q29 1 50 -5.5t35 -17.5t21.5 -26t10.5 -31q6 -34 -5 -71.5t-35 -76t-60 -75.5t-81 -70q-42 -30 -93.5 -57.5t-107 -47.5t-112.5 -31t-110 -8q-59 3 -82.5 28t-24 60t15 74t34.5 71q48 78 127.5 152
t178.5 140q70 48 148.5 89t164.5 73q45 17 91 30.5t94 22.5q23 5 44 8t43 5q9 1 19.5 1.5t11.5 -5.5q2 -4 -2.5 -8t-12.5 -6zM239 236l-39 -41t-41.5 -50.5t-33 -52.5t-13.5 -47.5t16.5 -36t57.5 -16.5q55 -3 106 12t96.5 41t84.5 58.5t69 62.5q34 36 65.5 73t57.5 75
l20.5 33t17.5 34.5t8 33.5t-7 30t-27 19.5t-43 5t-50.5 -6t-50.5 -13.5q-35 -12 -66.5 -28t-60.5 -35l-87.5 -75.5t-79.5 -75.5z" />
    <glyph glyph-name="seven" unicode="7" horiz-adv-x="624" 
d="M569 716q10 1 21 -7.5t16 -11.5q18 -11 36.5 -18.5t43.5 -12.5q51 -8 111 -4t120 14l55.5 10.5t56.5 14.5q23 8 30.5 0.5t-13.5 -20.5q-45 -27 -84 -55.5l-77 -57.5l-260 -198l-254 -201l-90.5 -73.5l-88.5 -74.5l-25.5 -23t-28.5 -23q-8 -6 -18 -8t-15 3q-7 5 0 12
t12 14l27.5 27l28.5 27q38 38 79 74.5l83 73.5l148 123.5l155 120.5q75 55 154.5 106.5l160.5 102.5l9 6q-7 -2 -13 -4t-13 -4q-32 -10 -65 -18.5t-65 -15.5q-60 -14 -118.5 -19t-109.5 5q-21 4 -41 11.5t-33.5 19t-18.5 26t3 32.5q5 17 31 20z" />
    <glyph glyph-name="eight" unicode="8" horiz-adv-x="674" 
d="M687 405q29 -22 35 -55t-5 -68q-13 -37 -40.5 -74.5t-67 -72t-89.5 -64.5t-107 -53q-50 -20 -106 -34t-107 -13q-33 -2 -61 3.5t-47 19.5q-31 22 -37 55t7 68q13 37 40.5 74t67 71.5t89.5 64.5t107 53q36 14 75.5 26t77.5 18q-30 20 -32.5 54.5t23.5 69.5
q20 28 52.5 56.5t73 53.5t86.5 44t93 30q55 13 93.5 4.5t57 -30t17.5 -51.5t-23 -61q-20 -28 -51.5 -55t-70.5 -50.5t-83.5 -42t-90.5 -29.5q6 -2 12 -5.5zM243 -4q52 13 96 39t80 54q45 35 85 72t72 75q14 16 27.5 33.5t23 35.5t14 35t0.5 32q-6 20 -28.5 28t-54.5 6
l-24 -4q-52 -12 -95.5 -38.5t-79.5 -54.5q-45 -35 -85 -72t-73 -75q-14 -16 -26.5 -33.5t-22 -35t-14 -34.5t-1.5 -32q7 -22 33 -29.5t61 -3.5q6 0 12 2zM594 541l-17.5 -25.5t-16.5 -27t-8.5 -26t6.5 -21.5q9 -11 28 -13h20q21 2 44.5 10.5t42.5 18.5q58 32 96 74.5
t65 82.5q12 18 26 37t16 36q1 14 -9.5 20.5t-27 7t-36.5 -3.5t-38 -11q-67 -26 -114.5 -71.5t-76.5 -87.5z" />
    <glyph glyph-name="nine" unicode="9" horiz-adv-x="674" 
d="M20 -8q158 39 295.5 110.5t255.5 158.5q-45 -22 -92.5 -36.5t-95.5 -15.5q-29 -1 -50 5.5t-35 18t-21.5 26t-10.5 30.5q-6 34 4.5 72t34.5 76t60.5 75t81.5 70q42 31 93 58t106.5 47t113 31t110.5 8q60 -3 83.5 -28t24 -60t-15.5 -74t-35 -71q-48 -78 -127 -152
t-179 -140q-70 -47 -148.5 -88.5t-164.5 -73.5q-45 -17 -91 -30t-92 -22q-23 -5 -45 -8t-45 -5q-8 -1 -18 -1.5t-14 5.5q0 9 17 14zM804 462l39 41t41.5 50.5t33 52.5t13.5 47.5t-16.5 35.5t-57.5 17q-55 3 -106.5 -12t-97 -41t-84 -58t-68.5 -63q-35 -36 -66 -73t-57 -75
q-11 -16 -21.5 -33t-17 -34.5t-7.5 -33.5t7 -29q8 -14 27 -19.5t43 -5t50.5 6t50.5 13.5q67 22 124 61q93 75 170 152z" />
    <glyph glyph-name="breve" unicode="&#x2d8;" horiz-adv-x="483" 
d="M560 646q-35 0 -51.5 13.5t-8.5 37.5l6 13q5 9 12 18.5t15.5 17t18.5 9.5t14 0.5t4.5 -5t-2 -8t-5.5 -8.5q-9 -10 -16.5 -20.5t-9.5 -20.5q-2 -11 6.5 -16t22.5 -5.5t30.5 2t30.5 6.5q25 8 46.5 19t40.5 25q4 3 10.5 8.5t13.5 10t14.5 7.5t14.5 1q12 -3 5 -12.5
t-20.5 -20t-29 -19.5l-20.5 -12q-32 -18 -69 -29.5t-73 -11.5z" />
    <glyph glyph-name="circumflex" unicode="&#x2c6;" horiz-adv-x="516" 
d="M449 645q-16 -1 -13 8t16 15l14 6q7 3 14 7q29 12 56 24.5l55 24.5q27 13 55 25l55 24q6 3 15 7t18 7t16 2.5t8 -7.5q3 -29 8 -57l10 -57q1 -5 -0.5 -10t-10.5 -10q-16 -7 -22 -2.5t-8 11.5l-10 65l-5 35l-133 -60l-89 -40l-24 -11t-25 -7z" />
    <glyph glyph-name="caron" unicode="&#x2c7;" horiz-adv-x="663" 
d="M585 635q-11 0 -13 6t-2 11q-2 11 -3 20.5t-3 20.5l-6 34.5t-4 34.5q-1 6 4.5 10.5t13 6t14 0t7.5 -7.5l4 -33q2 -18 5.5 -35.5t5.5 -35.5l150 67l88 40l18 8q16 7 25.5 0.5t-2.5 -15.5q-11 -7 -25 -12.5t-25 -10.5l-100 -44l-99 -45q-9 -4 -25.5 -12t-27.5 -8z" />
    <glyph glyph-name="grave" unicode="`" horiz-adv-x="560" 
d="M810 683l-154.5 31l-154.5 31q-14 3 -19 10.5t-1 16.5t15.5 17t30.5 11q14 2 27.5 -2.5l24.5 -8.5l177 -59l66 -21q2 -1 5.5 -1.5t5.5 -2.5q7 -2 7 -6t-4 -8t-11 -7t-15 -1z" />
    <glyph glyph-name="acute" unicode="&#xb4;" horiz-adv-x="558" 
d="M444 705l189.5 46l191.5 46q16 4 29 1.5t18.5 -9t2 -16t-20.5 -18.5q-14 -8 -32 -11l-31 -4l-243 -40l-86 -14l-18 -3q-17 -3 -17.5 7t17.5 15z" />
    <glyph glyph-name="greater" unicode="&#x3e;" horiz-adv-x="486" 
d="M182 145q-15 0 -13 9t16 14q5 2 10 5t11 5q23 11 47.5 21.5l49.5 21.5l155 69l-36 46.5t-38 46.5l-9 12q-3 4 1 9t10.5 8t14.5 3t12 -4q7 -10 14.5 -19.5t15.5 -18.5q11 -15 23 -29.5l23 -28.5q3 -3 7 -7.5t6 -9.5t-0.5 -10t-12.5 -9l-192 -86l-73 -32l-20.5 -10
t-21.5 -6z" />
    <glyph glyph-name="less" unicode="&#x3c;" horiz-adv-x="452" 
d="M555 423q15 0 14 -9t-15 -14q-5 -2 -10.5 -5t-12.5 -5l-47 -21.5l-49 -21.5l-154 -69l35.5 -46.5l37.5 -46.5l8 -12q4 -5 0 -9.5t-11 -7.5t-14.5 -3.5t-10.5 4.5l-15.5 19.5t-16.5 18.5q-10 15 -22 29.5l-23 28.5q-3 3 -7 7.5t-6 9.5t0 9.5t13 9.5l95 43l97 43l74 32
q7 4 19 10t21 6z" />
    <glyph glyph-name="guilsinglleft" unicode="&#x2039;" horiz-adv-x="521" 
d="M555 423q15 0 14 -9t-15 -14q-5 -2 -10.5 -5t-12.5 -5l-47 -21.5l-49 -21.5l-154 -69l35.5 -46.5l37.5 -46.5l8 -12q4 -5 0 -9.5t-11 -7.5t-14.5 -3.5t-10.5 4.5l-15.5 19.5t-16.5 18.5q-10 15 -22 29.5l-23 28.5q-3 3 -7 7.5t-6 9.5t0 9.5t13 9.5l95 43l97 43l74 32
q7 4 19 10t21 6z" />
    <glyph glyph-name="guillemotleft" unicode="&#xab;" horiz-adv-x="599" 
d="M555 423q15 0 14 -9t-15 -14q-5 -2 -10.5 -5t-12.5 -5l-47 -21.5l-49 -21.5l-154 -69l35.5 -46.5l37.5 -46.5l8 -12q4 -5 0 -9.5t-11 -7.5t-14.5 -3.5t-10.5 4.5l-15.5 19.5t-16.5 18.5q-10 15 -22 29.5l-23 28.5q-3 3 -7 7.5t-6 9.5t0 9.5t13 9.5l95 43l97 43l74 32
q7 4 19 10t21 6zM705 423q15 0 14 -9t-15 -14q-5 -2 -10.5 -5t-12.5 -5l-47 -21.5l-49 -21.5l-154 -69l35.5 -46.5l37.5 -46.5l8 -12q4 -5 0 -9.5t-11 -7.5t-14.5 -3.5t-10.5 4.5l-15.5 19.5t-16.5 18.5q-10 15 -22 29.5l-23 28.5q-3 3 -7 7.5t-6 9.5t0 9.5t13 9.5l95 43
l97 43l74 32q7 4 19 10t21 6z" />
    <glyph glyph-name="guilsinglright" unicode="&#x203a;" horiz-adv-x="504" 
d="M173 145q-15 0 -13 9t16 14q5 2 10 5t11 5q23 11 47.5 21.5l49.5 21.5l155 69l-36 46.5t-38 46.5l-9 12q-3 4 1 9t10.5 8t14.5 3t12 -4q7 -10 14.5 -19.5t15.5 -18.5q11 -15 23 -29.5l23 -28.5q3 -3 7 -7.5t6 -9.5t-0.5 -10t-12.5 -9l-192 -86l-73 -32l-20.5 -10
t-21.5 -6z" />
    <glyph glyph-name="guillemotright" unicode="&#xbb;" horiz-adv-x="642" 
d="M323 145q-15 0 -13 9t16 14q5 2 10 5t11 5q23 11 47.5 21.5l49.5 21.5l155 69l-36 46.5t-38 46.5l-9 12q-3 4 1 9t10.5 8t14.5 3t12 -4q7 -10 14.5 -19.5t15.5 -18.5q11 -15 23 -29.5l23 -28.5q3 -3 7 -7.5t6 -9.5t-0.5 -10t-12.5 -9l-192 -86l-73 -32l-20.5 -10
t-21.5 -6zM173 145q-15 0 -13 9t16 14q5 2 10 5t11 5q23 11 47.5 21.5l49.5 21.5l155 69l-36 46.5t-38 46.5l-9 12q-3 4 1 9t10.5 8t14.5 3t12 -4q7 -10 14.5 -19.5t15.5 -18.5q11 -15 23 -29.5l23 -28.5q3 -3 7 -7.5t6 -9.5t-0.5 -10t-12.5 -9l-192 -86l-73 -32l-20.5 -10
t-21.5 -6z" />
    <glyph glyph-name="numbersign.001" horiz-adv-x="591" 
d="M342 53q-14 0 -10 10.5t15 24t23 25.5l17 17q5 5 9.5 10.5l9.5 11.5h-167l-39 -44q-4 -4 -11 -13t-16 -18.5t-18.5 -16.5t-19.5 -7q-14 0 -10 10.5t15 24t24 26t16 16.5q5 5 9.5 10.5l9.5 11.5h-41q-11 0 -15 4t-1.5 8.5t10 8.5t18.5 4h52l95 105l35 38h-55
q-11 0 -14.5 4t-1 8.5t10 8.5t19.5 4h64l63 71l11.5 13.5t11.5 12.5q4 5 11.5 7.5t13.5 2.5t10 -3t2 -8q-1 -3 -7 -9l-78 -87h168l64 71l11.5 13.5t11.5 12.5q4 5 11.5 7.5t13.5 2.5t9.5 -3t1.5 -8q0 -3 -6 -9l-78 -87h40q10 0 14 -4t3 -8.5t-7.5 -8.5t-16.5 -4h-57l-86 -96
l-42 -47h53q9 0 13 -4t3 -8.5t-7.5 -8.5t-17.5 -4h-67l-40 -44l-10 -13t-15.5 -18.5t-18 -16.5t-19.5 -7zM303 224q-11 -12 -20.5 -24t-20.5 -23h167l95 105l34 38h-169z" />
    <glyph glyph-name="currency.001" horiz-adv-x="768" 
d="M632 94q-8 0 -13 5t-8 9q-17 15 -30 30q-2 2 -10.5 8.5t-14.5 14.5q-38 -20 -80 -33t-84 -13q-41 0 -64.5 11.5t-33.5 31.5l-25.5 -12t-26.5 -12l-68 -32q-9 -5 -21.5 -11t-21.5 -6q-10 0 -12.5 3t0.5 7.5t9 8.5t12 7l28 13.5l30 13.5l68 32l22 11q-2 17 4 36.5t20 39.5
t35 39t47 36l-5 7q-7 8 -14.5 14.5t-15.5 14.5q-2 2 -10 9.5t-13 15.5t-2.5 15t20.5 9q11 1 15 -4t9 -9q6 -7 13 -13.5t13 -14.5l12.5 -12t11.5 -12q37 20 77.5 32t82.5 12q35 0 57.5 -9t33.5 -25l59 26l34 15.5l35 15.5q8 3 19.5 8.5t19.5 6.5q11 0 14 -2.5t1 -7t-8 -9
t-13 -7.5l-58 -26l-69 -30l-24 -12q5 -19 -1 -41.5t-22 -44.5q-13 -19 -32.5 -37t-43.5 -35l6 -6q13 -15 30 -30q7 -6 12.5 -12.5t12.5 -13.5q6 -6 3.5 -16t-22.5 -10zM575 371q-30 0 -60.5 -8.5t-58.5 -22t-51.5 -31t-39.5 -35.5q-19 -20 -29.5 -43.5t-7.5 -43.5t21 -33.5
t56 -13.5q30 0 60.5 8.5t58.5 22.5t51.5 31t39.5 35q19 21 29.5 44.5t7.5 43.5t-21 33t-56 13z" />
    <glyph glyph-name="tilde" unicode="&#x2dc;" horiz-adv-x="659" 
d="M498 711q33 21 72 40t80 29q43 11 75 3t46 -29q8 -13 21.5 -21t41.5 -4q23 2 46 10t44 17q4 2 10 3.5t10.5 1.5t6 -2t-2.5 -7q-5 -7 -18.5 -13.5t-21.5 -11.5q-20 -10 -40 -18.5t-41 -14.5q-45 -13 -81 -8t-53 25q-6 7 -11 13.5t-12.5 11t-19.5 5.5t-30 -2
q-22 -4 -44 -12l-42 -16q-5 -3 -13 -7t-14 -6q-10 -2 -13.5 3t4.5 10z" />
    <glyph glyph-name="percent.001" horiz-adv-x="968" 
d="M543 137q24 25 55.5 47.5t67.5 42.5l37 19t42 18.5t43.5 13.5t41.5 5q34 -1 44.5 -18t10.5 -37q2 -25 -9.5 -52t-36.5 -53q-23 -25 -53.5 -47.5t-66.5 -42.5q-34 -18 -77 -36t-82 -20q-33 -2 -47 12t-16 31q-5 27 7.5 57.5t38.5 59.5zM624 677q48 51 122 91
q35 18 78.5 36t83.5 19q29 0 41 -13t16 -30q5 -29 -8 -60.5t-43 -61.5q-50 -53 -131 -93q-32 -17 -72 -32t-76 -16q-29 0 -42.5 13.5t-14.5 30.5q-5 27 7 57t39 59zM47 -8q-17 0 -16 5.5t9.5 12.5t20 13.5l16.5 9.5l57.5 34.5t59.5 34.5l192.5 115l192.5 114l374 222.5
l375 222.5l48 29q9 6 16.5 5.5t10.5 -4t1 -9t-10 -10.5l-27 -15l-139.5 -83.5l-139.5 -83.5l-837 -496l-70 -41l-70 -42q-5 -3 -13 -8.5l-17 -11.5t-18 -10t-16 -4zM693 664q-19 -22 -41 -45t-32 -46q-13 -25 7 -35.5t62 7.5q30 13 54.5 31t45.5 38.5t39 41.5l35 39
q14 16 28.5 31t25.5 31q7 11 9.5 22t-2.5 18.5t-18 9.5t-37 -5q-30 -9 -55.5 -25.5t-47 -35.5t-39.5 -39.5zM614 124l-46.5 -50t-31.5 -51q-4 -15 4 -21.5t22 -6.5t32.5 5.5t35.5 15.5q47 26 81 61.5l65 68.5l27.5 29.5t24.5 29.5q8 10 14 23t4.5 23.5t-12.5 15t-37 -2.5
q-31 -8 -57.5 -24.5t-49 -36.5t-41.5 -41z" />
    <glyph glyph-name="registered" unicode="&#xae;" horiz-adv-x="929" 
d="M351 -45q-53 0 -94 11.5t-68 32.5t-39.5 49t-9.5 61t18.5 67.5t41 68.5t59.5 67.5t73 63.5q80 61 182.5 111.5t213.5 74.5q55 12 107.5 14t97 -6t77.5 -26t51 -46q21 -37 14.5 -80.5t-32 -88.5t-68 -89.5t-93.5 -83.5t-114 -75.5t-132.5 -64.5t-142.5 -44.5t-142 -16.5z
M854 559q-62 0 -125.5 -13.5t-125.5 -37t-119.5 -55t-107.5 -67.5t-90 -74.5t-67 -76.5q-23 -32 -36 -64.5t-14 -63.5t12 -57.5t43 -45.5q27 -17 65 -24.5t81.5 -6.5t90.5 9.5t93 22.5q71 21 137 53t123.5 70t103.5 81.5t78 87.5q33 47 46 94.5t-7 86.5q-17 38 -64.5 59.5
t-116.5 21.5zM591 56q-19 -3 -27 3t-8.5 18t4 27t11.5 30t13.5 27t9.5 18q3 8 7 16t4.5 15.5t-2.5 13.5t-13 10q-7 3 -19 2t-17 3h-1q-17 -18 -35 -35q-32 -30 -69.5 -58t-83.5 -50q-18 -9 -39.5 -16.5t-41.5 -9.5q-4 0 -8 -0.5t-9 0.5q-8 0 -8.5 5t10.5 9q34 11 61.5 30
t50.5 40q32 28 60.5 57.5t52.5 59.5q45 51 109 98q17 12 35.5 23.5t41.5 20.5l24 7q11 4 14 -2t-8 -10q-2 0 -8 -5t-12.5 -11.5l-12 -12.5t-6.5 -7q-16 -16 -29 -31l-27 -31l-24.5 -30.5t-26.5 -29.5q4 1 11 1q6 1 12.5 0.5t11.5 0.5q26 2 51.5 7t51.5 16q24 10 44.5 25
t37 32t27 34.5t13.5 32.5q5 30 -21 46.5t-71 18.5q-8 1 -17 1h-17q-11 -1 -21.5 -1t-20.5 -2q-2 0 -7 -0.5t-8.5 -0.5t-4.5 1t5 4q40 7 83.5 10t81.5 -1.5t64.5 -18t32.5 -38.5q6 -30 -20 -64t-73 -59q-38 -20 -81.5 -33.5t-86.5 -19.5q5 -2 10 -3.5t10 -4.5
q16 -11 17.5 -28t-5.5 -35q-11 -20 -27 -39.5l-33 -39.5q-5 -5 -9.5 -10.5t-4.5 -10.5q0 -2 1 -4t1 -4t-2 -4t-9 -3z" />
    <glyph glyph-name="copyright" unicode="&#xa9;" horiz-adv-x="944" 
d="M354 -45q-53 0 -94 11.5t-68 32.5t-39.5 49t-9.5 61t18.5 67.5t41 68.5t59.5 67.5t73 63.5q80 61 182.5 111.5t213.5 74.5q55 12 107.5 14t97 -6t77.5 -26t51 -46q21 -37 14.5 -80.5t-32 -88.5t-68 -89.5t-93.5 -83.5t-114 -75.5t-132.5 -64.5t-142.5 -44.5t-142 -16.5z
M857 559q-62 0 -125.5 -13.5t-125.5 -37t-119.5 -55t-107.5 -67.5t-90 -74.5t-67 -76.5q-23 -32 -36 -64.5t-14 -63.5t12 -57.5t43 -45.5q27 -17 65 -24.5t81.5 -6.5t90.5 9.5t93 22.5q71 21 137 53t123.5 70t103.5 81.5t78 87.5q33 47 46 94.5t-7 86.5q-17 38 -64.5 59.5
t-116.5 21.5zM684 162q-46 -22 -99.5 -44.5t-104.5 -26.5q-48 -4 -81 5t-42 37q-11 30 4.5 66.5t47.5 72.5t76.5 69.5t90.5 58.5q47 24 102 42.5t105 17.5q28 0 45 -7.5t24 -20t4.5 -28.5t-13.5 -34t-27.5 -35t-37.5 -33.5t-45.5 -31t-49.5 -27.5q-24 -11 -32.5 -1t8.5 23
l54 33t51 35q13 10 26.5 22t24.5 24t16.5 24t1.5 23q-6 12 -20.5 15.5t-33 2t-38.5 -7.5t-36 -14q-37 -19 -69.5 -42.5t-60.5 -46.5q-31 -24 -56.5 -48.5t-48.5 -50.5q-15 -16 -31.5 -39t-23 -44t2.5 -36t47 -15q35 1 75 16t72 31q14 7 29 15.5t30 14.5q16 8 23 0.5
t-10 -15.5z" />
    <glyph glyph-name="at" unicode="@" horiz-adv-x="825" 
d="M827 217q-20 -15 -42 -29.5l-44 -28.5q-32 -20 -64.5 -36t-70.5 -30q-21 -8 -40.5 -12.5t-35.5 3.5q-12 6 -17.5 15t-6 20.5t2 23t7.5 21.5q0 2 1 4.5t2 4.5q-33 -23 -72 -42l-34.5 -16.5t-38 -14.5t-38.5 -9t-36 -1q-16 2 -25.5 9t-14 16.5t-5 20.5t1.5 21q3 23 18.5 46
t35.5 46q41 45 101.5 86.5t133.5 64.5q22 7 47 12t48.5 6t42 -4t27.5 -18l4 -10.5t1 -11.5q23 14 49 26t53 18q11 2 26 3.5t22 -3.5q4 -3 -4 -13.5t-20 -23.5t-25 -25.5l-19 -18.5l-45.5 -46l-45.5 -46l-104 -105q-2 -3 -7 -7t-9 -8.5t-6 -8.5t3 -6q8 -3 20.5 0t26 9
t26.5 13t21 12q31 17 59 35.5l57 38.5q5 5 18.5 14.5t33.5 26.5q34 30 61 65t39.5 69t8 65t-33.5 53q-26 19 -66.5 25t-87.5 1.5t-96 -17t-92 -28.5q-107 -40 -197.5 -100t-153.5 -126q-26 -27 -48.5 -57t-37 -60t-17 -58t12.5 -52t47 -35.5t73.5 -14t88 2.5t90.5 14
q59 12 114 32l15 4.5t13 0.5q9 -5 1 -11t-17 -9q-72 -26 -148 -40t-145 -14q-52 0 -94 12t-63 38q-20 24 -19.5 54t14.5 62q13 34 37.5 68.5t56.5 68t70.5 65t81.5 60.5q83 55 182 98t205 58q52 7 101 5.5t84 -18.5q36 -17 49.5 -44.5t10.5 -59.5q-4 -35 -24.5 -72
t-50.5 -72q-11 -12 -23.5 -24t-26.5 -24zM689 355q10 17 -1.5 30t-43.5 8q-20 -2 -36 -12.5t-27 -20.5l-41 -34t-40 -34l-79 -70.5l-76 -71.5l-11 -11q-5 -5 -8 -11t-2 -10.5t9 -5.5q15 -4 34.5 3t33.5 14q39 17 74.5 39t67.5 45q19 13 39.5 30t40 35t37 37.5t29.5 39.5z
" />
    <glyph glyph-name="onequarter" unicode="&#xbc;" horiz-adv-x="981" 
d="M875 318q-9 -18 -28.5 -34t-42.5 -30q-60 -38 -123 -72l-81 -44.5t-84 -41.5q35 5 68.5 8.5l68.5 7.5l37 4l2 2q62 65 131.5 127t132.5 125q7 6 14.5 16.5t18.5 14.5t17 -0.5t-2 -11.5q-35 -31 -63.5 -65l-55.5 -66l-63 -77l-46 -57q6 0 11.5 0.5t10.5 -0.5q6 0 7 -3.5
t-2 -7.5q-6 -3 -9.5 -3t-8.5 -1l-23 -3l-33 -42q-11 -14 -24.5 -29t-29.5 -29q-7 -6 -18 -11t-20.5 -6.5t-16.5 1t-6 11.5q0 23 19.5 49.5t42.5 50.5q-77 -8 -149 -18l-18 -3l-24.5 -4t-22 -2t-9.5 4t6.5 10t15.5 12t18 11t13 8l74.5 51l75.5 50l53.5 36l54.5 36
q28 19 63 31q7 3 17 5.5t18 2.5t12.5 -2.5t0.5 -10.5zM36 -8q-17 0 -16 5.5t10 12.5t20 13.5l16 9.5l58 34.5l59 34.5l386 229l373.5 222.5l374.5 222.5l48 29q10 6 17 5.5t10 -4t1.5 -9t-10.5 -10.5l-27 -15l-139.5 -83.5l-139.5 -83.5l-837 -496l-139 -83l-13.5 -8.5
l-17.5 -11.5t-18 -10t-16 -4zM540 565q54 22 104.5 52.5l95.5 59.5l42 28l67 54l33 26t36 26l15 12q4 3 8 5.5t9 3.5q9 2 9 -2t-3 -8l-77 -80l-63 -64l-70.5 -72l-70.5 -71q-12 -14 -25 -26.5t-26 -26.5q-7 -8 -24.5 -20t-35 -20.5t-30 -8t-9.5 18.5q2 12 10 23.5t19 23.5
t23 23l23 22l53 49l54 48q-50 -31 -99 -58l-59 -28q-11 -5 -14.5 0t5.5 10z" />
    <glyph glyph-name="threequarters" unicode="&#xbe;" horiz-adv-x="954" 
d="M884 318q-9 -18 -28.5 -34t-42.5 -30q-60 -38 -123 -72l-81 -44.5t-84 -41.5q35 5 68.5 8.5l68.5 7.5l37 4l2 2q62 65 131.5 127t132.5 125q7 6 14.5 16.5t18.5 14.5t17 -0.5t-2 -11.5q-35 -31 -63.5 -65l-55.5 -66l-63 -77l-46 -57q6 0 11.5 0.5t10.5 -0.5q6 0 7 -3.5
t-2 -7.5q-6 -3 -9.5 -3t-8.5 -1l-23 -3l-33 -42q-11 -14 -24.5 -29t-29.5 -29q-7 -6 -18 -11t-20.5 -6.5t-16.5 1t-6 11.5q0 23 19.5 49.5t42.5 50.5q-77 -8 -149 -18l-18 -3l-24.5 -4t-22 -2t-9.5 4t6.5 10t15.5 12t18 11t13 8l74.5 51l75.5 50l53.5 36l54.5 36
q28 19 63 31q7 3 17 5.5t18 2.5t12.5 -2.5t0.5 -10.5zM767 819q18 4 35 0.5t35 -5.5q35 -2 73.5 -2t79.5 8q13 -1 7.5 -5.5t-13.5 -9.5l-36.5 -21.5l-38.5 -21.5l-63.5 -33t-63.5 -30q42 -1 63 -21t13 -48q-11 -36 -48.5 -70.5t-87.5 -61.5q-22 -12 -52.5 -23.5t-63.5 -20.5
t-65.5 -14t-58.5 -2.5t-41.5 13.5t-14.5 34q1 16 11.5 34t27.5 35t38.5 33t45.5 28q4 2 19.5 8t31 10.5t26.5 5t7 -7.5q-2 -5 -12 -9.5t-15 -8.5q-11 -8 -22 -17t-20 -18l-26 -29t-24.5 -34.5t-8.5 -32t22 -20.5q18 -5 39 -3.5t42 8.5t41 17.5t37 22.5q32 23 52.5 50.5
t29.5 53.5q4 11 7 22t1.5 20t-8.5 16.5t-22 11.5q-11 3 -12 6.5t13 11.5q18 11 37.5 21.5l39.5 21.5l59 30t61 29l-62.5 -12t-60.5 -8q-22 -2 -48.5 -2t-37.5 10q-9 8 1.5 18.5t30.5 11.5zM45 -8q-17 0 -16 5.5t9.5 12.5t20 13.5l16.5 9.5l58 34.5l59 34.5l386 229
l373.5 222.5l374.5 222.5l48 29q10 6 17 5.5t10 -4t1.5 -9t-10.5 -10.5l-27 -15l-139.5 -83.5l-139.5 -83.5l-837 -496l-139 -83l-13.5 -8.5l-17.5 -11.5t-18 -10t-16 -4z" />
    <glyph glyph-name="onehalf" unicode="&#xbd;" horiz-adv-x="941" 
d="M635 98q-34 2 -42.5 19.5t-2.5 37.5q7 32 32 65.5t61 62.5q19 17 48 34.5t60.5 29.5t63.5 17t59 -4q17 -6 23.5 -16.5t5.5 -23.5t-7.5 -27.5t-15.5 -27.5q-20 -29 -52 -57.5t-70 -54.5q-56 -39 -120.5 -73t-135.5 -60q30 4 58 3q15 -2 30 -7t17 -16q0 -6 -6 -11t-14.5 -8
t-15.5 -2t-8 7q-10 2 -19 5l-14 4q-6 1 -7 1q-23 2 -47 1t-48 -4q-5 -1 -18.5 -4t-25.5 -4l-2 -1v1q-9 -1 -14 0.5t0 7.5q4 4 7 5t8 3h4q27 5 50 14q46 15 88 36q42 22 80 47h-10zM9 -8q-17 0 -16 5.5t10 12.5t20 13.5l16 9.5l58 34.5l59 34.5l386 229l373.5 222.5
l374.5 222.5l48 29q10 6 17 5.5t10 -4t1.5 -9t-10.5 -10.5l-27 -15l-139.5 -83.5l-139.5 -83.5l-837 -496l-139 -83l-13.5 -8.5l-17.5 -11.5t-18 -10t-16 -4zM513 565q54 22 104.5 52.5l95.5 59.5l42 28l67 54l33 26t36 26l15 12q4 3 8 5.5t9 3.5q9 2 9 -2t-3 -8l-77 -80
l-63 -64l-70.5 -72l-70.5 -71q-12 -14 -25 -26.5t-26 -26.5q-7 -8 -24.5 -20t-35 -20.5t-30 -8t-9.5 18.5q2 12 10 23.5t19 23.5t23 23l23 22l53 49l54 48q-50 -31 -99 -58l-59 -28q-11 -5 -14.5 0t5.5 10zM794 219l23 23q16 16 29.5 33t18.5 31t-10 18q-19 5 -42 1
t-45.5 -13.5t-43 -22t-35.5 -24.5q-33 -26 -57 -58t-24 -61q0 -11 7 -21.5t27 -9.5q8 -1 10 -4.5t0 -7.5q41 28 76.5 57.5t65.5 58.5z" />
    <glyph glyph-name="Euro.001" horiz-adv-x="944" 
d="M473 284h-138q-32 -48 -47.5 -93.5t-6.5 -85.5q7 -33 36.5 -54t73 -30.5t97 -8.5t109.5 13t109.5 34t97.5 54q18 14 33.5 29.5t23.5 31.5q2 4 3 13t14 11q7 1 9 -1t1 -5t-3 -6.5t-3 -5.5q-9 -17 -25 -33.5t-37 -32t-44.5 -29t-47.5 -25.5q-54 -25 -110 -41t-114 -26
q-48 -8 -97.5 -12t-92.5 2q-49 8 -78.5 30t-41.5 52q-20 48 -5 105t53 114h-44q-9 0 -11.5 4t0 8.5t9 8.5t16.5 4q11 2 23.5 1t24.5 -1l13 17h-34q-9 0 -11.5 4t-0.5 8.5t9 8.5t16 4q20 2 42 0q1 2 5 6q64 72 158.5 139t210.5 111q58 21 119.5 34t121 17t113.5 -1t99 -19
q43 -14 65 -41t13 -64q-9 -36 -46.5 -72.5t-91.5 -62.5q-31 -15 -65.5 -24.5t-66.5 -13.5q-16 -2 -32 -2.5t-30 0.5q-7 3 -4 9.5t13 4.5q35 -4 72.5 1.5t72.5 17.5t66.5 30t54.5 39.5t35.5 45t10.5 47.5q-3 36 -36.5 55t-83 26t-108.5 2.5t-112 -16.5q-59 -13 -115 -35
t-107 -49.5t-96.5 -59.5t-82.5 -66q-32 -29 -59 -59h137q10 0 12.5 -4t0 -8.5t-9 -8.5t-15.5 -4h-147q-3 -5 -6 -9t-7 -8h132q9 0 12 -4t0.5 -8.5t-9 -8.5t-15.5 -4z" />
    <glyph glyph-name="sterling.001" horiz-adv-x="911" 
d="M707 224h-143l-40 -33q-32 -26 -67.5 -49t-73.5 -45q44 -7 79 -24q29 -14 49.5 -32l40.5 -36q13 -12 28.5 -22.5t34.5 -18t42.5 -11t52.5 -1.5q26 2 52.5 9.5t49.5 21.5q9 5 17.5 13t16.5 12q11 5 15 0.5t-3 -9.5q-49 -35 -105.5 -49t-111.5 -12.5t-103 14.5t-79 32
q-30 17 -54.5 38.5t-54.5 38.5q-5 2 -9 4t-9 4q-48 -24 -103.5 -45t-109.5 -27q-20 -2 -39.5 0.5t-30.5 9.5t-11 18t18 26q19 16 46.5 27t57 17t59 8.5t53.5 2.5q34 0 67 -3q41 28 77 58.5t70 62.5h-54q-9 0 -11.5 4t0 8.5t9 8.5t16.5 4q12 2 26 1t26 -1h14q5 4 8.5 8t8.5 9
h-56q-9 0 -11.5 4t-0.5 8.5t9 8.5t16 4q13 2 26.5 1t26.5 -1h16l23 23q62 63 135.5 123.5t171.5 106.5q54 24 108.5 37t106.5 8q25 -3 46.5 -9.5t38.5 -17.5q4 -2 5.5 -5.5t-0.5 -6t-6.5 -3.5t-11.5 1q-4 2 -7 5t-7 5q-20 10 -40 14q-52 11 -113 -4q-57 -15 -106 -45.5
t-89 -62.5q-50 -41 -91 -84l-83 -85h123q10 0 12.5 -4t0 -8.5t-9 -8.5t-15.5 -4h-136l-19 -17h127q9 0 12 -4t0.5 -8.5t-9 -8.5t-15.5 -4zM152 82q-24 -6 -51 -17.5t-38 -28.5q-9 -14 4.5 -20.5t30.5 -7.5q25 -1 52 5t54 16.5t52.5 23.5t46.5 27q-32 9 -70 10.5t-81 -8.5z
" />
    <glyph glyph-name="section" unicode="&#xa7;" horiz-adv-x="518" 
d="M455 170q0 -32 -21.5 -68.5t-59.5 -68t-89 -53.5t-111 -25q-28 -2 -54.5 1t-45.5 11.5t-27 22.5t1 35q4 8 9 17t12 17q6 7 15.5 5.5t4.5 -8.5q-13 -15 -23 -30t-4 -29t25 -20.5t44 -7t52.5 4.5t50.5 14q57 23 87 61.5t39 72.5q5 17 0.5 30.5t-12.5 27.5q-12 23 -26.5 45
t-19.5 48q-6 23 1 48t38 49q10 8 22 15t26 13q9 4 18.5 7t20.5 6q3 2 7 0q-1 4 -1 8v8q0 32 21.5 68.5t59 68t88.5 53.5t111 25q29 1 56 -2t46 -11t27.5 -22t-0.5 -35l-10.5 -18t-13.5 -17q-3 -3 -7 -4.5t-8 -1t-5.5 3t1.5 5.5q14 15 23 30t4 29q-5 15 -24 21.5t-44 6.5
t-52.5 -5t-50.5 -14q-58 -23 -88.5 -61.5t-39.5 -72.5q-5 -17 -0.5 -30.5t12.5 -27.5q13 -23 27 -45t21 -48q5 -23 -2.5 -48t-37.5 -49q-22 -15 -48 -27q-9 -4 -19 -7.5t-19 -5.5q-3 -1 -8 -1q0 -4 0.5 -7.5t0.5 -7.5zM453 196q14 11 27.5 23t20.5 25q11 18 5 34t-15 29
q-14 23 -30.5 45t-23.5 48q-15 -11 -29 -23t-21 -25q-10 -17 -4 -33t15 -30q14 -23 30.5 -45.5t23.5 -48.5z" />
    <glyph glyph-name="yen.001" horiz-adv-x="705" 
d="M590 50h-96q-39 -34 -83 -65t-94 -59q-23 -12 -49 -24t-53.5 -21t-55 -13t-51.5 -1t-37 13q-5 3 -3.5 10t15.5 6q9 -1 15.5 -4.5t17.5 -4.5q16 -1 33 2t33 8q42 14 77.5 35.5t67.5 44.5q24 17 46.5 35.5l43.5 37.5h-102q-9 0 -11.5 4t0 8.5t9 8.5t16.5 4q12 2 26 1t26 -1
h63q5 4 8.5 8t8.5 9h-105q-9 0 -11.5 4t-0.5 8.5t9 8.5t16 4q13 2 26.5 1t26.5 -1h64q46 45 85 90.5l81 91.5q-43 -29 -89.5 -57t-98.5 -50q-18 -8 -42.5 -17t-49.5 -15t-48.5 -8t-39.5 4q-20 7 -23.5 22t3 33t18.5 36t23 32q51 63 115.5 123.5l130.5 120.5l20 17t25.5 24.5
t15.5 22.5t-9 12q-26 1 -54.5 -7.5t-56.5 -21t-53.5 -28l-45.5 -27.5l-46.5 -30t-43.5 -31q-5 -5 -12.5 -11t-14.5 -10q-5 -3 -10 -4t-8.5 0.5t-4 4.5t4.5 6q42 32 88 62t97 56q18 10 39 20.5t43.5 19.5t46 15t45.5 7q10 3 17.5 0.5t12.5 -7.5t7 -11t2 -10q-2 -18 -14 -38
t-27 -39q-27 -37 -61 -73t-71 -71.5l-73.5 -71.5t-67.5 -72q-5 -5 -11 -13t-10 -15.5t-3.5 -13.5t9.5 -9q16 -4 37 -1.5t41 7.5q57 17 109 46.5t95 58.5l51 35l49 36q68 68 146 131l70 52l74 51l44 27l6.5 4.5t8.5 3.5q9 3 12 -2t-8 -10q-18 -9 -34.5 -22l-31.5 -25
l-35.5 -30.5t-33.5 -31.5q-36 -35 -68.5 -70.5l-64.5 -70.5l-72 -82l-72 -81l-40.5 -42.5l-42.5 -42.5h75q10 0 12.5 -4t0 -8.5t-9 -8.5t-15.5 -4h-89l-18 -17h79q9 0 12 -4t0.5 -8.5t-9 -8.5t-15.5 -4z" />
    <glyph glyph-name="bar" unicode="|" horiz-adv-x="417" 
d="M-69 -195q-13 0 -15.5 4.5t1 11t10 13t10.5 11.5l32.5 37l30.5 37l113.5 129l113.5 128l266.5 307l268.5 306l141 161q3 4 9 9q6 7 15.5 9.5t17 1t10 -6.5t-3.5 -12l-37 -41l-231 -264.5l-231 -264.5l-229 -261.5l-229 -262.5l-10.5 -13.5t-14.5 -17t-18 -15t-20 -6.5z
" />
    <glyph glyph-name="slash" unicode="/" horiz-adv-x="957" 
d="M-68 -82q-18 0 -15 9.5t15 17.5q14 8 26 14l99 59l359 205l426.5 245.5l426.5 245.5l114.5 65l113.5 66l14 7q10 6 18.5 6t12.5 -4t2.5 -10t-11.5 -12l-55 -32l-735 -421l-734 -422q-5 -3 -14.5 -9.5t-20.5 -13t-22 -11.5t-20 -5z" />
    <glyph glyph-name="fraction" unicode="&#x2044;" horiz-adv-x="750" 
d="M-293 -192q-18 0 -15 9.5t15 17.5q14 8 26 14l100 59l179 102l179 103l426.5 245.5l426.5 245.5l114.5 65l113.5 66l14 7q10 6 18.5 6t12.5 -4t2.5 -10t-11.5 -12l-55 -32l-735 -421l-733 -422q-6 -3 -15.5 -9.5t-20.5 -13t-22 -11.5t-20 -5z" />
    <glyph glyph-name="parenleft.001" horiz-adv-x="446" 
d="M1391 1038q-223 -110 -418.5 -239.5t-363.5 -272.5q-86 -74 -164.5 -151.5t-144 -157t-115 -160.5t-75.5 -161q-6 -17 -9.5 -33l-7.5 -33q-2 -8 -2 -10t-13 -4q-14 -4 -15.5 -3t-3.5 9q-9 34 -7 70t11 74q20 78 65.5 158t110.5 158q127 155 306.5 298.5t393.5 265.5
q60 35 122.5 67.5t128.5 61.5q70 31 133 56q2 1 11.5 4.5l19.5 7l18.5 6.5t9.5 3z" />
    <glyph glyph-name="parenright.001" horiz-adv-x="659" 
d="M-222 -174q222 110 418 239.5t364 272.5q85 73 164 151t144 157.5t114.5 160.5t76.5 161q6 17 9.5 33l7.5 33q1 8 1.5 10t13.5 4q14 4 15.5 3t3.5 -9q8 -34 6.5 -70t-12.5 -74q-19 -78 -65 -158t-110 -158q-126 -155 -306.5 -298.5t-394.5 -265.5q-60 -35 -122 -67.5
t-127 -61.5l-66.5 -29l-65.5 -27q-3 -1 -12.5 -4.5l-19.5 -7l-18.5 -6.5t-9.5 -3q-3 8 -9 14z" />
    <glyph glyph-name="bracketleft.001" horiz-adv-x="387" 
d="M204 -96h-263l409 446l264 285l35.5 40l37.5 40q4 4 6.5 7t5.5 7q1 1 7 1h13q8 0 14 -0.5t7 -0.5h243q9 0 12 -4t0.5 -8.5t-9 -8.5t-15.5 -4q-16 -2 -32.5 -1t-30.5 1h-192q-1 0 -6.5 -5.5t-11.5 -12.5l-11.5 -13t-6.5 -7l-519 -564l-80 -86l-79 -87h204q3 0 6.5 0.5
t5.5 -0.5q9 0 11.5 -4t-0.5 -8.5t-9.5 -8.5t-15.5 -4z" />
    <glyph glyph-name="bracketright.001" horiz-adv-x="443" 
d="M629 731h264l-206 -223l-205 -223l-263 -285l-36.5 -40l-38.5 -40q-2 -4 -5 -7l-7 -7q0 -1 -6 -1h-13q-7 0 -13.5 0.5t-7.5 0.5h-242q-10 0 -13 4t-0.5 8.5t9 8.5t16.5 4q16 2 32 1t31 -1h191q1 0 6.5 5.5t11.5 12.5l11.5 13t6.5 7l259.5 282l259.5 282l159 173h-204
q-4 0 -7 -0.5t-5 0.5q-9 0 -11 4t0.5 8.5t9.5 8.5t16 4z" />
    <glyph glyph-name="backslash" unicode="\" horiz-adv-x="618" 
d="M602 -134q-15 -10 -26 -7t-13 11q-2 2 -2 6v8q-2 15 -4.5 30t-7.5 29q-7 54 -15.5 106l-17.5 106l-40 253t-41 252q-5 35 -11 68t-11 67q0 2 -1 3.5t-2 3.5q0 6 6.5 11t14 7t14.5 0.5t8 -7.5q2 -9 3.5 -17t2.5 -17l36 -216.5l35 -216.5q19 -109 35.5 -217l34.5 -217
q1 -3 3.5 -9t3.5 -13t0.5 -13.5t-5.5 -10.5z" />
    <glyph glyph-name="hyphen" unicode="-" horiz-adv-x="516" 
d="M500 230h-258q-5 0 -9 -0.5t-8 0.5q-11 0 -13.5 4.5t0.5 10.5t11 10.5t19 4.5q14 2 27 1t25 -1h206q5 0 9 0.5t7 -0.5q11 0 13.5 -4.5t-0.5 -10.5t-11 -10.5t-18 -4.5z" />
    <glyph glyph-name="plus.001" horiz-adv-x="533" 
d="M294 141q-12 0 -14.5 4t0.5 9.5t8.5 11.5t8.5 11l48 53h-88q-5 0 -9 -0.5t-8 0.5q-11 0 -13.5 4.5t0.5 10.5t11 10.5t19 4.5q14 2 27 1t25 -1h64q11 14 22.5 27t24.5 26l20 22t30 14q12 0 14.5 -3.5t-0.5 -9.5t-9 -12.5l-10 -10.5q-11 -14 -22.5 -27l-23.5 -26h96
q5 0 9 0.5t7 -0.5q11 0 13.5 -4.5t-0.5 -10.5t-11 -10.5t-18 -4.5h-124l-23.5 -27l-23.5 -26l-20 -23q-12 -13 -30 -13z" />
    <glyph glyph-name="comma" unicode="," horiz-adv-x="233" 
d="M128 23q-32 0 -41 13.5t0 30t33 30.5t56 14q38 0 43 -19t-13 -38q-2 -5 -6 -9q-16 -21 -40 -42t-50 -38q-38 -22 -80 -33q-8 -1 -9.5 3t3.5 9q4 5 12.5 7t13.5 5q29 13 48.5 30.5t34.5 36.5h-5z" />
    <glyph glyph-name="period" unicode="." horiz-adv-x="228" 
d="M126 29q-32 0 -40.5 13.5t0.5 30t32.5 30.5t55.5 14t40.5 -14t-0.5 -30.5t-32.5 -30t-55.5 -13.5z" />
    <glyph glyph-name="ellipsis" unicode="&#x2026;" horiz-adv-x="684" 
d="M137 29q-43 0 -54 17t0 39q12 21 42 39t73 18q41 0 52.5 -18t-1.5 -39q-11 -22 -41 -39t-71 -17zM347 29q-42 0 -53 17t0 39q13 21 42.5 39t71.5 18t53.5 -18t-0.5 -39q-11 -22 -41.5 -39t-72.5 -17zM558 29q-43 0 -53 17t1 39q12 21 41.5 39t72.5 18q41 0 53 -18t-1 -39
q-11 -22 -42 -39t-72 -17z" />
    <glyph glyph-name="question" unicode="?" horiz-adv-x="711" 
d="M549 678q25 34 59 71t75.5 72t90 65.5t102.5 52.5q57 23 119.5 35t117.5 10q54 -3 81 -26t27 -57q1 -36 -19.5 -74.5t-55.5 -76t-80.5 -73t-94.5 -65.5t-104 -56.5t-112 -48.5q-50 -19 -100.5 -34t-99.5 -37q-52 -24 -96.5 -54t-81.5 -63q-36 -30 -60 -61q0 -1 -1 -2
t-2 -3q-3 -4 -8.5 -6.5t-11 -2.5t-9 2t-3.5 6q0 5 6.5 10.5t8.5 9.5l35.5 36t38.5 35q39 34 84 65.5t97 58.5q45 23 92.5 42t92.5 42q55 29 104.5 61t96.5 67q44 35 83.5 71.5t72.5 74.5l25 32.5t20 34t5.5 31.5t-17.5 25q-15 9 -36 12.5t-45.5 2.5t-50 -5t-48.5 -11
q-50 -14 -94.5 -38t-82.5 -50q-40 -28 -75.5 -58.5t-64.5 -62.5l-24.5 -28.5l-23.5 -28.5q-3 -5 -7 -8.5t-12 -5.5t-12.5 2t-1.5 9zM66 -9q-32 0 -40 13.5t1 30t32 30.5t55 14t40.5 -14t-0.5 -30.5t-32.5 -30t-55.5 -13.5z" />
    <glyph glyph-name="exclam" unicode="!" horiz-adv-x="503" 
d="M1215 999q-87 -85 -182 -167.5l-191 -165.5l-204.5 -178.5l-206.5 -177.5q-6 -5 -15 -14t-19.5 -17.5t-22 -14.5t-21.5 -5q-14 1 -12.5 9t10.5 18.5t21 20.5t17 15l145 145l147 143l133.5 130.5l135.5 130.5l82 79l84 77q20 17 45 21.5t43 -0.5t23.5 -18t-12.5 -31z
M101 -9q-32 0 -41 13.5t0 30t33 30.5t56 14t40.5 -14t-0.5 -30.5t-32.5 -30t-55.5 -13.5z" />
    <glyph glyph-name="braceleft.001" horiz-adv-x="350" 
d="M1094 894q-31 -4 -59 -19.5t-51 -31.5q-29 -20 -54.5 -42l-50.5 -44l-106.5 -96.5l-109.5 -96.5q-54 -46 -113.5 -90.5t-129.5 -82.5q-27 -15 -56.5 -28t-59.5 -21q19 -11 26.5 -30t7.5 -37q0 -35 -13.5 -73.5t-33.5 -76.5q-19 -40 -42 -79.5l-46 -78.5l-18 -36
q-9 -18 -14 -35t-3 -32q5 -7 12 -9t14 -7q8 -2 4 -9t-15 -9q-29 -5 -49 3q-23 7 -32.5 22.5t-11.5 32.5q-2 18 0.5 36.5t8.5 38t14 39.5l16 39q20 40 41.5 79t41.5 79l17 32.5t16.5 36.5t6 34t-15.5 25q-3 2 -9.5 3.5t-12 3.5t-8.5 4.5t1 6.5q7 6 26 9.5t30 6.5
q38 14 70.5 36t61.5 44q63 51 120 102.5l117 102.5q57 51 119 100.5t137 94.5q32 19 67.5 36.5t75.5 27.5q17 5 35 7.5t34 0.5q10 -2 10 -9.5t-16 -9.5z" />
    <glyph glyph-name="braceright.001" horiz-adv-x="437" 
d="M-213 -152q30 4 58 19.5t51 31.5q29 20 54.5 42l49.5 44l106.5 96.5l109.5 96.5q54 46 113.5 90.5t129.5 82.5q28 14 57 27t59 21q-18 12 -25.5 30.5t-7.5 37.5q0 35 13.5 73.5t32.5 76.5q20 40 43 79.5l46 78.5l17.5 36t13.5 35q2 8 3.5 16t-0.5 16q-5 7 -11.5 9
t-13.5 7q-8 2 -4 9t14 9q29 4 50 -3q23 -7 32.5 -22.5t10.5 -32.5q5 -35 -8.5 -75t-30.5 -78q-19 -40 -40.5 -79t-41.5 -79l-17 -32.5t-17 -36.5t-6 -34t17 -25q3 -2 9 -3.5t11.5 -3.5t8 -4.5t-1.5 -6.5q-7 -6 -26 -9.5t-29 -6.5q-38 -14 -71 -36t-61 -44
q-63 -51 -120 -102.5l-117 -102.5l-120 -100.5t-136 -94.5q-32 -19 -67.5 -36.5t-74.5 -27.5q-17 -5 -34.5 -7.5t-34.5 -0.5q-11 2 -10.5 9.5t16.5 9.5z" />
    <glyph glyph-name="asciitilde" unicode="~" horiz-adv-x="548" 
d="M192 232q32 21 68.5 40.5t77.5 31.5q48 15 88.5 8.5t58.5 -29.5l6 -10.5t8 -10t13 -7t21 -1.5q20 2 42 8.5t42 14.5q9 4 18 6.5t15 -2.5q8 -7 -6.5 -18.5t-37.5 -23t-46.5 -21t-32.5 -12.5q-45 -16 -85.5 -14t-63.5 22q-7 6 -11 13t-9.5 12.5t-14.5 9t-26 1.5
q-24 -3 -49.5 -11.5t-48.5 -19.5q-5 -3 -11.5 -5.5t-13.5 -1.5q-11 2 -11 8t9 12z" />
    <glyph glyph-name="ampersand" unicode="&#x26;" horiz-adv-x="960" 
d="M896 376q55 -2 116.5 11.5t120 37.5t108.5 56t82 68q33 36 35.5 70t-29.5 57t-81.5 32t-102.5 11q-108 5 -220.5 -14t-225.5 -67q-56 -24 -110 -52.5t-102.5 -61t-89.5 -68t-71 -72.5q-33 -39 -43.5 -78.5t16.5 -69.5q27 -26 74.5 -38t104.5 -11q6 2 10 2h257
q23 24 41 39t29 13q6 -2 4 -7.5t-8 -13t-15 -16.5l-15 -15h202q16 0 12.5 -10t-20.5 -10h-216l-53.5 -63.5t-46.5 -64.5q-14 -23 -25.5 -47.5t-7.5 -46.5q2 -23 28 -30q9 -2 20 -1.5t16 -4.5t-2.5 -11t-16.5 -6q-45 0 -61.5 15.5t-16 38.5t13 49.5t26.5 48.5l16 24
q-62 -51 -134 -96t-164 -71q-50 -14 -103.5 -20t-100 -2t-81 19.5t-46.5 44.5q-11 31 7 67.5t60 68.5t95.5 52t108.5 31q42 8 80 12q-47 8 -83.5 23t-57.5 41q-24 26 -26 59t12 68q15 37 45 73t70.5 69.5t89.5 63.5t103 55q113 52 235 79t237 32q52 2 111 1t112 -9
t93.5 -25.5t57.5 -47.5q17 -31 0 -65.5t-54.5 -68t-88 -63t-99.5 -49.5q-78 -33 -162 -48q-20 -4 -40.5 -5.5t-40.5 -2.5q-12 2 -9 11t20 9zM510 169q-4 0 -9 -0.5t-10 -0.5h-3q-13 -2 -27.5 -1.5t-28.5 2.5q-42 -3 -85.5 -16t-80.5 -32q-24 -12 -47 -28.5t-41 -34.5
t-29 -36.5t-11 -34.5t10.5 -27.5t27 -19t38 -12.5t43.5 -7q45 -5 92 3.5t95 28.5q57 23 104 54.5t87 66.5l36.5 34l33.5 34l3 3l6 8l14 16h-218z" />
    <glyph glyph-name="ring" unicode="&#x2da;" horiz-adv-x="408" 
d="M524 630q-47 0 -68.5 22.5t-5.5 53.5q9 15 25.5 29t38 24t45.5 16t47 6q47 0 67.5 -22t3.5 -53q-8 -15 -24.5 -29t-37.5 -24.5t-44.5 -16.5t-46.5 -6zM593 756q-37 0 -64 -16t-37.5 -34.5t-0.5 -34.5t46 -16q37 0 64 16t37.5 34.5t0.5 34.5t-46 16z" />
    <glyph glyph-name="asterisk.001" horiz-adv-x="426" 
d="M386 333q-11 0 -14 4t-1 9t6 11t7 11l16 19.5l16 19.5l-39 -14q-14 -5 -33 -13t-32 -8q-17 0 -15.5 10.5t18.5 16.5q9 5 21 8l42 15.5l42 15.5q-12 7 -24.5 13t-23.5 14l-15 8q-10 5 -3 15.5t24 12.5q14 2 24.5 -5l17.5 -12l37 -20l16 21.5l16 21.5l7 10l10 12t12 10
t16 5q13 1 16.5 -2.5t1.5 -9t-7 -12t-8 -11.5l-15 -19.5l-14 -19.5l38 15l31.5 12.5t33.5 8.5q17 1 16 -10t-19 -18q-4 -2 -8.5 -3.5t-9.5 -3.5l-88 -32l55 -29q8 -4 13 -9q6 -3 6.5 -7.5t-3.5 -9t-11.5 -8t-16.5 -3.5q-13 0 -22.5 7l-16.5 12l-42 21l-15 -21l-15 -21
q-8 -9 -18.5 -23.5t-29.5 -14.5z" />
    <glyph glyph-name="ogonek" unicode="&#x2db;" horiz-adv-x="314" 
d="M209 40q-35 -17 -70 -36t-67 -40q-8 -5 -22.5 -15.5t-26 -22t-16 -21t7.5 -13.5t26.5 0t28.5 11.5t27.5 16.5t22.5 14q6 3 12.5 4t11.5 0t6.5 -4t-4.5 -8q-4 -5 -11 -10t-12 -9q-23 -17 -54.5 -31.5t-63.5 -14.5q-37 1 -41.5 21.5t15.5 42.5q18 23 51.5 42t65.5 35
l38.5 18.5l38.5 17.5q5 2 16 7t18 6t8 -3t-6 -8z" />
    <glyph glyph-name="dieresis" unicode="&#xa8;" horiz-adv-x="584" 
d="M527 660q-32 0 -41 13.5t0 30t33 30.5t56 14t40.5 -14t-0.5 -30.5t-32.5 -30t-55.5 -13.5zM743 660q-32 0 -41 13.5t0 30t33 30.5t56 14t40.5 -14t-0.5 -30.5t-32.5 -30t-55.5 -13.5z" />
    <glyph glyph-name="cedilla" unicode="&#xb8;" horiz-adv-x="261" 
d="M18 -113q-25 0 -47 7.5t-24 24.5q0 7 6.5 15.5t20.5 9.5q9 1 11.5 -1t2.5 -5v-7q0 -4 3 -7q4 -6 14 -9t22 -3.5t25.5 1.5t24.5 7q32 12 40 29.5t-19 24.5q-7 2 -17 2.5t-12 6.5q0 5 5 9l10 8l54 40q9 6 18 7.5t14.5 0t5.5 -6.5t-9 -11l-44 -32q34 -9 35.5 -27t-18 -37
t-53 -33t-69.5 -14z" />
    <glyph glyph-name="hungarumlaut" unicode="&#x2dd;" horiz-adv-x="798" 
d="M444 705l189.5 46l191.5 46q16 4 29 1.5t18.5 -9t2 -16t-20.5 -18.5q-14 -8 -32 -11l-31 -4l-243 -40l-86 -14l-18 -3q-17 -3 -17.5 7t17.5 15zM719 705l189.5 46l191.5 46q16 4 29 1.5t18 -9t1.5 -16t-20.5 -18.5q-14 -8 -31 -10.5t-32 -4.5l-243 -40l-85 -14l-18 -3
q-17 -3 -17.5 7t17.5 15z" />
    <glyph glyph-name="dotaccent" unicode="&#x2d9;" horiz-adv-x="338" 
d="M546 689q-32 0 -40.5 13.5t0.5 30t32.5 30.5t55.5 14t40.5 -14t-0.5 -30.5t-32.5 -30t-55.5 -13.5z" />
    <glyph glyph-name="quotesingle" unicode="'" horiz-adv-x="5" 
d="M279 521q-32 0 -40.5 13.5t0.5 30t32.5 30.5t55.5 14q19 0 30 -5.5t14 -14t-1 -18.5t-13 -20l-6 -8q-16 -21 -40 -42t-50 -38q-18 -11 -38 -19.5t-41 -13.5q-7 -1 -9 3t3 9t13 7t14 5q27 13 47 30t36 37h-7z" />
    <glyph glyph-name="colon" unicode=":" horiz-adv-x="318" 
d="M129 29q-43 0 -54 17t0 39q13 21 43 39t73 18q41 0 53 -18t-1 -39q-11 -22 -42 -39t-72 -17zM375 353q-43 0 -53 17.5t1 38.5q12 21 41.5 39t72.5 18q41 0 53 -18t-1 -39q-11 -21 -42 -38.5t-72 -17.5z" />
    <glyph glyph-name="semicolon" unicode=";" horiz-adv-x="323" 
d="M206 40q-19 -15 -39 -28q-18 -10 -37.5 -18.5t-40.5 -13.5l-20.5 -2.5t-21.5 0t-10 8t14 21.5q10 10 16 13.5t9.5 4t6.5 0t6 1.5h1q3 1 6.5 2.5t6.5 3.5q-23 6 -27.5 21t4.5 32q12 21 42 39t73 18q41 0 52.5 -18t-1.5 -39q-2 -2 -2.5 -4t-2.5 -4l-2 -4q-1 -2 -3 -4v1
q-11 -15 -30 -30zM375 353q-43 0 -53 17.5t1 38.5q12 21 41.5 39t72.5 18q41 0 53 -18t-1 -39q-11 -21 -42 -38.5t-72 -17.5z" />
    <glyph glyph-name="quotedbl" unicode="&#x22;" horiz-adv-x="368" 
d="M620 544q-14 -20 -36 -40t-48 -37q-20 -14 -43.5 -25t-52.5 -19l-21.5 -2.5t-21 0.5t-8 9t18.5 24q17 14 32 17h1l2 1q1 0 3 1q14 5 26.5 14.5t23.5 20.5q-22 4 -30 17q-14 -15 -32 -30t-38 -28q-20 -14 -43 -25t-51 -19l-22 -2.5t-21 0.5t-7.5 9t18.5 24q7 7 16 11t14 6
q1 0 2 0.5t2 0.5t2 1q14 5 27 14.5t24 20.5q-27 5 -32.5 20.5t4.5 34.5q12 21 41.5 38.5t72.5 17.5q23 0 37 -6.5t19 -16.5q16 10 36.5 16.5t46.5 6.5q41 0 52.5 -17.5t-1.5 -38.5q-2 -4 -8 -12l-5 -8v1z" />
    <glyph glyph-name="quotedblright" unicode="&#x201d;" horiz-adv-x="362" 
d="M369 517q-32 0 -40.5 13.5t0.5 30t32.5 30.5t55.5 14q19 0 30 -5.5t14 -14t-1 -18.5t-13 -20l-6 -8q-17 -21 -40.5 -42t-49.5 -38q-19 -11 -39 -19.5t-40 -13.5q-8 -1 -9.5 3t3.5 9q3 5 11.5 7t13.5 5q29 13 48.5 30t34.5 37h-5zM519 517q-32 0 -40.5 13.5t0.5 30
t32.5 30.5t55.5 14q19 0 30 -5.5t14 -14t-1 -18.5t-13 -20l-6 -8q-17 -21 -40.5 -42t-49.5 -38q-19 -11 -39 -19.5t-40 -13.5q-8 -1 -9.5 3t3.5 9q3 5 11.5 7t13.5 5q29 13 48.5 30t34.5 37h-5z" />
    <glyph glyph-name="quotedblleft" unicode="&#x201c;" horiz-adv-x="362" 
d="M525 516q32 0 40.5 -14t-0.5 -30.5t-32.5 -30t-55.5 -13.5q-38 0 -43 18.5t12 37.5q1 2 3 4.5t4 5.5q16 21 40 42t50 38q20 11 40 19.5t40 13.5q8 1 9.5 -3t-3.5 -9q-4 -5 -12.5 -7t-13.5 -5q-29 -14 -48.5 -31t-34.5 -36h5zM375 516q32 0 40.5 -14t-0.5 -30.5t-32.5 -30
t-55.5 -13.5q-38 0 -43 18.5t12 37.5q1 2 3 4.5t4 5.5q16 21 40 42t50 38q20 11 40 19.5t40 13.5q8 1 9.5 -3t-3.5 -9q-4 -5 -12.5 -7t-13.5 -5q-29 -14 -48.5 -31t-34.5 -36h5z" />
    <glyph glyph-name="quoteleft" unicode="&#x2018;" horiz-adv-x="225" 
d="M375 516q32 0 40.5 -14t-0.5 -30.5t-32.5 -30t-55.5 -13.5q-38 0 -43 18.5t12 37.5q1 2 3 4.5t4 5.5q16 21 40 42t50 38q20 11 40 19.5t40 13.5q8 1 9.5 -3t-3.5 -9q-4 -5 -12.5 -7t-13.5 -5q-29 -14 -48.5 -31t-34.5 -36h5z" />
    <glyph glyph-name="quoteright" unicode="&#x2019;" horiz-adv-x="6" 
d="M302 521q-32 0 -41 13.5t0 30t33 30.5t56 14q38 0 43 -19t-13 -38q-2 -5 -6 -9q-16 -21 -40 -42t-50 -38q-18 -11 -38 -19.5t-42 -13.5q-7 -1 -9 3t3 9t13.5 7t13.5 5q28 13 47.5 30t35.5 37h-6z" />
    <glyph glyph-name="dotlessi" unicode="&#x131;" horiz-adv-x="395" 
d="M552 229l-89 -64.5t-94.5 -63t-101 -57t-109.5 -46.5q-23 -8 -45.5 -13.5t-41 -6t-33 5.5t-21.5 20t-6 30.5t7 34t15.5 35t20.5 34.5q52 78 129.5 154.5t164.5 148.5q9 7 28.5 24.5t42.5 32.5t44.5 22t33.5 -8q4 -6 1 -13.5t-9 -15.5t-13.5 -16l-13.5 -14l-33 -37.5
l-34 -37.5l-135 -148l-47 -52l-48 -52l-46 -55l-20 -26q-10 -14 -9 -25q0 -8 9.5 -10.5t23 -1t27.5 5t23 6.5q38 16 75.5 36t69.5 40q40 23 75.5 47l70.5 49q17 11 33.5 23l32.5 24q6 4 12.5 5t11 -1t4.5 -6t-6 -8z" />
    <glyph glyph-name="fi" unicode="&#xfb01;" horiz-adv-x="702" 
d="M885 229l-89 -64.5t-94.5 -63t-101 -57t-109.5 -46.5q-23 -8 -45.5 -13.5t-41 -6t-33 5.5t-21.5 20t-6 30.5t7 34t15.5 35t20.5 34.5l5 7q-35 -21 -81.5 -42.5t-97.5 -26.5q-5 -1 -9 -1h-9q-20 0 -31.5 5t-16.5 12.5t-5 17.5t3 19l-168 -177l-108.5 -114t-113.5 -113
q-39 -38 -81 -74.5t-90 -70.5q-18 -13 -40 -26.5t-46 -25t-49 -18.5t-49 -7q-33 1 -37.5 16.5t9 39.5t40 52.5t55 55.5t53.5 48t36 31q89 75 186 146l198 141q9 6 18 13t19 13l165.5 190l171.5 189l182 186.5t196 182.5l83 71.5t94 67.5q19 13 45 28t54 28.5t57 22.5t55 10
q36 1 40 -13.5t-11 -38t-43.5 -51.5t-59.5 -54.5l-57.5 -47.5t-36.5 -30l-220.5 -172l-227.5 -169l-68 -70l-153 -158l-9.5 -13.5l-9.5 -13.5l-16.5 -23.5t-15 -25.5t-9 -25.5t1.5 -23.5q5 -13 24 -12t42 8.5t44.5 17.5t31.5 16q29 14 54 30t48 33q4 2 6 4q51 61 114 121
t132 117q9 7 28.5 24.5t42.5 32.5t44.5 22t33.5 -8q4 -6 1 -13.5t-9 -15.5t-13.5 -16l-13.5 -14l-33 -37.5l-34 -37.5l-135 -148l-47 -52l-48 -52l-46 -55l-20 -26q-10 -14 -9 -25q0 -8 9.5 -10.5t23 -1t27.5 5t23 6.5q38 16 75.5 36t69.5 40q40 23 75.5 47l70.5 49
q17 11 33.5 23l32.5 24q6 4 12.5 5t11 -1t4.5 -6t-6 -8zM-251 -128q-48 -35 -93 -71.5l-90 -73.5q-42 -36 -81.5 -74t-66.5 -76q-3 -5 -9 -13t-9 -16.5t-2 -15t11 -6.5q12 -1 25.5 2.5t26.5 9.5t25 13l22 13q48 31 84 67l70 71l111.5 123l107.5 124l22.5 26l22.5 25l-89 -63
zM525 520l191.5 142.5t182.5 146.5l82.5 71.5t73.5 74.5q1 2 7.5 10.5t12.5 17.5t7.5 15.5t-5.5 6.5q-17 -1 -33 -11t-28 -19q-45 -32 -81 -66.5l-75 -68.5l-79 -70.5l-76 -71.5l-94 -90.5l-91 -91.5zM1079 781q-32 0 -41 13.5t0 30t33 30.5t56 14t40.5 -14t-0.5 -30.5
t-32.5 -30t-55.5 -13.5z" />
    <glyph glyph-name="fl" unicode="&#xfb02;" horiz-adv-x="600" 
d="M768 221l-90 -69.5t-97 -66.5q-21 -14 -45.5 -28.5t-50.5 -28t-53 -24.5t-54 -17q-29 -6 -41 1t-14 20.5t3.5 30t11.5 28.5q11 19 23 37.5t26 37.5q-35 -20 -79.5 -40.5t-94.5 -25.5q-5 -1 -9 -1h-9q-20 0 -31.5 5t-16.5 12.5t-5 17.5t3 19l-168 -177l-108.5 -114
t-113.5 -113q-39 -38 -81 -74.5t-90 -70.5q-18 -13 -40 -26.5t-46 -25t-49 -18.5t-49 -7q-33 1 -37.5 16.5t9 39.5t40 52.5t55 55.5t53.5 48t36 31q89 75 186 146l198 141q9 6 18 13t19 13l165.5 190l171.5 189l182 186.5t196 182.5l83 71.5t94 67.5q19 13 45 28t54 28.5
t57 22.5t55 10q36 1 40 -13.5t-11 -38t-43.5 -51.5t-59.5 -54.5l-57.5 -47.5t-36.5 -30l-220.5 -172l-227.5 -169l-68 -70l-153 -158l-9.5 -13.5l-9.5 -13.5l-16.5 -23.5t-15 -25.5t-9 -25.5t1.5 -23.5q5 -13 24 -12t42 8.5t44.5 17.5t31.5 16q29 14 54 30t48 33q2 1 3.5 2
t3.5 2q6 8 10 12l221.5 253t244.5 248l123 112.5t140 106.5l45.5 29.5t51.5 29t55.5 24t55.5 15.5q22 4 40 1t22 -16q2 -8 -1.5 -16.5t-10 -18t-15 -18.5l-15.5 -17q-35 -37 -76 -73.5t-85.5 -71.5l-90.5 -70l-90 -69l-140.5 -106l-143.5 -105l-93.5 -93l-92.5 -94l-69 -72
l-73.5 -74t-61.5 -76l-2 -5q-2 -4 -3.5 -9.5t-2 -9.5t1.5 -3q0 -3 6 -2.5t14 2t15.5 3.5t9.5 3q38 12 73 32t65 40q67 43 125 89l28 23q7 5 15 13t17 13q12 6 20 1t-1 -13zM-251 -128q-48 -35 -93 -71.5l-90 -73.5q-42 -36 -81.5 -74t-66.5 -76q-3 -5 -9 -13t-9 -16.5
t-2 -15t11 -6.5q12 -1 25.5 2.5t26.5 9.5t25 13l22 13q48 31 84 67l70 71l111.5 123l107.5 124l22.5 26l22.5 25l-89 -63zM1085 698l88.5 71l86.5 72l39.5 34t39.5 36.5t35 37t26 36.5q2 4 5 12.5t-7 7.5t-20.5 -6t-19.5 -10q-27 -17 -48.5 -36l-43.5 -38l-78.5 -70
l-78.5 -71l-133 -126l-130 -127l-11 -10zM525 520l191.5 142.5t182.5 146.5l82.5 71.5t73.5 74.5q1 2 7.5 10.5t12.5 17.5t7.5 15.5t-5.5 6.5q-17 -1 -33 -11t-28 -19q-45 -32 -81 -66.5l-75 -68.5l-79 -70.5l-76 -71.5l-94 -90.5l-91 -91.5z" />
    <glyph glyph-name="Lslash" unicode="&#x141;" 
d="M1230 -75q-43 -32 -94.5 -54t-109.5 -31q-63 -11 -120.5 -6.5t-107.5 15.5q-50 9 -92.5 23.5t-76.5 36.5q-26 17 -48 37t-48 37q-17 12 -36.5 23t-42.5 21q-58 -31 -125 -57q-58 -22 -122 -38.5t-120 -12.5q-27 2 -43 11t-20 22.5t6 29.5t36 33q25 15 54 26t59.5 18.5
t61 12t58.5 6.5q89 8 169 0q56 38 104 80l93 84l8 7q-2 -1 -5 -1l-101 -17l-21 -4q-9 -2 -13 1.5t-3.5 8t5.5 9t14 6.5q14 4 28.5 5.5t27.5 3.5l99 17l142 139q42 42 98.5 91.5t123 97t140.5 89t150 67.5t151.5 32.5t146.5 -15.5q17 -5 35.5 -12t29.5 -17q4 -4 2 -8.5t-7 -8
t-11.5 -4.5t-10.5 4q-11 5 -18 11t-18 11q-22 9 -47 14.5t-55 5.5q-58 1 -114.5 -15t-108.5 -42t-98.5 -58.5t-83.5 -64.5q-72 -59 -130.5 -121.5l-120.5 -123.5q-11 -12 -23 -23.5l-24 -22.5l175 31q5 1 9.5 1t9.5 2q9 1 13 -2t3.5 -7.5t-5.5 -9t-14 -5.5l-223 -39
q-60 -53 -127.5 -101.5t-142.5 -93.5l-20 -12q49 -9 90.5 -24.5t73.5 -38.5q29 -21 54 -45.5t54 -46.5t65 -38.5t88 -20.5q43 -3 89 4.5t91 27.5q41 20 70 47q6 5 13 6.5t11.5 0t5.5 -5.5t-6 -9zM147 33q-23 -8 -45 -21t-35 -26.5t-11.5 -25.5t27.5 -19q22 -6 48.5 -4.5
t55 8t57 16t53.5 20.5q63 28 116 60q-56 17 -122.5 18t-143.5 -26z" />
    <glyph glyph-name="lslash" unicode="&#x142;" horiz-adv-x="267" 
d="M435 221l-90 -69.5t-97 -66.5q-21 -14 -45.5 -28.5t-50.5 -28t-53 -24.5t-54 -17q-29 -6 -41 1t-14 20.5t3.5 30t11.5 28.5q20 37 48 74t60 74l150 174q-8 -2 -11 -2l-100 -17q-5 -1 -10 -1.5t-10 -2.5q-9 -2 -13.5 1.5t-4 8t6 9t14.5 6.5q14 4 28.5 5.5t27.5 3.5
q24 5 49 8.5t48 8.5l141 150.5l150 148.5l123 112.5t140 106.5l45.5 29.5t51.5 29t55.5 24t55.5 15.5q22 4 40 1t22 -16q2 -8 -1.5 -16.5t-10 -18t-15 -18.5l-15.5 -17q-35 -37 -76 -73.5t-85.5 -71.5l-90.5 -70l-90 -69l-140.5 -106l-143.5 -105l-11 -11l181 32q5 1 8.5 1
t9.5 2q9 1 13.5 -2t4 -7.5t-6 -9t-14.5 -5.5l-225 -39l-146 -148l-69 -72l-73.5 -74t-61.5 -76l-2 -5q-2 -4 -3.5 -9.5t-2 -9.5t1.5 -3q0 -3 6 -2.5t14 2t15.5 3.5t9.5 3q38 12 73 32t65 40q67 43 125 89l28 23q7 5 15 13t17 13q12 6 20 1t-1 -13zM752 698l88.5 71l86.5 72
l39.5 34t39.5 36.5t35 37t26 36.5q2 4 5 12.5t-7 7.5t-20.5 -6t-19.5 -10q-27 -17 -48.5 -36l-43.5 -38l-78.5 -70l-78.5 -71l-133 -126l-130 -127l-11 -10z" />
    <glyph glyph-name="Zcaron" unicode="&#x17d;" horiz-adv-x="827" 
d="M842 781l-28.5 -22.5t-34.5 -30t-22.5 -29t8.5 -19.5q17 -8 44 -8.5t51 -0.5q26 1 53.5 2.5t54.5 4.5q55 6 112 16.5t114 24.5l55 14.5t56 16.5q4 1 13 4.5t14 2.5q9 2 15.5 0.5t-3.5 -9.5q-5 -4 -13.5 -5.5t-13.5 -2.5q-95 -23 -176 -64.5t-152.5 -92t-136 -106
l-124.5 -104.5q-69 -56 -142 -108t-155 -100q-60 -35 -120.5 -64l-123.5 -57l44 12q60 14 115.5 18.5t103.5 -6.5q24 -6 43.5 -14t38 -17.5l37 -18.5t39.5 -16q41 -12 88 -15q7 -1 19.5 -1t24 -1t18 -4.5t1.5 -11.5q-5 -7 -17 -12t-27 -9t-29 -6.5t-23 -3.5q-59 -9 -115 -1
q-50 8 -85.5 28t-67.5 41q-35 23 -80 31t-108 -3q-26 -5 -52.5 -11.5t-52.5 -15.5l-16 -7h-1q-5 -1 -9 -1.5t-7 1.5q-7 4 -1 8t15 8h2q6 2 11.5 3.5t8.5 3.5q55 19 103.5 45.5t92 56.5t82.5 62l75 64l117.5 103t125.5 101q91 69 197.5 127.5t226.5 104.5l33 12
q-33 -8 -65 -17t-64 -17l-114 -29t-114 -20q-30 -3 -60.5 -1.5t-52.5 9t-31 22.5t3 39q11 20 35 37.5t51 33.5l34.5 17.5t37.5 16.5q5 2 11.5 3t11.5 0t6 -3.5t-5 -8.5zM1130 835q-11 0 -13 6t-2 11q-2 11 -3 20.5t-3 20.5l-6 34.5t-4 34.5q-1 6 4.5 10.5t13 6t14 0
t7.5 -7.5l4 -33q2 -18 5.5 -35.5t5.5 -35.5l150 67l88 40l18 8q16 7 25.5 0.5t-2.5 -15.5q-11 -7 -25 -12.5t-25 -10.5l-100 -44l-99 -45q-9 -4 -25.5 -12t-27.5 -8z" />
    <glyph glyph-name="zcaron" unicode="&#x17e;" horiz-adv-x="543" 
d="M497 487q-15 -11 -23.5 -22.5t-8 -21t11 -15t32.5 -4.5q55 2 116.5 16t115.5 34q15 5 28.5 11l27.5 12q8 4 16.5 9t16.5 7q16 3 17 -4.5t-10 -13.5q-11 -5 -21 -11l-21 -12l-405 -231l-58 -33l-56 -32l30 -2q54 -8 81 -33q23 -23 28 -55q8 3 17 6t17 7q57 24 108 53.5
t94 63.5q8 5 17.5 14t20.5 8q9 0 11 -4.5t-5 -9.5q-6 -7 -16 -14l-17 -12l-53 -35q-44 -28 -92.5 -50.5t-100.5 -42.5q0 -30 -17 -62q-17 -35 -50 -70.5t-77 -66t-98 -54t-112 -32.5q-24 -4 -51 -5t-51.5 1.5t-44.5 9.5t-31 19q-11 15 -5.5 32t21.5 34.5t39 34t46 29.5
q74 42 155.5 65l165.5 46q8 17 12 34t0.5 32t-16.5 25.5t-39 14.5q-4 1 -13.5 1t-17 1.5t-9 5t10.5 9.5l8 5l138 79l290 165l-19 -9q-48 -23 -102 -43t-105 -22q-44 -1 -71 13t-32 37l-62 -56l-60 -56q-14 -11 -26 -22.5l-23 -22.5q-7 -5 -15.5 -13t-19.5 -8q-10 0 -10.5 4
t4 9.5t11.5 11t10 8.5q36 31 69 63l125 112q6 18 24 36q18 17 45.5 31.5t56.5 20.5q11 2 20.5 0.5t14.5 -6t3.5 -11t-11.5 -13.5zM153 -7q-27 -8 -56 -19t-56.5 -23.5t-52.5 -28t-44 -32.5q-14 -14 -23 -30t2 -27t34 -13.5t45 -0.5q55 4 102 26t84.5 53.5t65 67t43.5 66.5
q-36 -10 -72.5 -19t-71.5 -20zM743 635q-11 0 -13 6t-2 11q-2 11 -3 20.5t-3 20.5l-6 34.5t-4 34.5q-1 6 4.5 10.5t13 6t14 0t7.5 -7.5l4 -33q2 -18 5.5 -35.5t5.5 -35.5l150 67l88 40l18 8q16 7 25.5 0.5t-2.5 -15.5q-11 -7 -25 -12.5t-25 -10.5l-100 -44l-99 -45
q-9 -4 -25.5 -12t-27.5 -8z" />
    <glyph glyph-name="quotesinglbase" unicode="&#x201a;" horiz-adv-x="263" 
d="M129 33q-32 0 -40.5 13.5t0.5 30t32.5 30.5t55.5 14q20 0 30.5 -5.5t13.5 -14t-1 -19t-14 -20.5l-5 -7q-17 -21 -40.5 -42t-50.5 -38q-18 -11 -38 -19.5t-42 -13.5q-7 -1 -8 3t4 9q3 5 11.5 7t13.5 5q28 13 47.5 30t35.5 37h-5z" />
    <glyph glyph-name="quotedblbase" unicode="&#x201e;" horiz-adv-x="398" 
d="M129 33q-32 0 -40.5 13.5t0.5 30t32.5 30.5t55.5 14q20 0 30.5 -5.5t13.5 -14t-1 -19t-14 -20.5l-5 -7q-17 -21 -40.5 -42t-50.5 -38q-18 -11 -38 -19.5t-42 -13.5q-7 -1 -8 3t4 9q3 5 11.5 7t13.5 5q28 13 47.5 30t35.5 37h-5zM279 33q-32 0 -40.5 13.5t0.5 30
t32.5 30.5t55.5 14q20 0 30.5 -5.5t13.5 -14t-1 -19t-14 -20.5l-5 -7q-17 -21 -40.5 -42t-50.5 -38q-18 -11 -38 -19.5t-42 -13.5q-7 -1 -8 3t4 9q3 5 11.5 7t13.5 5q28 13 47.5 30t35.5 37h-5z" />
    <glyph glyph-name="florin" unicode="&#x192;" horiz-adv-x="333" 
d="M162 72q-26 0 -36.5 8t-12.5 19.5t2 24.5t9 24l-199 -214.5t-207 -212.5l-71 -65t-78 -63l-35.5 -26t-41.5 -26t-46 -21t-48 -12q-36 -5 -46 5.5t-3 29.5t26 43t41.5 47.5t43.5 42.5l31 28q75 66 156.5 128.5l167.5 124.5l84.5 61l86.5 59l93 105l95 105l276 293.5
t309 286.5q40 34 86 66t100 59q13 7 37 17.5t48 16.5t42.5 5t21.5 -16q2 -14 -10 -29l-23 -29q-18 -20 -38 -38.5l-42 -38.5l-85.5 -72.5l-89.5 -71.5l-190 -145.5l-194 -143.5l-41 -30l-173 -180l-12 -18q-6 -9 -11 -18q-17 -23 -31.5 -48.5t-10.5 -48.5q3 -15 21 -17
t41.5 3t48 14t40.5 17q51 25 89.5 52.5l75.5 56.5q4 3 9.5 4t10 1t6 -1.5t-1.5 -4.5q-23 -23 -61 -50t-82 -51t-91 -40t-87 -16zM-275 -126l-94 -72t-90 -74q-43 -36 -83 -74t-67 -77q-5 -5 -10.5 -14t-8.5 -17.5t-0.5 -15.5t13.5 -8q17 -1 36.5 6t36.5 15q52 26 92.5 62.5
t74.5 71.5q64 63 120.5 127l113.5 129l89 101l-113 -79zM768 718l67.5 54l67.5 56l80 70t67 74l7.5 10.5t7 12.5t0.5 10.5t-12 4.5q-7 2 -19.5 -3.5t-26 -13.5t-25.5 -16.5l-16 -11.5q-30 -23 -57.5 -47l-56.5 -48l-143.5 -128l-135.5 -130l-155 -156l178 129z" />
    <glyph glyph-name="dagger" unicode="&#x2020;" horiz-adv-x="750" 
d="M990 914l-1 -2q1 1 1 2l5 5q4 6 18.5 6.5t29 -2.5t25.5 -8t8 -10l-9 -9q-3 -3 -6 -8l-11.5 -12t-11.5 -14l-210 -239h68q8 0 7 -9.5t-7 -20.5t-15.5 -20.5t-17.5 -9.5h-87l-171 -195l-419 -480q-1 -2 -2.5 -3.5t-1.5 -2.5l-13.5 -16t-17.5 -17t-23 -13.5t-29 -5.5
q-23 0 -30 5.5t-4.5 14t11 18t16.5 17.5v1l14.5 17t16.5 18l-3 -1l16 17.5t16 18.5l210 240l124 142l123 142l73 83h-73q-8 0 -7.5 8.5t6 19t14 20t16.5 11.5h-3q11 2 23.5 2.5t21.5 -0.5q3 0 5 -0.5t5 -0.5h44l124 140l66.5 74.5z" />
    <glyph glyph-name="daggerdbl" unicode="&#x2021;" horiz-adv-x="750" 
d="M260 153q-8 0 -7.5 8.5t5.5 19t13.5 20t16.5 11.5h-3q11 2 23 2.5t21 -0.5q3 0 5 -0.5t7 -0.5h35l117 133.5l116 133.5l73 83h-73q-8 0 -7.5 8.5t6 19t14 20t16.5 11.5h-3q11 2 23.5 2.5t21.5 -0.5q3 0 5 -0.5t5 -0.5h44l124 140l66 74l65 75q1 1 1 2l5 5q4 6 18.5 6.5
t29 -2.5t25.5 -8t8 -10l-9 -9q-3 -3 -6 -8l-11.5 -12t-11.5 -14l-210 -239h68q8 0 7 -9.5t-7 -20.5t-15.5 -20.5t-17.5 -9.5h-87l-171 -195l-135 -155h76q9 0 8 -9.5t-7 -20.5t-15.5 -20.5t-18.5 -9.5h-96l-231 -265q-1 -2 -2.5 -3.5t-1.5 -2.5l-13.5 -16t-17.5 -17
t-23 -13.5t-29 -5.5q-23 0 -30 5.5t-4.5 14t11 18t16.5 17.5v1l14.5 17t16.5 18l-3 -1l16 17.5t16 18.5l172 197h-64z" />
    <glyph glyph-name="equal" unicode="=" horiz-adv-x="536" 
d="M537 270h-258q-5 0 -9.5 -0.5t-6.5 0.5q-11 0 -13.5 4.5t0.5 10.5t10.5 10.5t18.5 4.5q13 2 26.5 1t26.5 -1h205q5 0 9 0.5t8 -0.5q10 0 13 -4.5t0 -10.5t-11 -10.5t-19 -4.5zM479 190h-258q-5 0 -10 -0.5t-7 0.5q-11 0 -13.5 4.5t0.5 10.5t11 10.5t19 4.5q12 2 26 1
t26 -1h206q5 0 9 0.5t7 -0.5q11 0 13.5 -4.5t-0.5 -10.5t-11 -10.5t-18 -4.5z" />
    <glyph glyph-name="endash" unicode="&#x2013;" horiz-adv-x="816" 
d="M231 223q-8 0 -7.5 8.5t5.5 19t13 20t16 11.5h-3q11 2 23 2.5t22 -0.5q2 0 4.5 -0.5t7.5 -0.5h480q9 0 8 -9.5t-7 -20.5t-15.5 -20.5t-18.5 -9.5h-528z" />
    <glyph glyph-name="emdash" unicode="&#x2014;" horiz-adv-x="1104" 
d="M251 223q-8 0 -7.5 8.5t5.5 19t13 20t16 11.5h-3q11 2 23.5 2.5t21.5 -0.5q3 0 5.5 -0.5t6.5 -0.5h771q8 0 7 -9.5t-7 -20.5t-15.5 -20.5t-17.5 -9.5h-819z" />
    <glyph glyph-name="minus" unicode="&#x2212;" horiz-adv-x="689" 
d="M242 223q-8 0 -7.5 8.5t5.5 19t13.5 20t16.5 11.5h-3q11 2 23 2.5t21 -0.5q3 0 5.5 -0.5t7.5 -0.5h344q8 0 7 -9.5t-7 -20.5t-15.5 -20.5t-17.5 -9.5h-393z" />
    <glyph glyph-name="logicalnot" unicode="&#xac;" horiz-adv-x="693" 
d="M267 269q-8 0 -7.5 8.5t6 19t14 20.5t16.5 12h-3q10 2 22 2h23q3 0 5 -0.5t7 -0.5h345q6 0 6.5 -6t-2.5 -14q11 -1 18 -3.5t5 -6.5q-2 -5 -5.5 -8.5t-5.5 -8.5l-63 -114q-3 -6 -18 -8.5t-32 -2.5t-30 2.5t-10 8.5l55 100h-346z" />
    <glyph glyph-name="ordfeminine" unicode="&#xaa;" horiz-adv-x="557" 
d="M808 483l-103 -71t-117 -58q-24 -8 -45 -11t-30 11q-11 16 -3 37t19 40l10 15q-17 -12 -35 -23l-37 -22q-20 -12 -48.5 -25.5t-56 -21t-49.5 -4.5t-28 23q-6 18 1.5 38.5t23 42t37 42t42.5 37.5t46 35t53.5 33t59.5 25.5t63 13.5q34 4 54 -6.5t18 -30.5q-2 -11 -6 -19
l17 12l23 15.5t28 15.5t30 12t29 4q5 0 6 -2t-1 -4.5t-5 -5t-5 -4.5l-38 -32q-52 -48 -100 -97l-30 -30q-15 -15 -29 -31l-30 -33t-21 -35q-2 -8 8.5 -9t23.5 2q23 5 46 18l41 23l42.5 27.5l40.5 27.5l42 30q7 5 13 2.5t0 -7.5zM653 565q14 16 18 34t-15 26
q-21 7 -46.5 -0.5t-45.5 -20.5q-27 -17 -51 -35.5t-46 -37.5q-25 -20 -47.5 -40.5t-42.5 -41.5l-16.5 -18.5t-16.5 -19.5q-9 -9 -17.5 -20.5t-4.5 -19.5q3 -9 14 -9.5t24.5 2.5t27.5 8.5t23 9.5q31 15 59 32.5t54 35.5l39 27q19 23 41.5 45.5t48.5 42.5z" />
    <glyph glyph-name="exclamdown" unicode="&#xa1;" horiz-adv-x="503" 
d="M-199 -301q87 85 182 167.5l191 165.5l204.5 178.5l206.5 177.5q6 5 15 14t19.5 17.5t21.5 14.5t22 5q14 -1 12 -9t-11 -18.5t-20.5 -20.5t-16.5 -15l-145 -145l-147 -143l-133.5 -130.5l-135.5 -130.5l-82 -79l-84 -77q-20 -17 -45 -21.5t-43 0.5t-23.5 18t12.5 31z
M915 707q32 0 40.5 -14t-0.5 -30.5t-32.5 -30t-55.5 -13.5t-40.5 13.5t0.5 30t32.5 30.5t55.5 14z" />
    <glyph glyph-name="underscore" unicode="_" horiz-adv-x="695" 
d="M35 -55q-8 0 -7.5 8.5t5.5 19t13.5 20t16.5 12.5q11 2 22 2t20 -1h492q9 0 7.5 -9.5t-8 -21t-16 -21t-17.5 -9.5h-528z" />
    <glyph glyph-name="asciicircum" unicode="^" horiz-adv-x="576" 
d="M321 435q-42 0 -47.5 7.5t7.5 18.5t36 22l39 20l9 4q20 10 41 19l41 18l60 26h-1l135 61l7 3q13 6 28 12t28 7.5t23 -3t13 -18.5l9 -61l13 -83q1 -9 -8 -20t-23.5 -18t-30.5 -8.5t-28 8.5q-10 10 -7 20v8q-2 21 -4.5 42t-6.5 44l-4 10l-51 -22l-86 -39q-18 -7 -34 -14
t-32 -15l-46 -20l-11 -6q-14 -8 -33 -15.5t-36 -7.5z" />
    <glyph glyph-name="OE" unicode="&#x152;" horiz-adv-x="1575" 
d="M1728 476q55 -2 114.5 9.5t118 31.5t112.5 47.5t98 58.5q45 32 77.5 70t37.5 75q2 34 -22.5 57.5t-65.5 37.5q-39 14 -88 21.5t-102.5 9t-109.5 -2t-110 -11.5q-120 -18 -236.5 -60.5t-220.5 -100.5l-1 -1q9 -30 5 -63.5t-17.5 -68.5t-34 -70t-44.5 -68
q-67 -92 -161 -175q66 -25 158 -23q8 1 14.5 1t9.5 -2q6 -5 -0.5 -10.5t-15.5 -7.5q-8 -2 -16.5 -1t-15.5 2h-12q-51 0 -103.5 -12.5t-100.5 -33.5t-89 -49.5t-68 -61.5q-31 -38 -28 -69.5t44 -50.5q32 -17 75.5 -22t89.5 -6q56 0 115.5 7t119 21t118 34t112.5 46
q52 25 101 56t81 66q7 8 13 16.5t9 16.5q2 6 4 13.5t16 9.5q13 2 14 -4t-3.5 -14.5t-11.5 -17.5t-10 -12q-32 -36 -78.5 -68t-101.5 -59.5t-114 -50t-115 -38.5q-60 -17 -121 -28.5t-122 -19.5q-48 -6 -96 -10t-93 -1q-51 3 -93 17t-62 42q-18 27 -13 60l-58.5 -27
t-60.5 -25q-50 -19 -102.5 -34.5t-104.5 -23.5t-100 -6.5t-87 15.5q-43 16 -62 44.5t-21.5 63t7.5 72.5t25 72q23 53 60 105.5t84 103.5q60 65 131.5 124.5t159.5 115.5q94 60 200 112t224 81q48 12 94.5 17.5t87.5 2.5t74 -14.5t55 -31.5q98 45 203 75.5t206 44.5
q106 15 208 16.5t193 -11.5q41 -6 79.5 -16.5t67 -28t43 -41.5t6.5 -56q-7 -32 -33 -63.5t-63 -61t-82.5 -55.5t-91.5 -47q-48 -20 -97.5 -36.5t-100.5 -26.5q-26 -5 -53 -8.5t-53 -4.5q-7 0 -13.5 0.5t-6.5 5.5q-1 5 6 9.5t15 4.5zM374 348q-38 -37 -73.5 -76t-64.5 -78.5
t-49.5 -79.5t-27.5 -78q-4 -17 -3.5 -34t6.5 -32t18.5 -27.5t32.5 -20.5q18 -7 41 -8.5t47.5 1t50 8.5t49.5 13q59 18 115 44t108.5 56t100.5 62.5l91 64.5q42 30 80.5 61.5t73.5 63.5q-46 32 -57.5 80.5t14.5 105.5q19 42 52 81t75.5 74.5t94.5 68t109 60.5
q-8 16 -24.5 27.5t-42.5 16.5q-35 7 -80 -0.5t-86 -20.5q-109 -35 -207 -92t-179 -116q-75 -54 -140.5 -110.5t-124.5 -114.5zM1106 424q27 30 53 62t47.5 65t37 65.5t21.5 63.5q-45 -28 -88 -59.5t-79 -65.5t-63 -68.5t-40 -68.5q-12 -30 -9 -54.5t19 -43.5l52 52z
M1022 224q23 5 46 9t46 7q-16 2 -31 5l-29 6z" />
    <glyph glyph-name="perthousand" unicode="&#x2030;" horiz-adv-x="1011" 
d="M483 137q24 25 55.5 47.5t67.5 42.5l37 19t42 18.5t43.5 13.5t41.5 5q34 -1 44.5 -18t10.5 -37v-13l21 12l37 19t42 18.5t43.5 13.5t41.5 5q34 -1 44.5 -18t10.5 -37q2 -25 -9.5 -52t-36.5 -53q-23 -25 -53.5 -47.5t-66.5 -42.5q-34 -18 -77 -36t-82 -20q-33 -2 -47 12
t-16 31q-1 5 -1.5 11t0.5 12l-17 -10q-34 -18 -77 -36t-82 -20q-33 -2 -47 12t-16 31q-5 27 7.5 57.5t38.5 59.5zM624 677q48 51 122 91q35 18 78.5 36t83.5 19q29 0 41 -13t16 -30q5 -29 -8 -60.5t-43 -61.5q-50 -53 -131 -93q-32 -17 -72 -32t-76 -16q-29 0 -42.5 13.5
t-14.5 30.5q-5 27 7 57t39 59zM47 -8q-17 0 -16 5.5t9.5 12.5t20 13.5l16.5 9.5l57.5 34.5t59.5 34.5l192.5 115l192.5 114l374 222.5l375 222.5l48 29q9 6 16.5 5.5t10.5 -4t1 -9t-10 -10.5l-27 -15l-139.5 -83.5l-139.5 -83.5l-837 -496l-70 -41l-70 -42q-5 -3 -13 -8.5
l-17 -11.5t-18 -10t-16 -4zM693 664q-19 -22 -41 -45t-32 -46q-13 -25 7 -35.5t62 7.5q30 13 54.5 31t45.5 38.5t39 41.5l35 39q14 16 28.5 31t25.5 31q7 11 9.5 22t-2.5 18.5t-18 9.5t-37 -5q-30 -9 -55.5 -25.5t-47 -35.5t-39.5 -39.5zM794 124l-46.5 -50t-31.5 -51
q-4 -15 4 -21.5t22 -6.5t32.5 5.5t35.5 15.5q47 26 81 61.5l65 68.5l27.5 29.5t24.5 29.5q8 10 14 23t4.5 23.5t-12.5 15t-37 -2.5q-31 -8 -57.5 -24.5t-49 -36.5t-41.5 -41zM554 124l-46.5 -50t-31.5 -51q-4 -15 4 -21.5t22 -6.5t32.5 5.5t35.5 15.5q47 26 81 61.5l65 68.5
l27.5 29.5t24.5 29.5q8 10 14 23t4.5 23.5t-12.5 15t-37 -2.5q-31 -8 -57.5 -24.5t-49 -36.5t-41.5 -41z" />
    <glyph glyph-name="Scaron" unicode="&#x160;" horiz-adv-x="1239" 
d="M1665 676q54 22 85 54.5t23 64.5q-8 31 -46.5 48t-94.5 11t-100.5 -27t-77.5 -49.5t-55 -61t-35 -62.5q-18 -39 -31.5 -78.5l-26.5 -78.5l-25 -78q-12 -39 -28 -78q-17 -39 -37 -78.5t-47 -78.5t-61 -77t-79 -74q-91 -72 -207 -114.5t-240 -60.5q-60 -9 -121 -14
t-117.5 -2.5t-106 13t-85.5 33.5q-49 30 -65.5 72t-6.5 91t43 101t83.5 101t115.5 92t139 74q54 23 112.5 38.5t116 22.5t112 5.5t100.5 -12.5t77.5 -33.5t42.5 -54.5q10 -32 1 -65q0 -6 -3 -12q-1 -4 -6 -7t-10.5 -4t-10.5 0t-6 5q-2 6 2 14.5t6 15.5q2 18 -0.5 35
t-11.5 31q-17 29 -55 46.5t-88 23.5q-52 6 -109 3t-115 -15t-114.5 -32.5t-108.5 -48.5q-67 -36 -123 -83t-95.5 -97.5t-58.5 -101.5t-12 -94.5t43 -76.5t108 -48q47 -10 104 -10.5t118 6.5t122.5 20.5t117.5 32.5q126 41 208.5 108.5t130.5 144.5q23 39 40.5 77.5t32.5 77
l29 77l29 77.5l32.5 75.5t42 78.5t58 76.5t78.5 70.5q37 27 83.5 47.5t94.5 31.5t93 10.5t79 -16.5v6q-2 11 -3 20.5t-3 20.5l-6 34.5t-4 34.5q-1 6 4.5 10.5t13 6t14 0t7.5 -7.5l4 -33q2 -18 5.5 -35.5t5.5 -35.5l150 67l88 40l18 8q16 7 25.5 0.5t-2.5 -15.5
q-11 -7 -25 -12.5t-25 -10.5l-100 -44l-99 -45l-23 -11t-26 -9q27 -21 31 -51.5t-22 -63.5q-14 -17 -33.5 -32.5t-42.5 -28.5l-17.5 -9t-18.5 -5q-11 0 -10.5 6.5t11.5 11.5z" />
    <glyph glyph-name="scaron" unicode="&#x161;" horiz-adv-x="498" 
d="M524 551q-13 -12 -16.5 -26t-2 -28t5 -27t5.5 -23q5 -21 9 -41.5l8 -41.5q5 -30 4 -62.5t-10 -66.5t-28.5 -68t-52.5 -67q-32 -32 -77.5 -61t-99.5 -43q-24 -6 -48.5 -8.5t-47 -1.5t-42 6t-32.5 14q-18 11 -23.5 26.5t-1 33.5t16.5 36.5t29 35.5q34 35 86 63.5t111 41.5
q39 9 77 9q-1 24 -4 48.5t-4 49.5t1 50.5t10 51.5l-8 -7l-159 -146q-14 -14 -28.5 -26.5t-28.5 -26.5q-7 -6 -17 -15.5t-21 -9.5q-9 0 -10 3.5t3 8.5t10 10t9 8q14 14 29 27.5l31 27.5l164 152l52 48q9 13 22 24.5t31 21.5q14 8 31 13q13 3 18.5 -2t-1.5 -12zM201 181
q-23 -14 -44 -31.5t-35.5 -36.5t-21.5 -37.5t-1 -34.5q4 -11 15.5 -18t27.5 -10t35 -3t39 4q28 5 50 16.5t39.5 26.5t30.5 31.5t23 32.5q16 29 25 57t11 55q-48 2 -98.5 -11.5t-95.5 -40.5zM590 635q-11 0 -13 6t-2 11q-2 11 -3 20.5t-3 20.5l-6 34.5t-4 34.5q-1 6 4.5 10.5
t13 6t14 0t7.5 -7.5l4 -33q2 -18 5.5 -35.5t5.5 -35.5l150 67l88 40l18 8q16 7 25.5 0.5t-2.5 -15.5q-11 -7 -25 -12.5t-25 -10.5l-100 -44l-99 -45q-9 -4 -25.5 -12t-27.5 -8z" />
    <glyph glyph-name="bullet" unicode="&#x2022;" horiz-adv-x="483" 
d="M158 262q11 21 33 39.5t50 32t60 21.5t64 8q31 0 54 -8t36 -21.5t15 -32t-9 -39.5q-12 -21 -34.5 -39.5t-50.5 -32t-59.5 -21.5t-62.5 -8q-32 0 -55 8t-36.5 21.5t-15 32t10.5 39.5z" />
    <glyph glyph-name="trademark" unicode="&#x2122;" horiz-adv-x="636" 
d="M440 376l47 54l47 53l87 96h-9q-10 -1 -20 -1h-19q-14 -10 -27 -21t-24 -22q-16 -17 -29 -34t-29 -34q-15 -18 -35.5 -35.5t-47.5 -30.5q-25 -12 -52 -13t-47 10q0 1 -2 2t-1 2q0 2 5 2q0 -2 4 -2q2 -2 6 -2.5t8 -2.5q26 -6 57 5q28 11 47 28.5t35 34.5q14 16 26.5 32
t29.5 32q25 27 64 50q-5 0 -7 1q-14 2 -27.5 5.5t-22.5 9.5l-25 15q-13 7 -28 11.5t-32 2.5q-18 -1 -33 -7t-26 -16q-21 -23 -7 -43q2 -5 6.5 -8t9.5 -6l14 -4q3 -1 1.5 -2.5t-4.5 -1.5q-24 8 -33.5 24t4.5 36q15 20 44 30t58 6q29 -3 48 -15q7 -3 12 -6.5t12 -7.5
q10 -6 22 -11t26 -7l12 6q13 6 26.5 11t27.5 8q2 0 4.5 0.5t4.5 0.5q2 1 2.5 2t2.5 3q0 2 4 5q2 4 9 5.5t11 -2.5q2 -2 -2 -6t-6 -7l-4 -4q9 -5 1 -13q-10 -8 -23 -11l-25 -26l-60 -66l-58 -63l60 52q31 27 64 53l47 35.5t52 33.5l25 13t28 7q8 0 10.5 -3.5t2 -8.5t-3 -10
t-3.5 -9q-11 -20 -27.5 -39.5t-34.5 -38.5l-27 -28l59 46l47.5 35.5t51.5 33.5q10 6 24 13.5t28 7.5q7 0 9 -3.5t1 -8t-3.5 -9.5t-4.5 -8q-11 -20 -29.5 -39.5t-38.5 -38.5l-42 -40.5l-43 -40.5l-21.5 -19.5t-19.5 -20.5q-1 -2 -6 -7.5t-1 -6.5q5 -1 12 1t10 4
q15 6 27.5 13.5t23.5 15.5q13 8 24.5 17l22.5 17l24 19q0 4 7 6q5 0 2 -3l-3 -3l-47 -37l-25 -16.5l-26 -16.5q-11 -7 -25 -14.5t-29 -8.5q-7 0 -8.5 3t0 7t4 8l4.5 7q7 10 15.5 19.5l17.5 19.5l29.5 30.5t30.5 30.5l83 80q3 5 8 10t8 10q4 3 7 8.5t-2 7.5t-12.5 -1
t-13.5 -5q-15 -6 -27 -14q-26 -16 -50 -33.5t-46 -35.5l-46 -37l-45 -37l-18 -17l-44 -40q-5 -5 -10 -9t-12 -9l-6 -6q-1 -1 -3 -1q-5 -2 -7.5 -1t-0.5 3q-1 3 5 7l10 10l20 21q5 6 11.5 11.5t12.5 11.5l33.5 33l32.5 33q40 40 75 81q5 5 8 10t7 10q2 4 4 8.5t-3 7.5
q-3 3 -9.5 1.5t-14 -4t-14.5 -6t-10 -5.5q-27 -16 -50.5 -33.5l-46.5 -35.5l-51 -42l-50 -43q-11 -11 -23 -21.5t-23 -21.5q-5 -3 -8.5 -6.5t-7.5 -6.5v-1l-10 -10q-1 -2 -2 -3l-2 -2q-4 -4 -10.5 -4t-1.5 5zM624 583l21 24q-9 -1 -19 -4t-17 -6q-13 -5 -27 -14q19 -3 42 0z
M653 590q5 2 10 6.5t0 8.5l-16 -17q2 0 6 2z" />
    <glyph glyph-name="oe" unicode="&#x153;" horiz-adv-x="1050" 
d="M1202 228q-79 -63 -169.5 -119t-203.5 -88q-54 -16 -107 -23t-102 -6q-52 1 -80.5 21t-36.5 50q-2 8 -2.5 16t-0.5 16q-35 -21 -73.5 -40t-78 -33t-80 -22.5t-79.5 -8.5q-50 0 -78 13.5t-39 35.5t-8 51t16 59t32.5 60t40.5 54q29 32 66 63.5t80 60t91.5 52.5t100.5 42
q51 18 103 27t96 1q43 -8 64 -28t25 -49q1 -12 0 -23q36 21 76.5 40.5t82.5 34t84.5 22.5t83.5 8q50 0 76.5 -17t32.5 -42.5t-6.5 -56t-39.5 -58.5q-28 -29 -66.5 -57t-83 -50t-93.5 -36.5t-97 -15.5q-48 -2 -84 10t-47 38q-29 -29 -53 -58.5t-41 -59.5q-9 -16 -14.5 -32
t-3.5 -29.5t13 -23.5t35 -14q47 -8 102.5 1t112 28.5t109 46t93.5 52.5q32 21 61.5 43t56.5 45q8 8 21 16.5t27 3.5q8 -2 0.5 -8.5t-15.5 -12.5zM257 242q-38 -35 -71.5 -73.5t-50.5 -76.5q-6 -13 -8 -27.5t2.5 -26.5t17.5 -19.5t38 -5.5q28 3 56.5 12t55 22t51 28.5
l45.5 29.5q50 33 93 68t81 73q51 48 93 101l25.5 35t22 37.5t9 35.5t-12.5 29q-13 11 -35 11t-47 -7t-49.5 -17.5t-42.5 -20.5q-54 -29 -100.5 -63.5t-88.5 -69.5q-22 -18 -43 -37zM823 216q55 5 106.5 30t92.5 54q22 16 40.5 31.5t36.5 32.5l36 35t28 36q15 27 -2.5 43.5
t-60.5 14.5q-27 -2 -53.5 -11t-51 -22t-47 -28l-41.5 -28q-48 -33 -90.5 -67.5t-82.5 -70.5l-4 -4q1 -23 26 -36t67 -10z" />
    <glyph glyph-name="Ydieresis" unicode="&#x178;" horiz-adv-x="1010" 
d="M1529 832q-22 -11 -40.5 -25l-36.5 -28l-38.5 -31.5t-36.5 -32.5l-76 -71t-69 -72l-92.5 -100.5l-87.5 -100.5l-106.5 -119.5t-112 -118.5t-123.5 -115.5t-140 -110.5q-41 -29 -91.5 -61t-106 -58.5t-113.5 -43.5t-113 -16q-25 1 -47 6.5t-33 16.5q-5 4 -5 10t14 10
q11 3 19.5 -1.5t15.5 -6.5q25 -6 54 -3t58.5 12t58 21.5t52.5 25.5q54 29 101.5 62.5t90 69.5t81.5 73l75 73q66 66 123.5 133l117.5 135q-24 -17 -48.5 -32.5l-49.5 -31.5q-47 -29 -96.5 -55.5t-104.5 -47.5q-21 -8 -45.5 -16t-49 -15t-49.5 -11.5t-47 -5.5
q-29 -2 -46.5 4.5t-26 18t-10 26.5t3.5 32q10 38 38.5 76.5t60.5 75.5q62 72 136 140l149 137l46.5 43t44.5 43l13 13.5t13 15.5t10 15t3 13q-2 5 -14 5h-19q-29 -2 -58.5 -10t-58 -20t-55.5 -26l-51 -27q-56 -31 -106 -64t-98 -69q-5 -3 -13.5 -10.5t-18.5 -14t-20 -10
t-16 2.5q-3 4 0 8.5t9.5 9.5l13.5 10t12 8l96 66t102 62q46 26 96.5 51t104.5 43q17 6 37 11t39.5 8t37 1.5t28.5 -8.5q15 -10 15.5 -26.5t-8 -35.5t-21.5 -38l-23 -34q-27 -39 -62.5 -77l-71.5 -76l-106 -107l-107 -107l-64 -70q-6 -7 -14 -15.5t-14 -17t-9 -17t-1 -14.5
q4 -10 22 -12t34 -1q30 0 61 8.5t62 20.5q116 46 213.5 110.5t184.5 130.5q57 57 119 110.5t131 107.5l90.5 66.5t95.5 64.5q14 10 30.5 19.5t30.5 19.5q6 3 11 6t12 4q12 2 13 -5t-10 -13zM1133 860q-32 0 -41 13.5t0 30t33 30.5t56 14t40.5 -14t-0.5 -30.5t-32.5 -30
t-55.5 -13.5zM1349 860q-32 0 -41 13.5t0 30t33 30.5t56 14t40.5 -14t-0.5 -30.5t-32.5 -30t-55.5 -13.5z" />
    <glyph glyph-name="macron" unicode="&#xaf;" horiz-adv-x="569" 
d="M407 594q-8 0 -7.5 8.5t5.5 19t13.5 20.5t16.5 12h-3q11 2 23 2h21q3 0 5.5 -0.5t7.5 -0.5h330q9 0 8 -9.5t-7 -21t-15.5 -21t-18.5 -9.5h-379z" />
    <glyph glyph-name="degree" unicode="&#xb0;" horiz-adv-x="369" 
d="M458 509q-31 0 -54.5 8t-37 22t-15.5 32.5t9 39.5t33.5 39.5t51 33t61 22.5t63.5 8t54.5 -8t36.5 -22.5t15 -33t-9 -39.5t-33 -39.5t-50.5 -32.5t-61 -22t-63.5 -8zM537 656q-32 0 -55 -14t-32 -31t-1 -30.5t40 -13.5t54.5 13.5t31.5 30.5t1.5 31t-39.5 14z" />
    <glyph glyph-name="brokenbar" unicode="&#xa6;" horiz-adv-x="444" 
d="M390 324q-23 0 -29.5 5.5t-3.5 14t11.5 18.5l15.5 18v1q7 8 16 17t16 18l-2 -1l30 35l66 74.5l44.5 49l28.5 31.5t19 20l16 18.5l21.5 25l35 41l56.5 67.5l-2 -4q5 5 5 7q6 6 21 6.5t30 -2.5t24.5 -8t5.5 -11l-14 -16q-5 -6 -11 -12t-11 -14l-153 -171l-147 -170
q-5 -3 -5 -5q-6 -8 -13.5 -17t-18 -17t-23.5 -13.5t-29 -5.5zM-45 -170q-23 0 -29.5 5.5t-4 14t10.5 18l15 17.5v1l15.5 17l16.5 18l-3 -1l15.5 17.5t14.5 18.5l66 74.5l44.5 49l28.5 31l19 20.5l16 18.5l21.5 25l35 40.5l56.5 67l-2 -3q5 5 5 6q6 6 21 6.5t30 -2.5t24.5 -8
t5.5 -11q-4 -5 -8 -8t-6 -7q-5 -7 -11 -12.5t-11 -13.5l-153 -172l-147 -169q-5 -5 -5 -6q-6 -7 -13 -16t-17 -17t-22.5 -13.5t-28.5 -5.5z" />
    <glyph glyph-name="plusminus" unicode="&#xb1;" horiz-adv-x="519" 
d="M297 141q-21 0 -28.5 5t-6 13t9 17.5t15.5 17.5l26 29h-65q-8 0 -7.5 8.5t5.5 19t13 20t16 11.5h-3q10 2 22 2.5t23 -0.5q3 0 5 -0.5t7 -0.5h38l1 1l31 35q0 1 1 2l4 4q10 12 24.5 25.5t39.5 16.5q28 1 37 -4.5t7.5 -14t-10 -18.5t-16.5 -17v-2l-26 -28h74q9 0 8 -9.5
t-7 -20.5t-15.5 -20.5t-18.5 -9.5h-96q-8 -9 -15 -18t-15 -18v2q-2 -2 -4.5 -5t-2.5 -4q-11 -13 -26.5 -26t-44.5 -13zM120 66q-8 0 -7.5 8.5t5.5 19t13 20t16 11.5h-3q11 2 23.5 2.5t21.5 -0.5q4 0 5.5 -0.5t5.5 -0.5h205q9 0 8 -9.5t-7 -20.5t-15 -20.5t-17 -9.5h-254z
" />
    <glyph glyph-name="multiply" unicode="&#xd7;" horiz-adv-x="519" 
d="M471 215q8 -11 10 -22t-23 -25q-20 -12 -33.5 -14.5t-22.5 0.5t-14 10t-8 13q-1 0 -3 2l-2 2l-14 22l-7 -4l-33 -18v-2q-5 -2 -9 -4.5t-6 -4.5q-8 -4 -20 -0.5t-22 10t-15 14t2 12.5l17.5 10.5l18.5 10.5l9 4l34 20l-21 33q-3 4 -5.5 10t-3 12.5t2 13.5t11.5 14
q24 15 38.5 18t23 -1t13 -11.5t9.5 -14.5l-2 2l2 -5l16 -22l11 6l42 24l10 6l6 4q7 2 18.5 -2t20.5 -10.5t12.5 -14t-3.5 -11.5l-86 -50q5 -8 10 -15l10 -14v-4q2 2 3.5 0t2.5 -4z" />
    <glyph glyph-name="divide" unicode="&#xf7;" horiz-adv-x="591" 
d="M257 29q-43 0 -54 17t0 39q13 21 43 39t73 18q41 0 53 -18t-1 -39q-11 -22 -42 -39t-72 -17zM503 353q-43 0 -53 17.5t1 38.5q12 21 41.5 39t72.5 18q41 0 53 -18t-1 -39q-11 -21 -42 -38.5t-72 -17.5zM200 223q-8 0 -7.5 8.5t5.5 19t13.5 20t16.5 11.5h-3q11 2 23 2.5
t21 -0.5q3 0 5.5 -0.5t7.5 -0.5h344q8 0 7 -9.5t-7 -20.5t-15.5 -20.5t-17.5 -9.5h-393z" />
    <glyph glyph-name="twosuperior" unicode="&#xb2;" horiz-adv-x="390" 
d="M430 468q-31 1 -41.5 14.5t-8.5 32t12.5 39.5t21.5 36q26 38 70 76t104 61q26 10 53.5 15.5t53.5 3.5q28 -2 41.5 -14.5t10.5 -31.5q-2 -19 -14 -39t-30 -40t-39.5 -39t-43.5 -36q-96 -75 -221 -131q-21 -10 -42 -19t-44 -17l25 4t25 3q23 2 46 -2.5t26 -19.5
q2 -5 -2 -13q-5 -8 -17 -9.5t-14 5.5q-2 -2 -12.5 0t-12.5 3q-20 4 -48 6q-52 5 -110 -6l-14 -3q-5 -2 -9.5 -2.5t-6.5 2.5q-2 2 0.5 5t7.5 5t9.5 2t9.5 2l34 9q32 10 61.5 23t57.5 27q57 29 106 64t92 71q23 19 43.5 38.5t39.5 39.5l15 18t14.5 20.5t9 20t-1.5 16.5
q-5 7 -18 8.5t-26 0.5q-18 -1 -37 -5.5t-36 -12.5q-38 -16 -68 -39t-53 -46q-23 -24 -38.5 -50.5t-14.5 -49.5q0 -11 6 -20.5t23 -11.5q5 -1 10.5 -0.5t7.5 -3.5q3 -3 -2.5 -6.5t-10.5 -3.5z" />
    <glyph glyph-name="threesuperior" unicode="&#xb3;" horiz-adv-x="426" 
d="M557 746h7q6 0 9 -1t8 -2q15 -4 32 -4.5t34 -1.5q18 0 37 0.5t38 1.5q9 1 17.5 1.5t16.5 2.5q5 0 15.5 2.5t13.5 0.5q2 -2 -3.5 -7t-13.5 -10t-16 -9.5t-11 -5.5l-67 -38l-54 -29l-55 -28q20 0 36.5 -5.5t26.5 -14.5q14 -13 14.5 -30t-7.5 -36q-18 -39 -60.5 -75.5
t-95.5 -62.5q-38 -19 -81.5 -30.5t-83.5 -12.5q-28 -1 -48 6.5t-26 24.5t2.5 37.5t24.5 40.5t37.5 38t47.5 32q24 15 51 22q6 2 13 3.5t12 -0.5q6 -2 2 -5.5t-9 -5.5q-27 -12 -47.5 -31.5t-35.5 -36.5q-17 -18 -30 -39t-13 -39q0 -14 13 -21.5t32 -9.5q26 -2 54.5 6t53.5 21
q53 28 87.5 70t42.5 80q5 16 3 31.5t-21 23.5q-9 4 -21 6q-3 1 -6.5 1.5t-2.5 3.5q1 2 5.5 4.5t6.5 4.5l21 13l92 51.5t95 48.5l-63 -12t-61 -8q-22 -2 -43.5 -2t-37.5 5t-13 17q1 5 9.5 9t15.5 4z" />
    <glyph glyph-name="onesuperior" unicode="&#xb9;" horiz-adv-x="350" 
d="M305 479q26 11 50 24l47 26l53 32t51 33q17 11 33 22.5l33 23.5q15 14 31.5 26.5l33.5 25.5l20.5 15.5l19.5 15.5h1l4 4l7 5q3 3 8 3t6 -3q1 -2 -3 -5.5t-6 -5.5l-41 -40l-78 -78l-156 -156l-33 -34t-36 -33q-8 -6 -17.5 -12t-19.5 -11q-10 -4 -16 -2t-5 8q3 16 16 32
t29 32l72 69l96 86l-5 -3l-54.5 -35t-56.5 -33l-33 -17l-33 -16l-10.5 -5.5t-11.5 -1.5q-3 2 -1.5 4t5.5 4z" />
    <glyph glyph-name="ordmasculine" unicode="&#xba;" horiz-adv-x="350" 
d="M310 560q32 45 81 86.5t106 66.5q28 12 57 18.5t53 0.5q24 -5 36 -19t14 -35q2 -22 -5 -46t-20.5 -48t-32.5 -47.5t-40 -44.5t-48 -42.5t-57 -39.5t-62 -29.5t-62 -11.5q-42 0 -57 20.5t-12.5 49.5t17 62t32.5 59zM367 545q-21 -25 -39 -52t-28 -54q-3 -9 -4.5 -19
t1 -18.5t10 -13.5t21.5 -4q32 4 61.5 24.5t53.5 40.5q53 44 96 98q15 17 28 35t24 36l13.5 24.5t12.5 26.5t5 24.5t-7 20.5q-7 8 -19 7.5t-26 -5t-27.5 -12t-23.5 -14.5q-30 -20 -56 -44t-49 -49z" />
    <glyph glyph-name="questiondown" unicode="&#xbf;" horiz-adv-x="711" 
d="M624 72q-26 -35 -59.5 -71.5t-75 -71.5t-90 -65.5t-102.5 -52.5q-57 -23 -119.5 -35t-117.5 -10q-54 3 -81 26t-27 57q-1 36 19.5 74.5t55.5 76t80.5 73t94.5 65.5t104 56.5t112 48.5q50 19 100.5 34t99.5 37q52 24 96.5 54t81.5 63q36 30 60 61q0 1 1 2t2 3q3 4 8.5 6.5
t11 2.5t9 -2t3.5 -6q0 -5 -6.5 -10.5t-8.5 -9.5l-35.5 -36t-38.5 -35q-39 -34 -84 -65.5t-97 -58.5q-45 -23 -92.5 -42t-92.5 -42q-55 -29 -104.5 -61t-96.5 -67q-44 -35 -83.5 -71.5t-72.5 -74.5l-25 -32.5t-20 -34t-5.5 -31.5t17.5 -25q15 -9 36 -12.5t45.5 -3t50 5
t48.5 11.5q50 14 94.5 38t82.5 50q40 28 75.5 58.5t64.5 62.5l24.5 28.5l23.5 28.5q3 5 7 8.5t12 5.5t12.5 -2t1.5 -9zM1107 759q31 0 39.5 -14t-0.5 -30.5t-32 -30t-55 -13.5t-41 13.5t0 30t33 30.5t56 14z" />
    <glyph glyph-name="eth" unicode="&#xf0;" horiz-adv-x="693" 
d="M791 767q-2 4 2 8t10 7q12 3 17.5 -1l9.5 -7q12 -9 21.5 -19t17.5 -21q19 -26 27 -53l88 32q8 4 20 7q9 3 15 1.5t8 -5t-1.5 -8.5t-12.5 -8q-28 -11 -56 -20.5t-55 -20.5l4 -24q5 -51 -10 -106t-44 -110q-41 -78 -106.5 -154.5t-160.5 -145.5q-39 -28 -92 -59.5
t-110 -54.5t-112.5 -31t-99.5 11q-40 17 -60.5 44t-25 59t5.5 68t32 71q23 38 59 75t81.5 71t99.5 62.5t113 49.5q27 9 55.5 16t56 9.5t51.5 -0.5t42 -13q29 -18 37.5 -45t3.5 -57q38 60 62 118t30 114l-65 -24q-5 -2 -10 -3.5t-10 -3.5q-9 -3 -15 -1.5t-8 5t1.5 8.5t12.5 9
q11 6 26.5 10t27.5 9l41 16q1 30 -4.5 59t-19.5 56zM702 426q-2 13 -11 26t-24.5 22t-37 11.5t-48.5 -3.5t-52.5 -17t-49 -24.5t-44 -29l-37.5 -29.5q-45 -34 -84.5 -69t-73.5 -71q-30 -31 -56.5 -66t-38 -68t-2.5 -61t51 -45q31 -13 65 -9t68.5 18t68 36t63 46.5t53.5 48
l40 40.5q36 38 70 78t64 82q11 22 15.5 43t0.5 41z" />
    <glyph glyph-name="Thorn" unicode="&#xde;" horiz-adv-x="1133" 
d="M338 227q-59 1 -101.5 16t-65.5 40.5t-24 60t23 74.5q23 39 63 73t91 62.5t109.5 50t117.5 36.5q94 23 186.5 33t181.5 10l43 42l44 44l41.5 40t35.5 28q13 8 27 9.5t24 -2t13 -10.5t-5 -17q-23 -29 -55 -63.5l-68 -72.5q48 -3 91 -11.5t79.5 -22.5t64 -34t44.5 -47
q18 -30 19.5 -65.5t-12 -73t-40 -75t-63.5 -73.5q-36 -35 -80.5 -66.5t-95 -58.5t-105.5 -49.5t-112 -40.5q-119 -37 -243 -52q-29 -4 -57 -6.5t-57 -3.5q-5 0 -11.5 -0.5t-13 -0.5t-12 0.5t-8.5 2.5q-4 5 3 11.5t18 6.5q109 -2 223.5 24t218.5 80q69 36 129 81.5t104.5 95
t70 99.5t25 95t-30 81.5t-94.5 58.5q-18 6 -38 10l-42 8l-62.5 -65.5l-62.5 -63.5l-110 -110l-158 -155l-163 -154l-82 -76.5l-84 -76.5l-84 -71q-8 -6 -18 -15t-21 -17.5t-23.5 -15t-24.5 -7.5q-16 -1 -21 3t-4 11t6 15t11 14l33 39.5l35 39.5l73.5 79l74.5 78l190.5 186.5
l195.5 185.5l98.5 92.5l102.5 91.5q-52 2 -106.5 -1.5t-108.5 -10.5q-57 -7 -117 -20.5t-117.5 -33.5t-110 -48t-93.5 -64q-26 -23 -44.5 -48t-26.5 -50t-5 -48t19 -42q30 -36 98 -47l36 -3q8 0 17.5 0.5t16.5 -1.5q10 -3 3 -11t-19 -8z" />
    <glyph glyph-name="germandbls" unicode="&#xdf;" horiz-adv-x="579" 
d="M-89 -170q53 -4 109 8.5t109 35t99.5 53t80.5 63.5q18 17 39 42t39.5 51.5t30.5 54t12 50t-15 38t-52 20.5q-25 2 -45 -1q-5 -1 -11 -2.5t-11.5 -2.5t-10 -1t-7.5 2q-5 0 -7 -1l-54 -57l-56 -56l-56.5 -54t-62.5 -53q-28 -22 -62 -41q-5 -3 -14 -6.5t-17 -5t-13 -0.5
t-2 9q10 26 28.5 52t39.5 52l46.5 60t49.5 59l97 105l101 103q75 75 158.5 148.5t180.5 142.5q45 32 94.5 58.5t109.5 44.5q25 7 53.5 13t54.5 7t48 -4t33 -19q10 -14 10.5 -31t-5 -36t-15 -38.5t-19.5 -36.5q-23 -39 -53 -77.5t-70 -75.5q-78 -71 -181 -126.5t-221 -92.5
l-40 -11.5l-40 -10.5q38 -5 64 -20.5t39 -38.5q18 -30 16 -65.5t-21.5 -72t-55 -72.5t-82.5 -67q-59 -38 -129 -64.5t-142 -38.5q-38 -7 -72.5 -9.5t-69.5 -3.5q-11 -1 -25 -2t-23 1q-7 1 -7.5 4.5t2.5 7.5t9.5 6.5t13.5 2.5zM725 465q48 35 92 72t85 75l37 36.5t34 39.5
t23.5 40t7.5 38q-1 15 -12.5 22t-28.5 7.5t-38 -5.5t-41 -17q-26 -14 -48 -29.5t-42 -31.5l-50.5 -35.5t-50.5 -36.5q-94 -72 -174 -148l-156 -154l-76 -80q8 2 17.5 3.5t18.5 2.5q59 10 113.5 31t104.5 48t96 58.5t88 63.5z" />
    <glyph glyph-name="thorn" unicode="&#xfe;" horiz-adv-x="597" 
d="M-434 -427q42 49 78 97.5t78 97.5l61 72l62 72l208 241l105.5 118.5l107.5 118.5l145.5 150.5l151.5 148.5l78 73.5l82 72.5l85.5 69t97.5 64l42.5 23.5t49 23t50.5 16.5t47 4q19 -2 25 -9.5t3.5 -18t-11.5 -23.5t-20.5 -25.5t-23 -23.5l-19.5 -19q-79 -75 -171.5 -146
l-185.5 -142l-109.5 -82l-109.5 -81l-120 -126l62.5 41l64.5 40q24 14 56 30t66.5 29.5t68 22.5t62 10t49 -8.5t28.5 -33.5q10 -32 -3.5 -69t-41.5 -75.5t-66 -75.5t-76 -68q-37 -30 -83 -62t-97 -59t-106.5 -46t-112.5 -25q-30 -3 -55 0t-42.5 12t-26.5 23t-7 32q0 2 1 4
l-69.5 -74l-69.5 -74l-98.5 -102.5l-101.5 -101.5l-52 -49.5l-54 -48.5l-25 -21t-26 -20q-6 -4 -13.5 -6.5t-13 -2.5t-8 3t2.5 9zM144 18q19 -6 40 -5.5t43 6.5t43 15.5t39 21.5q48 30 91.5 63.5l82.5 66.5l84 72.5t77 74.5q16 17 30.5 34l29.5 34l15 17.5t14.5 19.5t9.5 19
t1 17q-5 15 -24.5 16.5t-44.5 -4.5t-51 -16t-42 -17q-54 -26 -104 -57.5l-98 -63.5l-44 -31.5t-43 -32.5q-8 -6 -15.5 -13t-15.5 -13l-131 -141q-15 -25 -15 -49t28 -34zM594 569l189 144.5t177 147.5l39.5 36t37.5 37q7 7 15 16l15.5 18t12 17.5t3.5 16.5q0 6 -10.5 3
t-23 -10t-24 -14.5l-14.5 -9.5l-40.5 -34l-38.5 -34l-163.5 -148t-156.5 -149l-85 -86z" />
    <glyph glyph-name="mu" unicode="&#xb5;" horiz-adv-x="762" 
d="M-509 -349q-10 1 -10 6t5.5 11t13 12l11.5 9l137.5 123l115 101l97 85l86 74.5l81 70l80.5 71.5q34 35 71.5 69l77.5 68l84.5 70.5t93.5 68.5q5 4 17 11t24 12t21.5 5t9.5 -11q0 -7 -7.5 -14.5t-14.5 -12.5q-9 -11 -19.5 -21l-21.5 -21l-42.5 -40l-44.5 -40l-84 -78
l-82 -78l-74.5 -71.5t-65.5 -73.5q-4 -6 -9.5 -13.5t-8.5 -15t-2 -13.5t10 -8q14 -5 33.5 -1t36.5 9q59 17 111.5 48.5l100.5 61.5q88 57 168.5 116.5l157.5 121.5l51 45.5l52 45.5l30.5 28.5t33.5 25.5q11 5 21.5 6t17.5 -4q7 -6 -0.5 -15.5t-14.5 -17.5l-66.5 -72
l-68.5 -72l-89.5 -96l-84.5 -96l-39.5 -47t-33.5 -48q-4 -7 -7 -14t-2 -12.5t6 -9.5t16 -5q16 -2 32.5 1t32.5 9t31.5 13t29.5 14q34 17 65.5 34.5t62.5 37.5l60.5 40.5l59.5 40.5l30.5 21.5l29.5 21.5q8 6 14.5 2.5t-1.5 -10.5l-87.5 -63.5t-94 -63t-101 -57.5t-108.5 -46
q-21 -7 -42 -12t-38.5 -5t-30.5 5.5t-18 19.5q-6 16 -2 34t13 37.5t21.5 38.5t25.5 36l46 59q24 29 52 58l-43 -32l-44 -32l-96 -66.5t-99 -63.5l-49.5 -27.5t-54.5 -27t-56.5 -23t-55.5 -14.5q-27 -5 -43.5 -0.5t-23.5 14.5t-7 23.5t6 28.5q4 10 9 19l9 19l-450 -395
q-5 -4 -12.5 -11.5t-16.5 -15t-18.5 -12.5t-17.5 -4z" />
    <glyph glyph-name="mu" unicode="&#x3bc;" horiz-adv-x="762" 
d="M-509 -349q-10 1 -10 6t5.5 11t13 12l11.5 9l137.5 123l115 101l97 85l86 74.5l81 70l80.5 71.5q34 35 71.5 69l77.5 68l84.5 70.5t93.5 68.5q5 4 17 11t24 12t21.5 5t9.5 -11q0 -7 -7.5 -14.5t-14.5 -12.5q-9 -11 -19.5 -21l-21.5 -21l-42.5 -40l-44.5 -40l-84 -78
l-82 -78l-74.5 -71.5t-65.5 -73.5q-4 -6 -9.5 -13.5t-8.5 -15t-2 -13.5t10 -8q14 -5 33.5 -1t36.5 9q59 17 111.5 48.5l100.5 61.5q88 57 168.5 116.5l157.5 121.5l51 45.5l52 45.5l30.5 28.5t33.5 25.5q11 5 21.5 6t17.5 -4q7 -6 -0.5 -15.5t-14.5 -17.5l-66.5 -72
l-68.5 -72l-89.5 -96l-84.5 -96l-39.5 -47t-33.5 -48q-4 -7 -7 -14t-2 -12.5t6 -9.5t16 -5q16 -2 32.5 1t32.5 9t31.5 13t29.5 14q34 17 65.5 34.5t62.5 37.5l60.5 40.5l59.5 40.5l30.5 21.5l29.5 21.5q8 6 14.5 2.5t-1.5 -10.5l-87.5 -63.5t-94 -63t-101 -57.5t-108.5 -46
q-21 -7 -42 -12t-38.5 -5t-30.5 5.5t-18 19.5q-6 16 -2 34t13 37.5t21.5 38.5t25.5 36l46 59q24 29 52 58l-43 -32l-44 -32l-96 -66.5t-99 -63.5l-49.5 -27.5t-54.5 -27t-56.5 -23t-55.5 -14.5q-27 -5 -43.5 -0.5t-23.5 14.5t-7 23.5t6 28.5q4 10 9 19l9 19l-450 -395
q-5 -4 -12.5 -11.5t-16.5 -15t-18.5 -12.5t-17.5 -4z" />
    <glyph glyph-name="paragraph" unicode="&#xb6;" horiz-adv-x="603" 
d="M233 413q27 29 68 55t87.5 45.5t95.5 31.5t94 13q2 0 4.5 0.5t4.5 0.5h274q9 0 11.5 -4t0 -8.5t-9 -8.5t-15.5 -4h-86l-36 -41l-559 -640l-9 -12q-6 -8 -13.5 -15.5t-16 -13.5t-17.5 -6q-11 0 -12 4.5t3 10.5t10.5 12.5t9.5 10.5l64 75l80 91.5l54.5 62l37.5 43l28.5 33
l28.5 33l37.5 43l54.5 62l80 91.5l68 77l67 79h-139l-26 -31l-100 -114l-74.5 -84.5l-57.5 -65.5l-48.5 -56l-48.5 -56l-57 -65.5l-74 -84.5l-99 -114l-9 -12q-6 -8 -13 -15.5t-15.5 -13.5t-17.5 -6q-11 0 -12.5 4.5t2.5 10.5t10 12.5t9 10.5l33 37.5t32 37.5l86 98.5
l56.5 64.5l37.5 43.5l30 35.5l34 40l50 57q-45 0 -73.5 11.5t-39 31t-2.5 46t37 56.5z" />
    <glyph glyph-name="periodcentered" unicode="&#xb7;" horiz-adv-x="273" 
d="M188 263q6 10 17 19.5t25.5 16.5t30.5 11t32 4q32 0 45.5 -15t2.5 -36q-6 -11 -17 -20t-25 -16t-30 -11t-32 -4q-32 0 -46 15t-3 36z" />
    <glyph glyph-name="Agrave" unicode="&#xc0;" 
d="M-62 -129l345.5 305l367.5 298l189 141.5t200 135.5l104.5 63.5t112.5 58.5q48 22 102.5 41t106.5 21q27 1 42 -7t21 -21t5 -28.5t-4 -30.5q-9 -39 -28.5 -79t-46.5 -80q-51 -81 -118.5 -161.5l-139.5 -159.5l-146 -156l-155 -155l-79.5 -76.5t-85.5 -75.5
q-37 -32 -86 -62q-11 -8 -26.5 -16.5t-31.5 -5.5q-10 2 -11 8.5t2.5 14t9 15.5l9.5 14q14 20 30.5 39.5l34.5 39.5l75 77.5l76 77.5l65 66l65 67q-88 -10 -175 -17t-175 -15q-56 -5 -110.5 -9l-111.5 -8q-6 0 -18.5 -1.5t-22.5 -1.5l-58 -50l-89 -76l-87 -76l-81 -73
q-5 -4 -14 -14t-20 -20t-22 -17t-19 -4q-13 3 -2 13zM356 204l109 12l44 4l43 4l102 9.5l101 9.5l103 8l49 4l49 4h6l77.5 80l76.5 81l112.5 120l106.5 121l67 77t58 79l16 28t12 31.5t-3.5 26.5t-30.5 12q-27 1 -56 -5.5t-58 -17t-56 -24.5l-51 -25q-57 -29 -108 -60
l-102 -64q-104 -68 -200.5 -139l-189.5 -144l-144.5 -116l-140.5 -117q4 1 8 1zM1638 948l-154.5 31l-154.5 31q-14 3 -19 10.5t-1 16.5t15.5 17t30.5 11q14 2 27.5 -2.5l24.5 -8.5l177 -59l66 -21q2 -1 5.5 -1.5t5.5 -2.5q7 -2 7 -6t-4 -8t-11 -7t-15 -1z" />
    <glyph glyph-name="Aacute" unicode="&#xc1;" 
d="M-62 -129l345.5 305l367.5 298l189 141.5t200 135.5l104.5 63.5t112.5 58.5q48 22 102.5 41t106.5 21q27 1 42 -7t21 -21t5 -28.5t-4 -30.5q-9 -39 -28.5 -79t-46.5 -80q-51 -81 -118.5 -161.5l-139.5 -159.5l-146 -156l-155 -155l-79.5 -76.5t-85.5 -75.5
q-37 -32 -86 -62q-11 -8 -26.5 -16.5t-31.5 -5.5q-10 2 -11 8.5t2.5 14t9 15.5l9.5 14q14 20 30.5 39.5l34.5 39.5l75 77.5l76 77.5l65 66l65 67q-88 -10 -175 -17t-175 -15q-56 -5 -110.5 -9l-111.5 -8q-6 0 -18.5 -1.5t-22.5 -1.5l-58 -50l-89 -76l-87 -76l-81 -73
q-5 -4 -14 -14t-20 -20t-22 -17t-19 -4q-13 3 -2 13zM356 204l109 12l44 4l43 4l102 9.5l101 9.5l103 8l49 4l49 4h6l77.5 80l76.5 81l112.5 120l106.5 121l67 77t58 79l16 28t12 31.5t-3.5 26.5t-30.5 12q-27 1 -56 -5.5t-58 -17t-56 -24.5l-51 -25q-57 -29 -108 -60
l-102 -64q-104 -68 -200.5 -139l-189.5 -144l-144.5 -116l-140.5 -117q4 1 8 1zM1313 955l189.5 46l191.5 46q16 4 29 1.5t18.5 -9t2 -16t-20.5 -18.5q-14 -8 -32 -11l-31 -4l-243 -40l-86 -14l-18 -3q-17 -3 -17.5 7t17.5 15z" />
    <glyph glyph-name="Acircumflex" unicode="&#xc2;" 
d="M-62 -129l345.5 305l367.5 298l189 141.5t200 135.5l104.5 63.5t112.5 58.5q48 22 102.5 41t106.5 21q27 1 42 -7t21 -21t5 -28.5t-4 -30.5q-9 -39 -28.5 -79t-46.5 -80q-51 -81 -118.5 -161.5l-139.5 -159.5l-146 -156l-155 -155l-79.5 -76.5t-85.5 -75.5
q-37 -32 -86 -62q-11 -8 -26.5 -16.5t-31.5 -5.5q-10 2 -11 8.5t2.5 14t9 15.5l9.5 14q14 20 30.5 39.5l34.5 39.5l75 77.5l76 77.5l65 66l65 67q-88 -10 -175 -17t-175 -15q-56 -5 -110.5 -9l-111.5 -8q-6 0 -18.5 -1.5t-22.5 -1.5l-58 -50l-89 -76l-87 -76l-81 -73
q-5 -4 -14 -14t-20 -20t-22 -17t-19 -4q-13 3 -2 13zM356 204l109 12l44 4l43 4l102 9.5l101 9.5l103 8l49 4l49 4h6l77.5 80l76.5 81l112.5 120l106.5 121l67 77t58 79l16 28t12 31.5t-3.5 26.5t-30.5 12q-27 1 -56 -5.5t-58 -17t-56 -24.5l-51 -25q-57 -29 -108 -60
l-102 -64q-104 -68 -200.5 -139l-189.5 -144l-144.5 -116l-140.5 -117q4 1 8 1zM1330 927q-16 -1 -13 8t16 15l14 6q7 3 14 7q29 12 56 24.5l55 24.5q27 13 55 25l55 24q6 3 15 7t18 7t16 2.5t8 -7.5q3 -29 8 -57l10 -57q1 -5 -0.5 -10t-10.5 -10q-16 -7 -22 -2.5t-8 11.5
l-10 65l-5 35l-133 -60l-89 -40l-24 -11t-25 -7z" />
    <glyph glyph-name="Atilde" unicode="&#xc3;" 
d="M-62 -129l345.5 305l367.5 298l189 141.5t200 135.5l104.5 63.5t112.5 58.5q48 22 102.5 41t106.5 21q27 1 42 -7t21 -21t5 -28.5t-4 -30.5q-9 -39 -28.5 -79t-46.5 -80q-51 -81 -118.5 -161.5l-139.5 -159.5l-146 -156l-155 -155l-79.5 -76.5t-85.5 -75.5
q-37 -32 -86 -62q-11 -8 -26.5 -16.5t-31.5 -5.5q-10 2 -11 8.5t2.5 14t9 15.5l9.5 14q14 20 30.5 39.5l34.5 39.5l75 77.5l76 77.5l65 66l65 67q-88 -10 -175 -17t-175 -15q-56 -5 -110.5 -9l-111.5 -8q-6 0 -18.5 -1.5t-22.5 -1.5l-58 -50l-89 -76l-87 -76l-81 -73
q-5 -4 -14 -14t-20 -20t-22 -17t-19 -4q-13 3 -2 13zM356 204l109 12l44 4l43 4l102 9.5l101 9.5l103 8l49 4l49 4h6l77.5 80l76.5 81l112.5 120l106.5 121l67 77t58 79l16 28t12 31.5t-3.5 26.5t-30.5 12q-27 1 -56 -5.5t-58 -17t-56 -24.5l-51 -25q-57 -29 -108 -60
l-102 -64q-104 -68 -200.5 -139l-189.5 -144l-144.5 -116l-140.5 -117q4 1 8 1zM1346 994q33 21 72 40t80 29q43 11 75 3t46 -29q8 -13 21.5 -21t41.5 -4q23 2 46 10t44 17q4 2 10 3.5t10.5 1.5t6 -2t-2.5 -7q-5 -7 -18.5 -13.5t-21.5 -11.5q-20 -10 -40 -18.5t-41 -14.5
q-45 -13 -81 -8t-53 25q-6 7 -11 13.5t-12.5 11t-19.5 5.5t-30 -2q-22 -4 -44 -12l-42 -16q-5 -3 -13 -7t-14 -6q-10 -2 -13.5 3t4.5 10z" />
    <glyph glyph-name="Adieresis" unicode="&#xc4;" 
d="M-62 -129l345.5 305l367.5 298l189 141.5t200 135.5l104.5 63.5t112.5 58.5q48 22 102.5 41t106.5 21q27 1 42 -7t21 -21t5 -28.5t-4 -30.5q-9 -39 -28.5 -79t-46.5 -80q-51 -81 -118.5 -161.5l-139.5 -159.5l-146 -156l-155 -155l-79.5 -76.5t-85.5 -75.5
q-37 -32 -86 -62q-11 -8 -26.5 -16.5t-31.5 -5.5q-10 2 -11 8.5t2.5 14t9 15.5l9.5 14q14 20 30.5 39.5l34.5 39.5l75 77.5l76 77.5l65 66l65 67q-88 -10 -175 -17t-175 -15q-56 -5 -110.5 -9l-111.5 -8q-6 0 -18.5 -1.5t-22.5 -1.5l-58 -50l-89 -76l-87 -76l-81 -73
q-5 -4 -14 -14t-20 -20t-22 -17t-19 -4q-13 3 -2 13zM356 204l109 12l44 4l43 4l102 9.5l101 9.5l103 8l49 4l49 4h6l77.5 80l76.5 81l112.5 120l106.5 121l67 77t58 79l16 28t12 31.5t-3.5 26.5t-30.5 12q-27 1 -56 -5.5t-58 -17t-56 -24.5l-51 -25q-57 -29 -108 -60
l-102 -64q-104 -68 -200.5 -139l-189.5 -144l-144.5 -116l-140.5 -117q4 1 8 1zM1402 933q-32 0 -41 13.5t0 30t33 30.5t56 14t40.5 -14t-0.5 -30.5t-32.5 -30t-55.5 -13.5zM1618 933q-32 0 -41 13.5t0 30t33 30.5t56 14t40.5 -14t-0.5 -30.5t-32.5 -30t-55.5 -13.5z" />
    <glyph glyph-name="Aring" unicode="&#xc5;" 
d="M-62 -129l345.5 305l367.5 298l189 141.5t200 135.5l104.5 63.5t112.5 58.5q48 22 102.5 41t106.5 21q27 1 42 -7t21 -21t5 -28.5t-4 -30.5q-9 -39 -28.5 -79t-46.5 -80q-51 -81 -118.5 -161.5l-139.5 -159.5l-146 -156l-155 -155l-79.5 -76.5t-85.5 -75.5
q-37 -32 -86 -62q-11 -8 -26.5 -16.5t-31.5 -5.5q-10 2 -11 8.5t2.5 14t9 15.5l9.5 14q14 20 30.5 39.5l34.5 39.5l75 77.5l76 77.5l65 66l65 67q-88 -10 -175 -17t-175 -15q-56 -5 -110.5 -9l-111.5 -8q-6 0 -18.5 -1.5t-22.5 -1.5l-58 -50l-89 -76l-87 -76l-81 -73
q-5 -4 -14 -14t-20 -20t-22 -17t-19 -4q-13 3 -2 13zM356 204l109 12l44 4l43 4l102 9.5l101 9.5l103 8l49 4l49 4h6l77.5 80l76.5 81l112.5 120l106.5 121l67 77t58 79l16 28t12 31.5t-3.5 26.5t-30.5 12q-27 1 -56 -5.5t-58 -17t-56 -24.5l-51 -25q-57 -29 -108 -60
l-102 -64q-104 -68 -200.5 -139l-189.5 -144l-144.5 -116l-140.5 -117q4 1 8 1zM1532 940q-47 0 -68.5 22.5t-5.5 53.5q9 15 25.5 29t38 24t45.5 16t47 6q47 0 67.5 -22t3.5 -53q-8 -15 -24.5 -29t-37.5 -24.5t-44.5 -16.5t-46.5 -6zM1601 1066q-37 0 -64 -16t-37.5 -34.5
t-0.5 -34.5t46 -16q37 0 64 16t37.5 34.5t0.5 34.5t-46 16z" />
    <glyph glyph-name="AE" unicode="&#xc6;" horiz-adv-x="1659" 
d="M-62 -129l345.5 305l367.5 298l189 141.5t200 135.5l104.5 63.5t112.5 58.5q48 22 102.5 41t106.5 21q27 1 42 -7t21 -21t5 -28.5t-4 -30.5l-4 -14q65 22 130.5 37.5t128.5 24.5q106 15 208 16.5t193 -11.5q41 -6 79.5 -16.5t67 -28t43 -41.5t6.5 -56q-7 -32 -33 -63.5
t-63 -61t-82.5 -55.5t-91.5 -47q-48 -20 -97.5 -36.5t-100.5 -26.5q-26 -5 -53 -8.5t-53 -4.5q-7 0 -13.5 0.5t-6.5 5.5q-1 5 6 9.5t15 4.5q55 -2 114.5 9.5t118 31.5t112.5 47.5t98 58.5q45 32 77.5 70t37.5 75q2 34 -22.5 57.5t-65.5 37.5q-39 14 -88 21.5t-102.5 9
t-109.5 -2t-110 -11.5q-96 -14 -189 -44t-181 -72l-20.5 -37.5t-23.5 -37.5q-51 -81 -118.5 -161.5l-139.5 -159.5l-73 -80q35 -20 85 -29.5t108 -8.5q8 1 14.5 1t9.5 -2q6 -5 -0.5 -10.5t-15.5 -7.5q-8 -2 -16.5 -1t-15.5 2h-12q-51 0 -103.5 -12.5t-100.5 -33.5t-89 -49.5
t-68 -61.5q-31 -38 -28 -69.5t44 -50.5q32 -17 75.5 -22t89.5 -6q56 0 115.5 7t119 21t118 34t112.5 46q52 25 101 56t81 66q7 8 13 16.5t9 16.5q2 6 4 13.5t16 9.5q13 2 14 -4t-3.5 -14.5t-11.5 -17.5t-10 -12q-32 -36 -78.5 -68t-101.5 -59.5t-114 -50t-115 -38.5
q-60 -17 -121 -28.5t-122 -19.5q-48 -6 -96 -10t-93 -1q-51 3 -93 17t-62 42l-52 -44q-37 -32 -86 -62q-11 -8 -26.5 -16.5t-31.5 -5.5q-10 2 -11 8.5t2.5 14t9 15.5l9.5 14q14 20 30.5 39.5l34.5 39.5l75 77.5l76 77.5l65 66l65 67q-88 -10 -175 -17t-175 -15
q-56 -5 -110.5 -9l-111.5 -8q-6 0 -18.5 -1.5t-22.5 -1.5l-58 -50l-89 -76l-87 -76l-81 -73q-5 -4 -14 -14t-20 -20t-22 -17t-19 -4q-13 3 -2 13zM356 204l109 12l44 4l43 4l102 9.5l101 9.5l103 8l49 4l49 4h6l57 59q-52 64 -11 156q24 52 68.5 99.5t103 90t129 79
t146.5 66.5l5 8l16 28t12 31.5t-3.5 26.5t-30.5 12q-27 1 -56 -5.5t-58 -17t-56 -24.5l-51 -25q-57 -29 -108 -60l-102 -64q-104 -68 -200.5 -139l-189.5 -144l-144.5 -116l-140.5 -117q4 1 8 1zM1116 420l112.5 120l106.5 121l24 27q-47 -29 -92 -61.5t-83 -67t-66 -70
t-42 -71.5q-6 -14 -8 -26.5t-1 -23.5zM1052 212q36 10 72.5 16.5t71.5 11.5q-33 4 -63 12q-9 2 -17 4.5t-16 5.5z" />
    <glyph glyph-name="Ccedilla" unicode="&#xc7;" horiz-adv-x="1028" 
d="M291 -214q-25 0 -47 7.5t-24 24.5q0 7 6.5 15.5t20.5 9.5q9 1 11.5 -1t2.5 -5v-7q0 -4 3 -7q4 -6 14 -9t22 -3.5t25.5 1.5t24.5 7q32 12 40 29.5t-19 24.5q-7 2 -17 2.5t-12 6.5q0 5 4.5 9t9.5 8q-39 3 -72.5 11.5t-61.5 24.5q-35 21 -55.5 49.5t-29 61t-6.5 68.5t12 72
q21 75 71 153t124 153.5t168.5 144t203.5 123.5q111 56 231.5 90.5t239.5 43.5q55 4 112.5 3.5t111 -8t98.5 -21.5t77 -37q34 -24 44 -57.5t-1 -70.5t-42.5 -75t-80.5 -72q-48 -33 -105 -57t-118 -36q-29 -5 -57.5 -7.5t-55.5 -2.5q-8 0 -19.5 -0.5t-16.5 4.5q-2 3 -0.5 6
t5.5 5.5t9 4t10 1.5q53 -6 110 2t111 27.5t101.5 49.5t81.5 66q35 37 46.5 73t2.5 66t-37.5 53.5t-74.5 36.5q-47 13 -103.5 17t-117.5 -0.5t-123.5 -17t-122.5 -30.5q-118 -36 -223.5 -91t-193.5 -120q-91 -69 -160 -143.5t-114 -150.5q-22 -37 -39 -76t-24.5 -76.5
t-2.5 -72.5t28 -63q30 -37 84 -56.5t122.5 -24.5t146 4t153.5 31t145.5 56t121.5 78q33 28 54 60q5 8 8.5 16t3.5 16q0 4 4 7t9 4.5t10.5 1t7.5 -3.5q3 -5 0.5 -12.5t-8.5 -16t-13 -17t-12 -13.5q-16 -18 -36 -35t-42 -33q-94 -67 -210.5 -108t-236.5 -61q-54 -9 -108 -15
t-104 -5q34 -9 34.5 -27.5t-19 -37t-53 -32.5t-68.5 -14z" />
    <glyph glyph-name="Egrave" unicode="&#xc8;" horiz-adv-x="989" 
d="M1137 476q55 -2 114.5 9.5t118 31.5t112.5 47.5t98 58.5q45 32 77.5 70t37.5 75q2 34 -22.5 57.5t-65.5 37.5q-39 14 -88 21.5t-102.5 9t-109.5 -2t-110 -11.5q-120 -18 -236.5 -60.5t-220.5 -100.5q-54 -30 -107.5 -65.5t-99 -74.5t-79.5 -80t-50 -81q-17 -42 -4 -74
t47.5 -53t86 -31.5t111.5 -9.5q8 1 14.5 1t9.5 -2q6 -5 -0.5 -10.5t-15.5 -7.5q-8 -2 -16.5 -1t-15.5 2h-12q-51 0 -103.5 -12.5t-100.5 -33.5t-89 -49.5t-68 -61.5q-31 -38 -28 -69.5t44 -50.5q32 -17 75.5 -22t89.5 -6q56 0 115.5 7t119 21t118 34t112.5 46q52 25 101 56
t81 66q7 8 13 16.5t9 16.5q2 6 4 13.5t16 9.5q13 2 14 -4t-3.5 -14.5t-11.5 -17.5t-10 -12q-32 -36 -78.5 -68t-101.5 -59.5t-114 -50t-115 -38.5q-60 -17 -121 -28.5t-122 -19.5q-48 -6 -96 -10t-93 -1q-51 3 -93 17t-62 42q-19 29 -12 65t39 71q31 35 75.5 61t96 45
t106.5 30.5t108 18.5q-33 4 -63 12q-95 26 -127.5 85.5t2.5 136.5q25 53 70.5 101.5t106 92t133 80.5t150.5 66t158.5 50t158.5 32q106 15 208 16.5t193 -11.5q41 -6 79.5 -16.5t67 -28t43 -41.5t6.5 -56q-7 -32 -33 -63.5t-63 -61t-82.5 -55.5t-91.5 -47
q-48 -20 -97.5 -36.5t-100.5 -26.5q-26 -5 -53 -8.5t-53 -4.5q-7 0 -13.5 0.5t-6.5 5.5q-1 5 6 9.5t15 4.5zM1604 924l-154.5 31l-154.5 31q-14 3 -19 10.5t-1 16.5t15.5 17t30.5 11q14 2 27.5 -2.5l24.5 -8.5l177 -59l66 -21q2 -1 5.5 -1.5t5.5 -2.5q7 -2 7 -6t-4 -8
t-11 -7t-15 -1z" />
    <glyph glyph-name="Eacute" unicode="&#xc9;" horiz-adv-x="989" 
d="M1137 476q55 -2 114.5 9.5t118 31.5t112.5 47.5t98 58.5q45 32 77.5 70t37.5 75q2 34 -22.5 57.5t-65.5 37.5q-39 14 -88 21.5t-102.5 9t-109.5 -2t-110 -11.5q-120 -18 -236.5 -60.5t-220.5 -100.5q-54 -30 -107.5 -65.5t-99 -74.5t-79.5 -80t-50 -81q-17 -42 -4 -74
t47.5 -53t86 -31.5t111.5 -9.5q8 1 14.5 1t9.5 -2q6 -5 -0.5 -10.5t-15.5 -7.5q-8 -2 -16.5 -1t-15.5 2h-12q-51 0 -103.5 -12.5t-100.5 -33.5t-89 -49.5t-68 -61.5q-31 -38 -28 -69.5t44 -50.5q32 -17 75.5 -22t89.5 -6q56 0 115.5 7t119 21t118 34t112.5 46q52 25 101 56
t81 66q7 8 13 16.5t9 16.5q2 6 4 13.5t16 9.5q13 2 14 -4t-3.5 -14.5t-11.5 -17.5t-10 -12q-32 -36 -78.5 -68t-101.5 -59.5t-114 -50t-115 -38.5q-60 -17 -121 -28.5t-122 -19.5q-48 -6 -96 -10t-93 -1q-51 3 -93 17t-62 42q-19 29 -12 65t39 71q31 35 75.5 61t96 45
t106.5 30.5t108 18.5q-33 4 -63 12q-95 26 -127.5 85.5t2.5 136.5q25 53 70.5 101.5t106 92t133 80.5t150.5 66t158.5 50t158.5 32q106 15 208 16.5t193 -11.5q41 -6 79.5 -16.5t67 -28t43 -41.5t6.5 -56q-7 -32 -33 -63.5t-63 -61t-82.5 -55.5t-91.5 -47
q-48 -20 -97.5 -36.5t-100.5 -26.5q-26 -5 -53 -8.5t-53 -4.5q-7 0 -13.5 0.5t-6.5 5.5q-1 5 6 9.5t15 4.5zM1359 965l189.5 46l191.5 46q16 4 29 1.5t18.5 -9t2 -16t-20.5 -18.5q-14 -8 -32 -11l-31 -4l-243 -40l-86 -14l-18 -3q-17 -3 -17.5 7t17.5 15z" />
    <glyph glyph-name="Ecircumflex" unicode="&#xca;" horiz-adv-x="989" 
d="M1137 476q55 -2 114.5 9.5t118 31.5t112.5 47.5t98 58.5q45 32 77.5 70t37.5 75q2 34 -22.5 57.5t-65.5 37.5q-39 14 -88 21.5t-102.5 9t-109.5 -2t-110 -11.5q-120 -18 -236.5 -60.5t-220.5 -100.5q-54 -30 -107.5 -65.5t-99 -74.5t-79.5 -80t-50 -81q-17 -42 -4 -74
t47.5 -53t86 -31.5t111.5 -9.5q8 1 14.5 1t9.5 -2q6 -5 -0.5 -10.5t-15.5 -7.5q-8 -2 -16.5 -1t-15.5 2h-12q-51 0 -103.5 -12.5t-100.5 -33.5t-89 -49.5t-68 -61.5q-31 -38 -28 -69.5t44 -50.5q32 -17 75.5 -22t89.5 -6q56 0 115.5 7t119 21t118 34t112.5 46q52 25 101 56
t81 66q7 8 13 16.5t9 16.5q2 6 4 13.5t16 9.5q13 2 14 -4t-3.5 -14.5t-11.5 -17.5t-10 -12q-32 -36 -78.5 -68t-101.5 -59.5t-114 -50t-115 -38.5q-60 -17 -121 -28.5t-122 -19.5q-48 -6 -96 -10t-93 -1q-51 3 -93 17t-62 42q-19 29 -12 65t39 71q31 35 75.5 61t96 45
t106.5 30.5t108 18.5q-33 4 -63 12q-95 26 -127.5 85.5t2.5 136.5q25 53 70.5 101.5t106 92t133 80.5t150.5 66t158.5 50t158.5 32q106 15 208 16.5t193 -11.5q41 -6 79.5 -16.5t67 -28t43 -41.5t6.5 -56q-7 -32 -33 -63.5t-63 -61t-82.5 -55.5t-91.5 -47
q-48 -20 -97.5 -36.5t-100.5 -26.5q-26 -5 -53 -8.5t-53 -4.5q-7 0 -13.5 0.5t-6.5 5.5q-1 5 6 9.5t15 4.5zM1213 914q-16 -1 -13 8t16 15l14 6q7 3 14 7q29 12 56 24.5l55 24.5q27 13 55 25l55 24q6 3 15 7t18 7t16 2.5t8 -7.5q3 -29 8 -57l10 -57q1 -5 -0.5 -10t-10.5 -10
q-16 -7 -22 -2.5t-8 11.5l-10 65l-5 35l-133 -60l-89 -40l-24 -11t-25 -7z" />
    <glyph glyph-name="Edieresis" unicode="&#xcb;" horiz-adv-x="989" 
d="M1137 476q55 -2 114.5 9.5t118 31.5t112.5 47.5t98 58.5q45 32 77.5 70t37.5 75q2 34 -22.5 57.5t-65.5 37.5q-39 14 -88 21.5t-102.5 9t-109.5 -2t-110 -11.5q-120 -18 -236.5 -60.5t-220.5 -100.5q-54 -30 -107.5 -65.5t-99 -74.5t-79.5 -80t-50 -81q-17 -42 -4 -74
t47.5 -53t86 -31.5t111.5 -9.5q8 1 14.5 1t9.5 -2q6 -5 -0.5 -10.5t-15.5 -7.5q-8 -2 -16.5 -1t-15.5 2h-12q-51 0 -103.5 -12.5t-100.5 -33.5t-89 -49.5t-68 -61.5q-31 -38 -28 -69.5t44 -50.5q32 -17 75.5 -22t89.5 -6q56 0 115.5 7t119 21t118 34t112.5 46q52 25 101 56
t81 66q7 8 13 16.5t9 16.5q2 6 4 13.5t16 9.5q13 2 14 -4t-3.5 -14.5t-11.5 -17.5t-10 -12q-32 -36 -78.5 -68t-101.5 -59.5t-114 -50t-115 -38.5q-60 -17 -121 -28.5t-122 -19.5q-48 -6 -96 -10t-93 -1q-51 3 -93 17t-62 42q-19 29 -12 65t39 71q31 35 75.5 61t96 45
t106.5 30.5t108 18.5q-33 4 -63 12q-95 26 -127.5 85.5t2.5 136.5q25 53 70.5 101.5t106 92t133 80.5t150.5 66t158.5 50t158.5 32l47 6q23 3 45 5q-22 3 -27 17t5.5 29.5t33.5 28t53 12.5q28 0 37.5 -10.5t5.5 -25t-20.5 -28.5t-40.5 -20q81 5 158 0q-17 7 -17.5 21
t10.5 28t33 24.5t50 10.5q29 0 38.5 -12t3.5 -27t-25 -29.5t-46 -18.5q14 -1 28.5 -2.5t28.5 -3.5q41 -6 79.5 -16.5t67 -28t43 -41.5t6.5 -56q-7 -32 -33 -63.5t-63 -61t-82.5 -55.5t-91.5 -47q-48 -20 -97.5 -36.5t-100.5 -26.5q-26 -5 -53 -8.5t-53 -4.5q-7 0 -13.5 0.5
t-6.5 5.5q-1 5 6 9.5t15 4.5z" />
    <glyph glyph-name="Igrave" unicode="&#xcc;" horiz-adv-x="624" 
d="M465 783q20 8 40 18.5t40 18.5q27 11 54.5 17.5t56.5 8.5q60 5 112 -4t93 -26q16 -6 28 -13.5t23 -15.5t21.5 -16.5t22.5 -15.5q9 -6 22.5 -10t30 -5.5t34 0t34.5 6.5l18 10q9 5 19 10q1 0 2 1v-1q6 3 12.5 3t10.5 -1.5t4 -5t-7 -7.5q-3 -3 -8 -4.5t-10 -3.5
q-38 -17 -68.5 -37t-57.5 -45q-45 -38 -76.5 -77l-63.5 -79q-101 -128 -228 -252l-76.5 -71t-85.5 -70.5t-95 -66t-106 -56.5q-23 -10 -50 -19.5t-54.5 -15.5t-53.5 -7.5t-46 5.5q-5 3 -5 7.5t3 8t9 5.5t14 0q-1 -2 8.5 -1t21.5 3l23 4t13 3q59 18 109 51t91 65
q44 36 82.5 73l76.5 75q48 49 90 98l88 98q68 72 160 139.5t187 130.5l11 6q-10 -1 -19 -3q-9 -1 -19 -3q-50 -7 -96 -4.5t-84 13.5q-29 8 -54.5 21l-50.5 25l-32 15t-36 13t-41 6.5t-47 -4.5q-39 -7 -72 -28q-10 -7 -18.5 -7.5t-12.5 2t-2.5 7t10.5 8.5zM1296 841
l-154.5 31l-154.5 31q-14 3 -19 10.5t-1 16.5t15.5 17t30.5 11q14 2 27.5 -2.5l24.5 -8.5l177 -59l66 -21q2 -1 5.5 -1.5t5.5 -2.5q7 -2 7 -6t-4 -8t-11 -7t-15 -1z" />
    <glyph glyph-name="Iacute" unicode="&#xcd;" horiz-adv-x="624" 
d="M465 783q20 8 40 18.5t40 18.5q27 11 54.5 17.5t56.5 8.5q60 5 112 -4t93 -26q16 -6 28 -13.5t23 -15.5t21.5 -16.5t22.5 -15.5q9 -6 22.5 -10t30 -5.5t34 0t34.5 6.5l18 10q9 5 19 10q1 0 2 1v-1q6 3 12.5 3t10.5 -1.5t4 -5t-7 -7.5q-3 -3 -8 -4.5t-10 -3.5
q-38 -17 -68.5 -37t-57.5 -45q-45 -38 -76.5 -77l-63.5 -79q-101 -128 -228 -252l-76.5 -71t-85.5 -70.5t-95 -66t-106 -56.5q-23 -10 -50 -19.5t-54.5 -15.5t-53.5 -7.5t-46 5.5q-5 3 -5 7.5t3 8t9 5.5t14 0q-1 -2 8.5 -1t21.5 3l23 4t13 3q59 18 109 51t91 65
q44 36 82.5 73l76.5 75q48 49 90 98l88 98q68 72 160 139.5t187 130.5l11 6q-10 -1 -19 -3q-9 -1 -19 -3q-50 -7 -96 -4.5t-84 13.5q-29 8 -54.5 21l-50.5 25l-32 15t-36 13t-41 6.5t-47 -4.5q-39 -7 -72 -28q-10 -7 -18.5 -7.5t-12.5 2t-2.5 7t10.5 8.5zM1058 859l189.5 46
l191.5 46q16 4 29 1.5t18.5 -9t2 -16t-20.5 -18.5q-14 -8 -32 -11l-31 -4l-243 -40l-86 -14l-18 -3q-17 -3 -17.5 7t17.5 15z" />
    <glyph glyph-name="Icircumflex" unicode="&#xce;" horiz-adv-x="624" 
d="M465 783q20 8 40 18.5t40 18.5q27 11 54.5 17.5t56.5 8.5q60 5 112 -4t93 -26q16 -6 28 -13.5t23 -15.5t21.5 -16.5t22.5 -15.5q9 -6 22.5 -10t30 -5.5t34 0t34.5 6.5l18 10q9 5 19 10q1 0 2 1v-1q6 3 12.5 3t10.5 -1.5t4 -5t-7 -7.5q-3 -3 -8 -4.5t-10 -3.5
q-38 -17 -68.5 -37t-57.5 -45q-45 -38 -76.5 -77l-63.5 -79q-101 -128 -228 -252l-76.5 -71t-85.5 -70.5t-95 -66t-106 -56.5q-23 -10 -50 -19.5t-54.5 -15.5t-53.5 -7.5t-46 5.5q-5 3 -5 7.5t3 8t9 5.5t14 0q-1 -2 8.5 -1t21.5 3l23 4t13 3q59 18 109 51t91 65
q44 36 82.5 73l76.5 75q48 49 90 98l88 98q68 72 160 139.5t187 130.5l11 6q-10 -1 -19 -3q-9 -1 -19 -3q-50 -7 -96 -4.5t-84 13.5q-29 8 -54.5 21l-50.5 25l-32 15t-36 13t-41 6.5t-47 -4.5q-39 -7 -72 -28q-10 -7 -18.5 -7.5t-12.5 2t-2.5 7t10.5 8.5zM994 799
q-16 -1 -13 8t16 15l14 6q7 3 14 7q29 12 56 24.5l55 24.5q27 13 55 25l55 24q6 3 15 7t18 7t16 2.5t8 -7.5q3 -29 8 -57l10 -57q1 -5 -0.5 -10t-10.5 -10q-16 -7 -22 -2.5t-8 11.5l-10 65l-5 35l-133 -60l-89 -40l-24 -11t-25 -7z" />
    <glyph glyph-name="Idieresis" unicode="&#xcf;" horiz-adv-x="624" 
d="M465 783q20 8 40 18.5t40 18.5q27 11 54.5 17.5t56.5 8.5q60 5 112 -4t93 -26q16 -6 28 -13.5t23 -15.5t21.5 -16.5t22.5 -15.5q9 -6 22.5 -10t30 -5.5t34 0t34.5 6.5l18 10q9 5 19 10q1 0 2 1v-1q6 3 12.5 3t10.5 -1.5t4 -5t-7 -7.5q-3 -3 -8 -4.5t-10 -3.5
q-38 -17 -68.5 -37t-57.5 -45q-45 -38 -76.5 -77l-63.5 -79q-101 -128 -228 -252l-76.5 -71t-85.5 -70.5t-95 -66t-106 -56.5q-23 -10 -50 -19.5t-54.5 -15.5t-53.5 -7.5t-46 5.5q-5 3 -5 7.5t3 8t9 5.5t14 0q-1 -2 8.5 -1t21.5 3l23 4t13 3q59 18 109 51t91 65
q44 36 82.5 73l76.5 75q48 49 90 98l88 98q68 72 160 139.5t187 130.5l11 6q-10 -1 -19 -3q-9 -1 -19 -3q-50 -7 -96 -4.5t-84 13.5q-29 8 -54.5 21l-50.5 25l-32 15t-36 13t-41 6.5t-47 -4.5q-39 -7 -72 -28q-10 -7 -18.5 -7.5t-12.5 2t-2.5 7t10.5 8.5zM1054 791
q-32 0 -41 13.5t0 30t33 30.5t56 14t40.5 -14t-0.5 -30.5t-32.5 -30t-55.5 -13.5zM1270 791q-32 0 -41 13.5t0 30t33 30.5t56 14t40.5 -14t-0.5 -30.5t-32.5 -30t-55.5 -13.5z" />
    <glyph glyph-name="Ntilde" unicode="&#xd1;" horiz-adv-x="1074" 
d="M-36 -117l182 208.5l183 209.5l451 517q18 20 43.5 37t61.5 12q18 -3 24 -10t4.5 -16.5t-9 -20t-16.5 -20.5l-184 -198l-240.5 -259l-238.5 -257l231.5 192l241.5 189l193 140.5t207 131.5l104 55.5t114 38.5q31 6 51 1.5t30 -15t11.5 -26t-4.5 -32.5q-11 -38 -35 -76
t-54.5 -76.5t-66 -75.5l-70.5 -73q-76 -78 -156.5 -152.5l-161.5 -149.5q-8 -8 -32.5 -29.5l-56 -49.5l-64 -59.5t-56 -58t-34 -45t3.5 -20.5q24 -1 52 6.5t55.5 19t53.5 25.5l46 25q54 29 103 61.5t95 66.5q45 31 86 62.5l82 63.5q4 3 11.5 10t15.5 12.5t16 7.5t14 -3
q4 -4 1 -9t-9.5 -10.5t-14.5 -10.5t-13 -9l-166 -123.5t-180 -115.5q-48 -29 -101.5 -57t-110.5 -44q-21 -6 -40.5 -7.5t-33.5 1.5t-22 11t-6 23q2 17 11 35t21 36.5t26.5 37l27.5 35.5q30 39 65 77.5l71 76.5l239.5 235.5l237.5 236.5l62 68q4 6 11 15.5t11 19t3 17
t-12 10.5q-20 5 -48 -1.5t-57 -18t-56 -25.5l-46 -24q-104 -57 -197 -124l-182 -134l-212 -165.5l-204 -168.5l-100.5 -85l-97.5 -86l-63 -54l-18 -20q-5 -5 -9.5 -10.5l-9.5 -11.5q-11 -11 -26.5 -15.5t-27.5 -3t-17 8.5t6 19zM1034 888q33 21 72 40t80 29q43 11 75 3
t46 -29q8 -13 21.5 -21t41.5 -4q23 2 46 10t44 17q4 2 10 3.5t10.5 1.5t6 -2t-2.5 -7q-5 -7 -18.5 -13.5t-21.5 -11.5q-20 -10 -40 -18.5t-41 -14.5q-45 -13 -81 -8t-53 25q-6 7 -11 13.5t-12.5 11t-19.5 5.5t-30 -2q-22 -4 -44 -12l-42 -16q-5 -3 -13 -7t-14 -6
q-10 -2 -13.5 3t4.5 10z" />
    <glyph glyph-name="Ograve" unicode="&#xd2;" horiz-adv-x="1034" 
d="M269 369q60 65 131.5 124.5t159.5 115.5q94 60 200 112t224 81q56 14 109 18.5t97.5 -1.5t77.5 -23t49 -47q18 -32 18.5 -69t-11.5 -76t-34.5 -78.5t-50.5 -77.5q-48 -66 -113 -130t-143 -124q-90 -69 -192.5 -130.5t-220.5 -106.5q-50 -19 -102.5 -34.5t-104.5 -23.5
t-100 -6.5t-87 15.5q-43 16 -62 44.5t-21.5 63t7.5 72.5t25 72q23 53 60 105.5t84 103.5zM374 348q-38 -37 -73.5 -76t-64.5 -78.5t-49.5 -79.5t-27.5 -78q-4 -17 -3.5 -34t6.5 -32t18.5 -27.5t32.5 -20.5q18 -7 41 -8.5t47.5 1t50 8.5t49.5 13q59 18 115 44t108.5 56
t100.5 62.5l91 64.5q85 62 157 127.5t133 133.5q30 34 59 70.5t51.5 73t37 73t15.5 69.5q2 30 -15.5 57t-62.5 35q-35 7 -80 -0.5t-86 -20.5q-109 -35 -207 -92t-179 -116q-75 -54 -140.5 -110.5t-124.5 -114.5zM1307 851l-154.5 31l-154.5 31q-14 3 -19 10.5t-1 16.5
t15.5 17t30.5 11q14 2 27.5 -2.5l24.5 -8.5l177 -59l66 -21q2 -1 5.5 -1.5t5.5 -2.5q7 -2 7 -6t-4 -8t-11 -7t-15 -1z" />
    <glyph glyph-name="Oacute" unicode="&#xd3;" horiz-adv-x="1034" 
d="M269 369q60 65 131.5 124.5t159.5 115.5q94 60 200 112t224 81q56 14 109 18.5t97.5 -1.5t77.5 -23t49 -47q18 -32 18.5 -69t-11.5 -76t-34.5 -78.5t-50.5 -77.5q-48 -66 -113 -130t-143 -124q-90 -69 -192.5 -130.5t-220.5 -106.5q-50 -19 -102.5 -34.5t-104.5 -23.5
t-100 -6.5t-87 15.5q-43 16 -62 44.5t-21.5 63t7.5 72.5t25 72q23 53 60 105.5t84 103.5zM374 348q-38 -37 -73.5 -76t-64.5 -78.5t-49.5 -79.5t-27.5 -78q-4 -17 -3.5 -34t6.5 -32t18.5 -27.5t32.5 -20.5q18 -7 41 -8.5t47.5 1t50 8.5t49.5 13q59 18 115 44t108.5 56
t100.5 62.5l91 64.5q85 62 157 127.5t133 133.5q30 34 59 70.5t51.5 73t37 73t15.5 69.5q2 30 -15.5 57t-62.5 35q-35 7 -80 -0.5t-86 -20.5q-109 -35 -207 -92t-179 -116q-75 -54 -140.5 -110.5t-124.5 -114.5zM1068 896l189.5 46l191.5 46q16 4 29 1.5t18.5 -9t2 -16
t-20.5 -18.5q-14 -8 -32 -11l-31 -4l-243 -40l-86 -14l-18 -3q-17 -3 -17.5 7t17.5 15z" />
    <glyph glyph-name="Ocircumflex" unicode="&#xd4;" horiz-adv-x="1034" 
d="M269 369q60 65 131.5 124.5t159.5 115.5q94 60 200 112t224 81q56 14 109 18.5t97.5 -1.5t77.5 -23t49 -47q18 -32 18.5 -69t-11.5 -76t-34.5 -78.5t-50.5 -77.5q-48 -66 -113 -130t-143 -124q-90 -69 -192.5 -130.5t-220.5 -106.5q-50 -19 -102.5 -34.5t-104.5 -23.5
t-100 -6.5t-87 15.5q-43 16 -62 44.5t-21.5 63t7.5 72.5t25 72q23 53 60 105.5t84 103.5zM374 348q-38 -37 -73.5 -76t-64.5 -78.5t-49.5 -79.5t-27.5 -78q-4 -17 -3.5 -34t6.5 -32t18.5 -27.5t32.5 -20.5q18 -7 41 -8.5t47.5 1t50 8.5t49.5 13q59 18 115 44t108.5 56
t100.5 62.5l91 64.5q85 62 157 127.5t133 133.5q30 34 59 70.5t51.5 73t37 73t15.5 69.5q2 30 -15.5 57t-62.5 35q-35 7 -80 -0.5t-86 -20.5q-109 -35 -207 -92t-179 -116q-75 -54 -140.5 -110.5t-124.5 -114.5zM1039 845q-16 -1 -13 8t16 15l14 6q7 3 14 7q29 12 56 24.5
l55 24.5q27 13 55 25l55 24q6 3 15 7t18 7t16 2.5t8 -7.5q3 -29 8 -57l10 -57q1 -5 -0.5 -10t-10.5 -10q-16 -7 -22 -2.5t-8 11.5l-10 65l-5 35l-133 -60l-89 -40l-24 -11t-25 -7z" />
    <glyph glyph-name="Otilde" unicode="&#xd5;" horiz-adv-x="1034" 
d="M269 369q60 65 131.5 124.5t159.5 115.5q94 60 200 112t224 81q56 14 109 18.5t97.5 -1.5t77.5 -23t49 -47q18 -32 18.5 -69t-11.5 -76t-34.5 -78.5t-50.5 -77.5q-48 -66 -113 -130t-143 -124q-90 -69 -192.5 -130.5t-220.5 -106.5q-50 -19 -102.5 -34.5t-104.5 -23.5
t-100 -6.5t-87 15.5q-43 16 -62 44.5t-21.5 63t7.5 72.5t25 72q23 53 60 105.5t84 103.5zM374 348q-38 -37 -73.5 -76t-64.5 -78.5t-49.5 -79.5t-27.5 -78q-4 -17 -3.5 -34t6.5 -32t18.5 -27.5t32.5 -20.5q18 -7 41 -8.5t47.5 1t50 8.5t49.5 13q59 18 115 44t108.5 56
t100.5 62.5l91 64.5q85 62 157 127.5t133 133.5q30 34 59 70.5t51.5 73t37 73t15.5 69.5q2 30 -15.5 57t-62.5 35q-35 7 -80 -0.5t-86 -20.5q-109 -35 -207 -92t-179 -116q-75 -54 -140.5 -110.5t-124.5 -114.5zM1016 888q33 21 72 40t80 29q43 11 75 3t46 -29
q8 -13 21.5 -21t41.5 -4q23 2 46 10t44 17q4 2 10 3.5t10.5 1.5t6 -2t-2.5 -7q-5 -7 -18.5 -13.5t-21.5 -11.5q-20 -10 -40 -18.5t-41 -14.5q-45 -13 -81 -8t-53 25q-6 7 -11 13.5t-12.5 11t-19.5 5.5t-30 -2q-22 -4 -44 -12l-42 -16q-5 -3 -13 -7t-14 -6q-10 -2 -13.5 3
t4.5 10z" />
    <glyph glyph-name="Odieresis" unicode="&#xd6;" horiz-adv-x="1034" 
d="M269 369q60 65 131.5 124.5t159.5 115.5q94 60 200 112t224 81q56 14 109 18.5t97.5 -1.5t77.5 -23t49 -47q18 -32 18.5 -69t-11.5 -76t-34.5 -78.5t-50.5 -77.5q-48 -66 -113 -130t-143 -124q-90 -69 -192.5 -130.5t-220.5 -106.5q-50 -19 -102.5 -34.5t-104.5 -23.5
t-100 -6.5t-87 15.5q-43 16 -62 44.5t-21.5 63t7.5 72.5t25 72q23 53 60 105.5t84 103.5zM374 348q-38 -37 -73.5 -76t-64.5 -78.5t-49.5 -79.5t-27.5 -78q-4 -17 -3.5 -34t6.5 -32t18.5 -27.5t32.5 -20.5q18 -7 41 -8.5t47.5 1t50 8.5t49.5 13q59 18 115 44t108.5 56
t100.5 62.5l91 64.5q85 62 157 127.5t133 133.5q30 34 59 70.5t51.5 73t37 73t15.5 69.5q2 30 -15.5 57t-62.5 35q-35 7 -80 -0.5t-86 -20.5q-109 -35 -207 -92t-179 -116q-75 -54 -140.5 -110.5t-124.5 -114.5zM1129 860q-32 0 -41 13.5t0 30t33 30.5t56 14t40.5 -14
t-0.5 -30.5t-32.5 -30t-55.5 -13.5zM1345 860q-32 0 -41 13.5t0 30t33 30.5t56 14t40.5 -14t-0.5 -30.5t-32.5 -30t-55.5 -13.5z" />
    <glyph glyph-name="Oslash" unicode="&#xd8;" horiz-adv-x="1034" 
d="M-86 -142q-18 0 -15 9.5t15 17.5q14 8 26 14l99 59l57 33q-10 38 0 83t29 86q23 53 60 105.5t84 103.5q60 65 131.5 124.5t159.5 115.5q94 60 200 112t224 81q56 14 109 18.5t97.5 -1.5t77.5 -23t49 -47q6 -12 10 -24t6 -25l146 85l14 7q10 6 18.5 6t12.5 -4t2.5 -10
t-11.5 -12l-55 -32l-125 -72q-2 -53 -29.5 -109.5t-66.5 -110.5q-48 -66 -113 -130t-143 -124q-90 -69 -192.5 -130.5t-220.5 -106.5q-50 -19 -102.5 -34.5t-104.5 -23.5t-100 -6.5t-87 15.5q-26 10 -42.5 24.5t-26.5 31.5l-116 -67q-5 -3 -14.5 -9.5t-20.5 -13t-22 -11.5
t-20 -5zM374 348q-38 -37 -73.5 -76t-64.5 -78.5t-49.5 -79.5t-27.5 -78q-2 -8 -2 -12l241 139l426.5 245.5l426.5 245.5l9 4q8 27 9 52q2 30 -15.5 57t-62.5 35q-35 7 -80 -0.5t-86 -20.5q-109 -35 -207 -92t-179 -116q-75 -54 -140.5 -110.5t-124.5 -114.5zM213 -78
q18 -7 41 -8.5t47.5 1t50 8.5t49.5 13q59 18 115 44t108.5 56t100.5 62.5l91 64.5q85 62 157 127.5t133 133.5q41 45 77.5 94t59.5 97l-518 -296l-569 -327q3 -22 16 -40.5t41 -29.5z" />
    <glyph glyph-name="Ugrave" unicode="&#xd9;" horiz-adv-x="1053" 
d="M1559 820l-183 -209.5l-182 -208.5l-227 -259l-226 -258q-8 -10 -18.5 -20t-23.5 -17.5t-28 -11t-33 -0.5q-19 3 -25.5 10t-4.5 16t9.5 19.5t17.5 20.5l184 198l488 526l-238 -197.5l-247 -193.5l-191.5 -140.5t-207.5 -131.5l-103 -55.5t-113 -38.5q-32 -5 -51.5 -1
t-30 14.5t-12.5 26t3 32.5q11 37 35 76t55.5 77t67.5 75.5l71 73.5l154.5 151.5l160.5 149.5l33 29l56 50l63.5 59.5t56.5 58t34 44.5t-3 21q-24 1 -52 -6.5t-55.5 -19t-53 -25t-44.5 -24.5q-54 -30 -103 -62.5l-97 -65.5l-86 -63t-80 -64q-4 -3 -11.5 -9.5t-16 -12t-17 -8
t-14.5 2.5q-4 4 -0.5 9t10 10.5t14 10.5t12.5 9l166.5 123.5t178.5 116.5l102.5 56t110.5 44q21 6 40.5 7.5t33.5 -1.5t22 -11t6 -23q-3 -17 -11.5 -35t-20.5 -36.5t-26 -36.5l-27 -35q-63 -80 -137 -154q-115 -120 -239 -236.5t-239 -236.5l-31 -34t-28 -34
q-5 -6 -12 -15.5t-11 -18.5t-3.5 -16.5t10.5 -10.5q21 -5 48.5 1t57 17.5t56.5 25.5l46 24q104 58 198 124.5l182 133.5l212 165.5l205 168.5l198 171l58 51l21 23l21 22q10 11 25.5 15.5t27.5 3t17 -8t-5 -18.5zM1394 883l-154.5 31l-154.5 31q-14 3 -19 10.5t-1 16.5
t15.5 17t30.5 11q14 2 27.5 -2.5l24.5 -8.5l177 -59l66 -21q2 -1 5.5 -1.5t5.5 -2.5q7 -2 7 -6t-4 -8t-11 -7t-15 -1z" />
    <glyph glyph-name="Uacute" unicode="&#xda;" horiz-adv-x="1053" 
d="M1559 820l-183 -209.5l-182 -208.5l-227 -259l-226 -258q-8 -10 -18.5 -20t-23.5 -17.5t-28 -11t-33 -0.5q-19 3 -25.5 10t-4.5 16t9.5 19.5t17.5 20.5l184 198l488 526l-238 -197.5l-247 -193.5l-191.5 -140.5t-207.5 -131.5l-103 -55.5t-113 -38.5q-32 -5 -51.5 -1
t-30 14.5t-12.5 26t3 32.5q11 37 35 76t55.5 77t67.5 75.5l71 73.5l154.5 151.5l160.5 149.5l33 29l56 50l63.5 59.5t56.5 58t34 44.5t-3 21q-24 1 -52 -6.5t-55.5 -19t-53 -25t-44.5 -24.5q-54 -30 -103 -62.5l-97 -65.5l-86 -63t-80 -64q-4 -3 -11.5 -9.5t-16 -12t-17 -8
t-14.5 2.5q-4 4 -0.5 9t10 10.5t14 10.5t12.5 9l166.5 123.5t178.5 116.5l102.5 56t110.5 44q21 6 40.5 7.5t33.5 -1.5t22 -11t6 -23q-3 -17 -11.5 -35t-20.5 -36.5t-26 -36.5l-27 -35q-63 -80 -137 -154q-115 -120 -239 -236.5t-239 -236.5l-31 -34t-28 -34
q-5 -6 -12 -15.5t-11 -18.5t-3.5 -16.5t10.5 -10.5q21 -5 48.5 1t57 17.5t56.5 25.5l46 24q104 58 198 124.5l182 133.5l212 165.5l205 168.5l198 171l58 51l21 23l21 22q10 11 25.5 15.5t27.5 3t17 -8t-5 -18.5zM1143 873l189.5 46l191.5 46q16 4 29 1.5t18.5 -9t2 -16
t-20.5 -18.5q-14 -8 -32 -11l-31 -4l-243 -40l-86 -14l-18 -3q-17 -3 -17.5 7t17.5 15z" />
    <glyph glyph-name="Ucircumflex" unicode="&#xdb;" horiz-adv-x="1053" 
d="M1559 820l-183 -209.5l-182 -208.5l-227 -259l-226 -258q-8 -10 -18.5 -20t-23.5 -17.5t-28 -11t-33 -0.5q-19 3 -25.5 10t-4.5 16t9.5 19.5t17.5 20.5l184 198l488 526l-238 -197.5l-247 -193.5l-191.5 -140.5t-207.5 -131.5l-103 -55.5t-113 -38.5q-32 -5 -51.5 -1
t-30 14.5t-12.5 26t3 32.5q11 37 35 76t55.5 77t67.5 75.5l71 73.5l154.5 151.5l160.5 149.5l33 29l56 50l63.5 59.5t56.5 58t34 44.5t-3 21q-24 1 -52 -6.5t-55.5 -19t-53 -25t-44.5 -24.5q-54 -30 -103 -62.5l-97 -65.5l-86 -63t-80 -64q-4 -3 -11.5 -9.5t-16 -12t-17 -8
t-14.5 2.5q-4 4 -0.5 9t10 10.5t14 10.5t12.5 9l166.5 123.5t178.5 116.5l102.5 56t110.5 44q21 6 40.5 7.5t33.5 -1.5t22 -11t6 -23q-3 -17 -11.5 -35t-20.5 -36.5t-26 -36.5l-27 -35q-63 -80 -137 -154q-115 -120 -239 -236.5t-239 -236.5l-31 -34t-28 -34
q-5 -6 -12 -15.5t-11 -18.5t-3.5 -16.5t10.5 -10.5q21 -5 48.5 1t57 17.5t56.5 25.5l46 24q104 58 198 124.5l182 133.5l212 165.5l205 168.5l198 171l58 51l21 23l21 22q10 11 25.5 15.5t27.5 3t17 -8t-5 -18.5zM1090 809q-16 -1 -13 8t16 15l14 6q7 3 14 7q29 12 56 24.5
l55 24.5q27 13 55 25l55 24q6 3 15 7t18 7t16 2.5t8 -7.5q3 -29 8 -57l10 -57q1 -5 -0.5 -10t-10.5 -10q-16 -7 -22 -2.5t-8 11.5l-10 65l-5 35l-133 -60l-89 -40l-24 -11t-25 -7z" />
    <glyph glyph-name="Udieresis" unicode="&#xdc;" horiz-adv-x="1053" 
d="M1559 820l-183 -209.5l-182 -208.5l-227 -259l-226 -258q-8 -10 -18.5 -20t-23.5 -17.5t-28 -11t-33 -0.5q-19 3 -25.5 10t-4.5 16t9.5 19.5t17.5 20.5l184 198l488 526l-238 -197.5l-247 -193.5l-191.5 -140.5t-207.5 -131.5l-103 -55.5t-113 -38.5q-32 -5 -51.5 -1
t-30 14.5t-12.5 26t3 32.5q11 37 35 76t55.5 77t67.5 75.5l71 73.5l154.5 151.5l160.5 149.5l33 29l56 50l63.5 59.5t56.5 58t34 44.5t-3 21q-24 1 -52 -6.5t-55.5 -19t-53 -25t-44.5 -24.5q-54 -30 -103 -62.5l-97 -65.5l-86 -63t-80 -64q-4 -3 -11.5 -9.5t-16 -12t-17 -8
t-14.5 2.5q-4 4 -0.5 9t10 10.5t14 10.5t12.5 9l166.5 123.5t178.5 116.5l102.5 56t110.5 44q21 6 40.5 7.5t33.5 -1.5t22 -11t6 -23q-3 -17 -11.5 -35t-20.5 -36.5t-26 -36.5l-27 -35q-63 -80 -137 -154q-115 -120 -239 -236.5t-239 -236.5l-31 -34t-28 -34
q-5 -6 -12 -15.5t-11 -18.5t-3.5 -16.5t10.5 -10.5q21 -5 48.5 1t57 17.5t56.5 25.5l46 24q104 58 198 124.5l182 133.5l212 165.5l205 168.5l198 171l58 51l21 23l21 22q10 11 25.5 15.5t27.5 3t17 -8t-5 -18.5zM1331 801q-32 0 -41 13.5t0 30t33 30.5t56 14t40.5 -14
t-0.5 -30.5t-32.5 -30t-55.5 -13.5zM1115 801q-32 0 -41 13.5t0 30t33 30.5t56 14t40.5 -14t-0.5 -30.5t-32.5 -30t-55.5 -13.5z" />
    <glyph glyph-name="Yacute" unicode="&#xdd;" horiz-adv-x="1010" 
d="M1529 832q-22 -11 -40.5 -25l-36.5 -28l-38.5 -31.5t-36.5 -32.5l-76 -71t-69 -72l-92.5 -100.5l-87.5 -100.5l-106.5 -119.5t-112 -118.5t-123.5 -115.5t-140 -110.5q-41 -29 -91.5 -61t-106 -58.5t-113.5 -43.5t-113 -16q-25 1 -47 6.5t-33 16.5q-5 4 -5 10t14 10
q11 3 19.5 -1.5t15.5 -6.5q25 -6 54 -3t58.5 12t58 21.5t52.5 25.5q54 29 101.5 62.5t90 69.5t81.5 73l75 73q66 66 123.5 133l117.5 135q-24 -17 -48.5 -32.5l-49.5 -31.5q-47 -29 -96.5 -55.5t-104.5 -47.5q-21 -8 -45.5 -16t-49 -15t-49.5 -11.5t-47 -5.5
q-29 -2 -46.5 4.5t-26 18t-10 26.5t3.5 32q10 38 38.5 76.5t60.5 75.5q62 72 136 140l149 137l46.5 43t44.5 43l13 13.5t13 15.5t10 15t3 13q-2 5 -14 5h-19q-29 -2 -58.5 -10t-58 -20t-55.5 -26l-51 -27q-56 -31 -106 -64t-98 -69q-5 -3 -13.5 -10.5t-18.5 -14t-20 -10
t-16 2.5q-3 4 0 8.5t9.5 9.5l13.5 10t12 8l96 66t102 62q46 26 96.5 51t104.5 43q17 6 37 11t39.5 8t37 1.5t28.5 -8.5q15 -10 15.5 -26.5t-8 -35.5t-21.5 -38l-23 -34q-27 -39 -62.5 -77l-71.5 -76l-106 -107l-107 -107l-64 -70q-6 -7 -14 -15.5t-14 -17t-9 -17t-1 -14.5
q4 -10 22 -12t34 -1q30 0 61 8.5t62 20.5q116 46 213.5 110.5t184.5 130.5q57 57 119 110.5t131 107.5l90.5 66.5t95.5 64.5q14 10 30.5 19.5t30.5 19.5q6 3 11 6t12 4q12 2 13 -5t-10 -13zM1082 841l189.5 46l191.5 46q16 4 29 1.5t18.5 -9t2 -16t-20.5 -18.5
q-14 -8 -32 -11l-31 -4l-243 -40l-86 -14l-18 -3q-17 -3 -17.5 7t17.5 15z" />
    <glyph glyph-name="agrave" unicode="&#xe0;" horiz-adv-x="794" 
d="M955 229l-90 -64.5t-95 -63t-101.5 -57t-109.5 -46.5q-21 -8 -41.5 -13.5t-38.5 -6.5t-32 3.5t-23 17.5t-9 30t5 35.5t14.5 37t19.5 35.5l18 28l-64 -42.5l-66 -40.5q-24 -14 -55 -30t-65 -29.5t-68 -22.5t-62 -10t-49 8.5t-28 33.5q-11 32 2.5 69t41.5 75.5t66 75
t76 68.5q37 30 82.5 62t97 59t107.5 46t113 25q60 6 96.5 -12t32.5 -55q-3 -17 -9 -33l29 21q17 12 41 27t51 28t54.5 21.5t51.5 7.5q9 0 10 -3.5t-2 -8t-8 -9.5t-9 -8l-34.5 -29.5l-33.5 -28.5l-92.5 -85.5l-88.5 -87.5l-53.5 -54l-51.5 -55l-26 -29.5l-27.5 -31t-24 -31
t-14.5 -30.5q-2 -8 2.5 -12t12.5 -5.5t19.5 0t22.5 4.5q41 10 82.5 32.5t73.5 41.5q40 23 77 47.5l73 50.5l75 54q13 9 24 4t0 -14zM677 378q12 14 20.5 30t10.5 31t-4 27t-23 18q-19 6 -40 5.5t-43 -6.5t-43 -15.5t-39 -21.5q-49 -30 -92 -63.5l-82 -66.5
q-45 -36 -85 -72.5t-76 -74.5l-31.5 -34t-29.5 -34q-15 -17 -30 -37t-9 -36q4 -15 24 -16.5t45 4.5t50 15.5t41 17.5q56 26 106 57.5l97 63.5l36.5 25.5t35.5 26.5q34 40 74.5 79t86.5 77zM1043 683l-154.5 31l-154.5 31q-14 3 -19 10.5t-1 16.5t15.5 17t30.5 11
q14 2 27.5 -2.5l24.5 -8.5l177 -59l66 -21q2 -1 5.5 -1.5t5.5 -2.5q7 -2 7 -6t-4 -8t-11 -7t-15 -1z" />
    <glyph glyph-name="aacute" unicode="&#xe1;" horiz-adv-x="794" 
d="M955 229l-90 -64.5t-95 -63t-101.5 -57t-109.5 -46.5q-21 -8 -41.5 -13.5t-38.5 -6.5t-32 3.5t-23 17.5t-9 30t5 35.5t14.5 37t19.5 35.5l18 28l-64 -42.5l-66 -40.5q-24 -14 -55 -30t-65 -29.5t-68 -22.5t-62 -10t-49 8.5t-28 33.5q-11 32 2.5 69t41.5 75.5t66 75
t76 68.5q37 30 82.5 62t97 59t107.5 46t113 25q60 6 96.5 -12t32.5 -55q-3 -17 -9 -33l29 21q17 12 41 27t51 28t54.5 21.5t51.5 7.5q9 0 10 -3.5t-2 -8t-8 -9.5t-9 -8l-34.5 -29.5l-33.5 -28.5l-92.5 -85.5l-88.5 -87.5l-53.5 -54l-51.5 -55l-26 -29.5l-27.5 -31t-24 -31
t-14.5 -30.5q-2 -8 2.5 -12t12.5 -5.5t19.5 0t22.5 4.5q41 10 82.5 32.5t73.5 41.5q40 23 77 47.5l73 50.5l75 54q13 9 24 4t0 -14zM677 378q12 14 20.5 30t10.5 31t-4 27t-23 18q-19 6 -40 5.5t-43 -6.5t-43 -15.5t-39 -21.5q-49 -30 -92 -63.5l-82 -66.5
q-45 -36 -85 -72.5t-76 -74.5l-31.5 -34t-29.5 -34q-15 -17 -30 -37t-9 -36q4 -15 24 -16.5t45 4.5t50 15.5t41 17.5q56 26 106 57.5l97 63.5l36.5 25.5t35.5 26.5q34 40 74.5 79t86.5 77zM780 705l189.5 46l191.5 46q16 4 29 1.5t18.5 -9t2 -16t-20.5 -18.5q-14 -8 -32 -11
l-31 -4l-243 -40l-86 -14l-18 -3q-17 -3 -17.5 7t17.5 15z" />
    <glyph glyph-name="acircumflex" unicode="&#xe2;" horiz-adv-x="794" 
d="M955 229l-90 -64.5t-95 -63t-101.5 -57t-109.5 -46.5q-21 -8 -41.5 -13.5t-38.5 -6.5t-32 3.5t-23 17.5t-9 30t5 35.5t14.5 37t19.5 35.5l18 28l-64 -42.5l-66 -40.5q-24 -14 -55 -30t-65 -29.5t-68 -22.5t-62 -10t-49 8.5t-28 33.5q-11 32 2.5 69t41.5 75.5t66 75
t76 68.5q37 30 82.5 62t97 59t107.5 46t113 25q60 6 96.5 -12t32.5 -55q-3 -17 -9 -33l29 21q17 12 41 27t51 28t54.5 21.5t51.5 7.5q9 0 10 -3.5t-2 -8t-8 -9.5t-9 -8l-34.5 -29.5l-33.5 -28.5l-92.5 -85.5l-88.5 -87.5l-53.5 -54l-51.5 -55l-26 -29.5l-27.5 -31t-24 -31
t-14.5 -30.5q-2 -8 2.5 -12t12.5 -5.5t19.5 0t22.5 4.5q41 10 82.5 32.5t73.5 41.5q40 23 77 47.5l73 50.5l75 54q13 9 24 4t0 -14zM677 378q12 14 20.5 30t10.5 31t-4 27t-23 18q-19 6 -40 5.5t-43 -6.5t-43 -15.5t-39 -21.5q-49 -30 -92 -63.5l-82 -66.5
q-45 -36 -85 -72.5t-76 -74.5l-31.5 -34t-29.5 -34q-15 -17 -30 -37t-9 -36q4 -15 24 -16.5t45 4.5t50 15.5t41 17.5q56 26 106 57.5l97 63.5l36.5 25.5t35.5 26.5q34 40 74.5 79t86.5 77zM752 645q-16 -1 -13 8t16 15l14 6q7 3 14 7q29 12 56 24.5l55 24.5q27 13 55 25
l55 24q6 3 15 7t18 7t16 2.5t8 -7.5q3 -29 8 -57l10 -57q1 -5 -0.5 -10t-10.5 -10q-16 -7 -22 -2.5t-8 11.5l-10 65l-5 35l-133 -60l-89 -40l-24 -11t-25 -7z" />
    <glyph glyph-name="atilde" unicode="&#xe3;" horiz-adv-x="794" 
d="M955 229l-90 -64.5t-95 -63t-101.5 -57t-109.5 -46.5q-21 -8 -41.5 -13.5t-38.5 -6.5t-32 3.5t-23 17.5t-9 30t5 35.5t14.5 37t19.5 35.5l18 28l-64 -42.5l-66 -40.5q-24 -14 -55 -30t-65 -29.5t-68 -22.5t-62 -10t-49 8.5t-28 33.5q-11 32 2.5 69t41.5 75.5t66 75
t76 68.5q37 30 82.5 62t97 59t107.5 46t113 25q60 6 96.5 -12t32.5 -55q-3 -17 -9 -33l29 21q17 12 41 27t51 28t54.5 21.5t51.5 7.5q9 0 10 -3.5t-2 -8t-8 -9.5t-9 -8l-34.5 -29.5l-33.5 -28.5l-92.5 -85.5l-88.5 -87.5l-53.5 -54l-51.5 -55l-26 -29.5l-27.5 -31t-24 -31
t-14.5 -30.5q-2 -8 2.5 -12t12.5 -5.5t19.5 0t22.5 4.5q41 10 82.5 32.5t73.5 41.5q40 23 77 47.5l73 50.5l75 54q13 9 24 4t0 -14zM677 378q12 14 20.5 30t10.5 31t-4 27t-23 18q-19 6 -40 5.5t-43 -6.5t-43 -15.5t-39 -21.5q-49 -30 -92 -63.5l-82 -66.5
q-45 -36 -85 -72.5t-76 -74.5l-31.5 -34t-29.5 -34q-15 -17 -30 -37t-9 -36q4 -15 24 -16.5t45 4.5t50 15.5t41 17.5q56 26 106 57.5l97 63.5l36.5 25.5t35.5 26.5q34 40 74.5 79t86.5 77zM741 711q33 21 72 40t80 29q43 11 75 3t46 -29q8 -13 21.5 -21t41.5 -4q23 2 46 10
t44 17q4 2 10 3.5t10.5 1.5t6 -2t-2.5 -7q-5 -7 -18.5 -13.5t-21.5 -11.5q-20 -10 -40 -18.5t-41 -14.5q-45 -13 -81 -8t-53 25q-6 7 -11 13.5t-12.5 11t-19.5 5.5t-30 -2q-22 -4 -44 -12l-42 -16q-5 -3 -13 -7t-14 -6q-10 -2 -13.5 3t4.5 10z" />
    <glyph glyph-name="adieresis" unicode="&#xe4;" horiz-adv-x="794" 
d="M955 229l-90 -64.5t-95 -63t-101.5 -57t-109.5 -46.5q-21 -8 -41.5 -13.5t-38.5 -6.5t-32 3.5t-23 17.5t-9 30t5 35.5t14.5 37t19.5 35.5l18 28l-64 -42.5l-66 -40.5q-24 -14 -55 -30t-65 -29.5t-68 -22.5t-62 -10t-49 8.5t-28 33.5q-11 32 2.5 69t41.5 75.5t66 75
t76 68.5q37 30 82.5 62t97 59t107.5 46t113 25q60 6 96.5 -12t32.5 -55q-3 -17 -9 -33l29 21q17 12 41 27t51 28t54.5 21.5t51.5 7.5q9 0 10 -3.5t-2 -8t-8 -9.5t-9 -8l-34.5 -29.5l-33.5 -28.5l-92.5 -85.5l-88.5 -87.5l-53.5 -54l-51.5 -55l-26 -29.5l-27.5 -31t-24 -31
t-14.5 -30.5q-2 -8 2.5 -12t12.5 -5.5t19.5 0t22.5 4.5q41 10 82.5 32.5t73.5 41.5q40 23 77 47.5l73 50.5l75 54q13 9 24 4t0 -14zM677 378q12 14 20.5 30t10.5 31t-4 27t-23 18q-19 6 -40 5.5t-43 -6.5t-43 -15.5t-39 -21.5q-49 -30 -92 -63.5l-82 -66.5
q-45 -36 -85 -72.5t-76 -74.5l-31.5 -34t-29.5 -34q-15 -17 -30 -37t-9 -36q4 -15 24 -16.5t45 4.5t50 15.5t41 17.5q56 26 106 57.5l97 63.5l36.5 25.5t35.5 26.5q34 40 74.5 79t86.5 77zM794 660q-32 0 -41 13.5t0 30t33 30.5t56 14t40.5 -14t-0.5 -30.5t-32.5 -30
t-55.5 -13.5zM1010 660q-32 0 -41 13.5t0 30t33 30.5t56 14t40.5 -14t-0.5 -30.5t-32.5 -30t-55.5 -13.5z" />
    <glyph glyph-name="aring" unicode="&#xe5;" horiz-adv-x="794" 
d="M955 229l-90 -64.5t-95 -63t-101.5 -57t-109.5 -46.5q-21 -8 -41.5 -13.5t-38.5 -6.5t-32 3.5t-23 17.5t-9 30t5 35.5t14.5 37t19.5 35.5l18 28l-64 -42.5l-66 -40.5q-24 -14 -55 -30t-65 -29.5t-68 -22.5t-62 -10t-49 8.5t-28 33.5q-11 32 2.5 69t41.5 75.5t66 75
t76 68.5q37 30 82.5 62t97 59t107.5 46t113 25q60 6 96.5 -12t32.5 -55q-3 -17 -9 -33l29 21q17 12 41 27t51 28t54.5 21.5t51.5 7.5q9 0 10 -3.5t-2 -8t-8 -9.5t-9 -8l-34.5 -29.5l-33.5 -28.5l-92.5 -85.5l-88.5 -87.5l-53.5 -54l-51.5 -55l-26 -29.5l-27.5 -31t-24 -31
t-14.5 -30.5q-2 -8 2.5 -12t12.5 -5.5t19.5 0t22.5 4.5q41 10 82.5 32.5t73.5 41.5q40 23 77 47.5l73 50.5l75 54q13 9 24 4t0 -14zM677 378q12 14 20.5 30t10.5 31t-4 27t-23 18q-19 6 -40 5.5t-43 -6.5t-43 -15.5t-39 -21.5q-49 -30 -92 -63.5l-82 -66.5
q-45 -36 -85 -72.5t-76 -74.5l-31.5 -34t-29.5 -34q-15 -17 -30 -37t-9 -36q4 -15 24 -16.5t45 4.5t50 15.5t41 17.5q56 26 106 57.5l97 63.5l36.5 25.5t35.5 26.5q34 40 74.5 79t86.5 77zM914 630q-47 0 -68.5 22.5t-5.5 53.5q9 15 25.5 29t38 24t45.5 16t47 6
q47 0 67.5 -22t3.5 -53q-8 -15 -24.5 -29t-37.5 -24.5t-44.5 -16.5t-46.5 -6zM983 756q-37 0 -64 -16t-37.5 -34.5t-0.5 -34.5t46 -16q37 0 64 16t37.5 34.5t0.5 34.5t-46 16z" />
    <glyph glyph-name="ae" unicode="&#xe6;" horiz-adv-x="1043" 
d="M1200 228q-79 -63 -169.5 -119t-203.5 -88q-54 -16 -107 -23t-102 -6q-52 1 -80.5 21t-36.5 50q-6 24 -0.5 50.5t19.5 53.5h-2l5 7l11 19q-80 -59 -171 -111q-24 -14 -55 -30t-65 -29.5t-67.5 -22.5t-62 -10t-49.5 8.5t-28 33.5q-11 32 2.5 69t41.5 75.5t66 75t76 68.5
q37 30 83 62t97.5 59t107.5 46t113 25q30 3 54.5 0t42 -12t26 -23t6.5 -32l-2 -13q4 4 7 7.5t8 7.5q33 32 78 57q9 5 21 9t23 6q12 2 13.5 -4.5t-7.5 -12.5q-22 -14 -34.5 -30t-26.5 -32q65 32 135 53.5t137 21.5q50 0 76.5 -17t32.5 -42.5t-6.5 -56t-39.5 -58.5
q-28 -29 -66.5 -57t-83 -50t-93.5 -36.5t-97 -15.5q-48 -2 -84 10t-47 38q-29 -29 -53 -58.5t-41 -59.5q-9 -16 -14.5 -32t-3.5 -29.5t13 -23.5t35 -14q47 -8 102.5 1t112 28.5t109 46t93.5 52.5q32 21 61.5 43t56.5 45q8 8 21 16.5t27 3.5q8 -2 0.5 -8.5t-15.5 -12.5z
M636 322l39.5 37l34.5 34q19 27 20 53.5t-28 37.5q-18 6 -39 5.5t-43 -6.5t-43 -15.5t-40 -21.5q-48 -30 -91 -63.5l-83 -66.5q-44 -36 -84 -72.5t-76 -74.5l-62 -68l-15 -17.5t-14 -19.5t-9.5 -19t-0.5 -17q4 -15 24 -16.5t45 4.5t50.5 15.5t41.5 17.5q55 26 105.5 57.5
t96.5 63.5l45 31.5l44 32.5l11 10.5t13 10.5q12 17 26 33.5t32 33.5zM821 216q55 5 106.5 30t92.5 54q22 16 40.5 31.5t36.5 32.5l36 35t28 36q15 27 -2.5 43.5t-60.5 14.5q-27 -2 -53.5 -11t-51 -22t-47 -28l-41.5 -28q-48 -33 -90.5 -67.5t-82.5 -70.5l-4 -4q1 -23 26 -36
t67 -10z" />
    <glyph glyph-name="ccedilla" unicode="&#xe7;" horiz-adv-x="606" 
d="M38 -127q-25 0 -47 7.5t-24 24.5q0 7 6.5 15.5t20.5 9.5q9 1 11.5 -1t2.5 -5v-7q0 -4 3 -7q4 -6 14 -9t22 -3.5t25.5 1.5t24.5 7q32 12 40 29.5t-19 24.5q-7 2 -17 2.5t-12 6.5q0 5 5 9l10 8l21 16q-43 15 -57 50q-12 32 -2 69t35 75.5t61.5 76t77.5 69.5q43 33 93 64
t105 54q56 23 119.5 40.5t119.5 14.5q57 -2 80 -27t14 -62q-10 -37 -43.5 -74t-77.5 -69l-21 -15q-14 -10 -32 -21l-37.5 -22t-37 -17t-30.5 -6t-18 11q-3 7 2.5 14t14.5 13.5t20 12.5l20 11q50 30 96 64l39.5 30.5t37.5 34t26.5 35t6.5 33.5q-3 18 -21 24.5t-42.5 6
t-52.5 -8t-51 -18.5q-52 -23 -96 -55l-84 -63q-45 -35 -84 -71t-73 -74q-17 -18 -37 -42.5t-34 -49t-17 -46.5t14 -37q9 6 17.5 7t14 -1t5.5 -6.5t-9 -10.5q-2 -2 -3 -2q20 -6 45.5 -5.5t52.5 4.5t54 10.5t51 13.5q74 23 141 57.5t125 75.5l45 32.5t42 34.5q9 7 17.5 9.5
t13.5 1t4 -6.5t-11 -13q-76 -61 -161 -115t-192 -87q-57 -18 -113 -26t-110 -7q-8 0 -15.5 0.5t-14.5 1.5q-4 -2 -7.5 -5t-7.5 -6q34 -9 35.5 -27t-18 -37t-53 -33t-69.5 -14z" />
    <glyph glyph-name="egrave" unicode="&#xe8;" horiz-adv-x="612" 
d="M765 228q-79 -63 -169.5 -119t-203.5 -88q-54 -16 -107 -23t-102 -6q-52 1 -80.5 21t-36.5 50q-8 34 5 72t41 77t67.5 76.5t83.5 69.5q39 28 87 56.5t101.5 51t109 36t108.5 13.5q50 0 76.5 -17t32.5 -42.5t-6.5 -56t-39.5 -58.5q-28 -29 -66.5 -57t-83 -50t-93.5 -36.5
t-97 -15.5q-48 -2 -84 10t-47 38q-29 -29 -53 -58.5t-41 -59.5q-9 -16 -14.5 -32t-3.5 -29.5t13 -23.5t35 -14q47 -8 102.5 1t112 28.5t109 46t93.5 52.5q32 21 61.5 43t56.5 45q8 8 21 16.5t27 3.5q8 -2 0.5 -8.5t-15.5 -12.5zM386 216q55 5 106.5 30t92.5 54
q22 16 40.5 31.5t36.5 32.5l36 35t28 36q15 27 -2.5 43.5t-60.5 14.5q-27 -2 -53.5 -11t-51 -22t-47 -28l-41.5 -28q-48 -33 -90.5 -67.5t-82.5 -70.5l-4 -4q1 -23 26 -36t67 -10zM968 683l-154.5 31l-154.5 31q-14 3 -19 10.5t-1 16.5t15.5 17t30.5 11q14 2 27.5 -2.5
l24.5 -8.5l177 -59l66 -21q2 -1 5.5 -1.5t5.5 -2.5q7 -2 7 -6t-4 -8t-11 -7t-15 -1z" />
    <glyph glyph-name="eacute" unicode="&#xe9;" horiz-adv-x="606" 
d="M765 228q-79 -63 -169.5 -119t-203.5 -88q-54 -16 -107 -23t-102 -6q-52 1 -80.5 21t-36.5 50q-8 34 5 72t41 77t67.5 76.5t83.5 69.5q39 28 87 56.5t101.5 51t109 36t108.5 13.5q50 0 76.5 -17t32.5 -42.5t-6.5 -56t-39.5 -58.5q-28 -29 -66.5 -57t-83 -50t-93.5 -36.5
t-97 -15.5q-48 -2 -84 10t-47 38q-29 -29 -53 -58.5t-41 -59.5q-9 -16 -14.5 -32t-3.5 -29.5t13 -23.5t35 -14q47 -8 102.5 1t112 28.5t109 46t93.5 52.5q32 21 61.5 43t56.5 45q8 8 21 16.5t27 3.5q8 -2 0.5 -8.5t-15.5 -12.5zM386 216q55 5 106.5 30t92.5 54
q22 16 40.5 31.5t36.5 32.5l36 35t28 36q15 27 -2.5 43.5t-60.5 14.5q-27 -2 -53.5 -11t-51 -22t-47 -28l-41.5 -28q-48 -33 -90.5 -67.5t-82.5 -70.5l-4 -4q1 -23 26 -36t67 -10zM701 705l189.5 46l191.5 46q16 4 29 1.5t18.5 -9t2 -16t-20.5 -18.5q-14 -8 -32 -11l-31 -4
l-243 -40l-86 -14l-18 -3q-17 -3 -17.5 7t17.5 15z" />
    <glyph glyph-name="ecircumflex" unicode="&#xea;" horiz-adv-x="606" 
d="M765 228q-79 -63 -169.5 -119t-203.5 -88q-54 -16 -107 -23t-102 -6q-52 1 -80.5 21t-36.5 50q-8 34 5 72t41 77t67.5 76.5t83.5 69.5q39 28 87 56.5t101.5 51t109 36t108.5 13.5q50 0 76.5 -17t32.5 -42.5t-6.5 -56t-39.5 -58.5q-28 -29 -66.5 -57t-83 -50t-93.5 -36.5
t-97 -15.5q-48 -2 -84 10t-47 38q-29 -29 -53 -58.5t-41 -59.5q-9 -16 -14.5 -32t-3.5 -29.5t13 -23.5t35 -14q47 -8 102.5 1t112 28.5t109 46t93.5 52.5q32 21 61.5 43t56.5 45q8 8 21 16.5t27 3.5q8 -2 0.5 -8.5t-15.5 -12.5zM386 216q55 5 106.5 30t92.5 54
q22 16 40.5 31.5t36.5 32.5l36 35t28 36q15 27 -2.5 43.5t-60.5 14.5q-27 -2 -53.5 -11t-51 -22t-47 -28l-41.5 -28q-48 -33 -90.5 -67.5t-82.5 -70.5l-4 -4q1 -23 26 -36t67 -10zM622 645q-16 -1 -13 8t16 15l14 6q7 3 14 7q29 12 56 24.5l55 24.5q27 13 55 25l55 24
q6 3 15 7t18 7t16 2.5t8 -7.5q3 -29 8 -57l10 -57q1 -5 -0.5 -10t-10.5 -10q-16 -7 -22 -2.5t-8 11.5l-10 65l-5 35l-133 -60l-89 -40l-24 -11t-25 -7z" />
    <glyph glyph-name="edieresis" unicode="&#xeb;" horiz-adv-x="606" 
d="M765 228q-79 -63 -169.5 -119t-203.5 -88q-54 -16 -107 -23t-102 -6q-52 1 -80.5 21t-36.5 50q-8 34 5 72t41 77t67.5 76.5t83.5 69.5q39 28 87 56.5t101.5 51t109 36t108.5 13.5q50 0 76.5 -17t32.5 -42.5t-6.5 -56t-39.5 -58.5q-28 -29 -66.5 -57t-83 -50t-93.5 -36.5
t-97 -15.5q-48 -2 -84 10t-47 38q-29 -29 -53 -58.5t-41 -59.5q-9 -16 -14.5 -32t-3.5 -29.5t13 -23.5t35 -14q47 -8 102.5 1t112 28.5t109 46t93.5 52.5q32 21 61.5 43t56.5 45q8 8 21 16.5t27 3.5q8 -2 0.5 -8.5t-15.5 -12.5zM386 216q55 5 106.5 30t92.5 54
q22 16 40.5 31.5t36.5 32.5l36 35t28 36q15 27 -2.5 43.5t-60.5 14.5q-27 -2 -53.5 -11t-51 -22t-47 -28l-41.5 -28q-48 -33 -90.5 -67.5t-82.5 -70.5l-4 -4q1 -23 26 -36t67 -10zM694 660q-32 0 -41 13.5t0 30t33 30.5t56 14t40.5 -14t-0.5 -30.5t-32.5 -30t-55.5 -13.5z
M910 660q-32 0 -41 13.5t0 30t33 30.5t56 14t40.5 -14t-0.5 -30.5t-32.5 -30t-55.5 -13.5z" />
    <glyph glyph-name="igrave" unicode="&#xec;" horiz-adv-x="395" 
d="M552 229l-89 -64.5t-94.5 -63t-101 -57t-109.5 -46.5q-23 -8 -45.5 -13.5t-41 -6t-33 5.5t-21.5 20t-6 30.5t7 34t15.5 35t20.5 34.5q52 78 129.5 154.5t164.5 148.5q9 7 28.5 24.5t42.5 32.5t44.5 22t33.5 -8q4 -6 1 -13.5t-9 -15.5t-13.5 -16l-13.5 -14l-33 -37.5
l-34 -37.5l-135 -148l-47 -52l-48 -52l-46 -55l-20 -26q-10 -14 -9 -25q0 -8 9.5 -10.5t23 -1t27.5 5t23 6.5q38 16 75.5 36t69.5 40q40 23 75.5 47l70.5 49q17 11 33.5 23l32.5 24q6 4 12.5 5t11 -1t4.5 -6t-6 -8zM738 683l-154.5 31l-154.5 31q-14 3 -19 10.5t-1 16.5
t15.5 17t30.5 11q14 2 27.5 -2.5l24.5 -8.5l177 -59l66 -21q2 -1 5.5 -1.5t5.5 -2.5q7 -2 7 -6t-4 -8t-11 -7t-15 -1z" />
    <glyph glyph-name="iacute" unicode="&#xed;" horiz-adv-x="395" 
d="M552 229l-89 -64.5t-94.5 -63t-101 -57t-109.5 -46.5q-23 -8 -45.5 -13.5t-41 -6t-33 5.5t-21.5 20t-6 30.5t7 34t15.5 35t20.5 34.5q52 78 129.5 154.5t164.5 148.5q9 7 28.5 24.5t42.5 32.5t44.5 22t33.5 -8q4 -6 1 -13.5t-9 -15.5t-13.5 -16l-13.5 -14l-33 -37.5
l-34 -37.5l-135 -148l-47 -52l-48 -52l-46 -55l-20 -26q-10 -14 -9 -25q0 -8 9.5 -10.5t23 -1t27.5 5t23 6.5q38 16 75.5 36t69.5 40q40 23 75.5 47l70.5 49q17 11 33.5 23l32.5 24q6 4 12.5 5t11 -1t4.5 -6t-6 -8zM444 705l189.5 46l191.5 46q16 4 29 1.5t18.5 -9t2 -16
t-20.5 -18.5q-14 -8 -32 -11l-31 -4l-243 -40l-86 -14l-18 -3q-17 -3 -17.5 7t17.5 15z" />
    <glyph glyph-name="icircumflex" unicode="&#xee;" horiz-adv-x="395" 
d="M552 229l-89 -64.5t-94.5 -63t-101 -57t-109.5 -46.5q-23 -8 -45.5 -13.5t-41 -6t-33 5.5t-21.5 20t-6 30.5t7 34t15.5 35t20.5 34.5q52 78 129.5 154.5t164.5 148.5q9 7 28.5 24.5t42.5 32.5t44.5 22t33.5 -8q4 -6 1 -13.5t-9 -15.5t-13.5 -16l-13.5 -14l-33 -37.5
l-34 -37.5l-135 -148l-47 -52l-48 -52l-46 -55l-20 -26q-10 -14 -9 -25q0 -8 9.5 -10.5t23 -1t27.5 5t23 6.5q38 16 75.5 36t69.5 40q40 23 75.5 47l70.5 49q17 11 33.5 23l32.5 24q6 4 12.5 5t11 -1t4.5 -6t-6 -8zM428 645q-16 -1 -13 8t16 15l14 6q7 3 14 7q29 12 56 24.5
l55 24.5q27 13 55 25l55 24q6 3 15 7t18 7t16 2.5t8 -7.5q3 -29 8 -57l10 -57q1 -5 -0.5 -10t-10.5 -10q-16 -7 -22 -2.5t-8 11.5l-10 65l-5 35l-133 -60l-89 -40l-24 -11t-25 -7z" />
    <glyph glyph-name="idieresis" unicode="&#xef;" horiz-adv-x="389" 
d="M552 229l-89 -64.5t-94.5 -63t-101 -57t-109.5 -46.5q-23 -8 -45.5 -13.5t-41 -6t-33 5.5t-21.5 20t-6 30.5t7 34t15.5 35t20.5 34.5q52 78 129.5 154.5t164.5 148.5q9 7 28.5 24.5t42.5 32.5t44.5 22t33.5 -8q4 -6 1 -13.5t-9 -15.5t-13.5 -16l-13.5 -14l-33 -37.5
l-34 -37.5l-135 -148l-47 -52l-48 -52l-46 -55l-20 -26q-10 -14 -9 -25q0 -8 9.5 -10.5t23 -1t27.5 5t23 6.5q38 16 75.5 36t69.5 40q40 23 75.5 47l70.5 49q17 11 33.5 23l32.5 24q6 4 12.5 5t11 -1t4.5 -6t-6 -8zM506 660q-32 0 -41 13.5t0 30t33 30.5t56 14t40.5 -14
t-0.5 -30.5t-32.5 -30t-55.5 -13.5zM722 660q-32 0 -41 13.5t0 30t33 30.5t56 14t40.5 -14t-0.5 -30.5t-32.5 -30t-55.5 -13.5z" />
    <glyph glyph-name="ntilde" unicode="&#xf1;" horiz-adv-x="705" 
d="M-80 7l219.5 239.5l220.5 239.5l24 23.5t28 22.5t32.5 14t38.5 -2q19 -6 22 -15.5t-3.5 -20.5t-18.5 -23.5l-22 -22.5l-142.5 -138l-142.5 -138l-35 -35l89.5 66.5l90.5 64.5l99.5 67.5t103.5 64.5l49.5 27l50.5 26l57 26.5t60 20.5q25 6 47 4t33 -15q9 -14 3 -32
t-17 -35q-21 -37 -54.5 -72.5l-69.5 -70.5q-40 -38 -82 -74l-83 -73q-20 -17 -38.5 -35l-36.5 -35l-14 -14q-8 -8 -13 -16t-5 -14.5t11 -9.5q13 -4 29.5 -3t34.5 5.5t35.5 11l32.5 12.5q53 23 100 53.5t90 61.5q43 30 80 62q8 5 15.5 12t18.5 6q9 0 11 -5.5t-5 -11.5
q-5 -6 -16 -13l-20 -13l-45.5 -33.5l-47.5 -33.5q-48 -32 -98 -62t-107 -53q-32 -14 -66 -23t-66 -9q-29 0 -43.5 8.5t-19 22t-0.5 30t12 32.5q19 37 52 73.5t68 71.5q46 46 98 90l104 89l34.5 28.5t33.5 29.5l9 9q5 5 6.5 8.5t-2 5t-13.5 1.5q-23 -1 -47.5 -8.5
t-47.5 -18.5t-45 -23.5l-40 -23.5q-93 -54 -177 -112.5l-165 -118.5l-80.5 -61l-78.5 -62q-15 -11 -29.5 -23l-28.5 -24l-13 -12q-11 -11 -27 -15.5t-28.5 -3t-17 8.5t7.5 19zM645 711q33 21 72 40t80 29q43 11 75 3t46 -29q8 -13 21.5 -21t41.5 -4q23 2 46 10t44 17
q4 2 10 3.5t10.5 1.5t6 -2t-2.5 -7q-5 -7 -18.5 -13.5t-21.5 -11.5q-20 -10 -40 -18.5t-41 -14.5q-45 -13 -81 -8t-53 25q-6 7 -11 13.5t-12.5 11t-19.5 5.5t-30 -2q-22 -4 -44 -12l-42 -16q-5 -3 -13 -7t-14 -6q-10 -2 -13.5 3t4.5 10z" />
    <glyph glyph-name="ograve" unicode="&#xf2;" horiz-adv-x="614" 
d="M153 264q29 32 66 63.5t80 60t91.5 52.5t100.5 42q51 18 103 27t96 1q43 -8 64 -28t25 -49q4 -31 -8.5 -65.5t-37 -69t-58.5 -68t-72 -63.5q-37 -30 -85.5 -61t-103.5 -56.5t-112.5 -42t-112.5 -16.5q-50 0 -78 13.5t-39 35.5t-8 51t16 59t32.5 60t40.5 54zM257 242
q-38 -35 -71.5 -73.5t-50.5 -76.5q-6 -13 -8 -27.5t2.5 -26.5t17.5 -19.5t38 -5.5q28 3 56.5 12t55 22t51 28.5l45.5 29.5q50 33 93 68t81 73q51 48 93 101l25.5 35t22 37.5t9 35.5t-12.5 29q-13 11 -35 11t-47 -7t-49.5 -17.5t-42.5 -20.5q-54 -29 -100.5 -63.5
t-88.5 -69.5q-22 -18 -43 -37zM957 683l-154.5 31l-154.5 31q-14 3 -19 10.5t-1 16.5t15.5 17t30.5 11q14 2 27.5 -2.5l24.5 -8.5l177 -59l66 -21q2 -1 5.5 -1.5t5.5 -2.5q7 -2 7 -6t-4 -8t-11 -7t-15 -1z" />
    <glyph glyph-name="oacute" unicode="&#xf3;" horiz-adv-x="614" 
d="M153 264q29 32 66 63.5t80 60t91.5 52.5t100.5 42q51 18 103 27t96 1q43 -8 64 -28t25 -49q4 -31 -8.5 -65.5t-37 -69t-58.5 -68t-72 -63.5q-37 -30 -85.5 -61t-103.5 -56.5t-112.5 -42t-112.5 -16.5q-50 0 -78 13.5t-39 35.5t-8 51t16 59t32.5 60t40.5 54zM257 242
q-38 -35 -71.5 -73.5t-50.5 -76.5q-6 -13 -8 -27.5t2.5 -26.5t17.5 -19.5t38 -5.5q28 3 56.5 12t55 22t51 28.5l45.5 29.5q50 33 93 68t81 73q51 48 93 101l25.5 35t22 37.5t9 35.5t-12.5 29q-13 11 -35 11t-47 -7t-49.5 -17.5t-42.5 -20.5q-54 -29 -100.5 -63.5
t-88.5 -69.5q-22 -18 -43 -37zM659 705l189.5 46l191.5 46q16 4 29 1.5t18.5 -9t2 -16t-20.5 -18.5q-14 -8 -32 -11l-31 -4l-243 -40l-86 -14l-18 -3q-17 -3 -17.5 7t17.5 15z" />
    <glyph glyph-name="ocircumflex" unicode="&#xf4;" horiz-adv-x="614" 
d="M153 264q29 32 66 63.5t80 60t91.5 52.5t100.5 42q51 18 103 27t96 1q43 -8 64 -28t25 -49q4 -31 -8.5 -65.5t-37 -69t-58.5 -68t-72 -63.5q-37 -30 -85.5 -61t-103.5 -56.5t-112.5 -42t-112.5 -16.5q-50 0 -78 13.5t-39 35.5t-8 51t16 59t32.5 60t40.5 54zM257 242
q-38 -35 -71.5 -73.5t-50.5 -76.5q-6 -13 -8 -27.5t2.5 -26.5t17.5 -19.5t38 -5.5q28 3 56.5 12t55 22t51 28.5l45.5 29.5q50 33 93 68t81 73q51 48 93 101l25.5 35t22 37.5t9 35.5t-12.5 29q-13 11 -35 11t-47 -7t-49.5 -17.5t-42.5 -20.5q-54 -29 -100.5 -63.5
t-88.5 -69.5q-22 -18 -43 -37zM628 645q-16 -1 -13 8t16 15l14 6q7 3 14 7q29 12 56 24.5l55 24.5q27 13 55 25l55 24q6 3 15 7t18 7t16 2.5t8 -7.5q3 -29 8 -57l10 -57q1 -5 -0.5 -10t-10.5 -10q-16 -7 -22 -2.5t-8 11.5l-10 65l-5 35l-133 -60l-89 -40l-24 -11t-25 -7z
" />
    <glyph glyph-name="otilde" unicode="&#xf5;" horiz-adv-x="614" 
d="M153 264q29 32 66 63.5t80 60t91.5 52.5t100.5 42q51 18 103 27t96 1q43 -8 64 -28t25 -49q4 -31 -8.5 -65.5t-37 -69t-58.5 -68t-72 -63.5q-37 -30 -85.5 -61t-103.5 -56.5t-112.5 -42t-112.5 -16.5q-50 0 -78 13.5t-39 35.5t-8 51t16 59t32.5 60t40.5 54zM257 242
q-38 -35 -71.5 -73.5t-50.5 -76.5q-6 -13 -8 -27.5t2.5 -26.5t17.5 -19.5t38 -5.5q28 3 56.5 12t55 22t51 28.5l45.5 29.5q50 33 93 68t81 73q51 48 93 101l25.5 35t22 37.5t9 35.5t-12.5 29q-13 11 -35 11t-47 -7t-49.5 -17.5t-42.5 -20.5q-54 -29 -100.5 -63.5
t-88.5 -69.5q-22 -18 -43 -37zM651 711q33 21 72 40t80 29q43 11 75 3t46 -29q8 -13 21.5 -21t41.5 -4q23 2 46 10t44 17q4 2 10 3.5t10.5 1.5t6 -2t-2.5 -7q-5 -7 -18.5 -13.5t-21.5 -11.5q-20 -10 -40 -18.5t-41 -14.5q-45 -13 -81 -8t-53 25q-6 7 -11 13.5t-12.5 11
t-19.5 5.5t-30 -2q-22 -4 -44 -12l-42 -16q-5 -3 -13 -7t-14 -6q-10 -2 -13.5 3t4.5 10z" />
    <glyph glyph-name="odieresis" unicode="&#xf6;" horiz-adv-x="614" 
d="M153 264q29 32 66 63.5t80 60t91.5 52.5t100.5 42q51 18 103 27t96 1q43 -8 64 -28t25 -49q4 -31 -8.5 -65.5t-37 -69t-58.5 -68t-72 -63.5q-37 -30 -85.5 -61t-103.5 -56.5t-112.5 -42t-112.5 -16.5q-50 0 -78 13.5t-39 35.5t-8 51t16 59t32.5 60t40.5 54zM257 242
q-38 -35 -71.5 -73.5t-50.5 -76.5q-6 -13 -8 -27.5t2.5 -26.5t17.5 -19.5t38 -5.5q28 3 56.5 12t55 22t51 28.5l45.5 29.5q50 33 93 68t81 73q51 48 93 101l25.5 35t22 37.5t9 35.5t-12.5 29q-13 11 -35 11t-47 -7t-49.5 -17.5t-42.5 -20.5q-54 -29 -100.5 -63.5
t-88.5 -69.5q-22 -18 -43 -37zM719 660q-32 0 -41 13.5t0 30t33 30.5t56 14t40.5 -14t-0.5 -30.5t-32.5 -30t-55.5 -13.5zM935 660q-32 0 -41 13.5t0 30t33 30.5t56 14t40.5 -14t-0.5 -30.5t-32.5 -30t-55.5 -13.5z" />
    <glyph glyph-name="oslash" unicode="&#xf8;" horiz-adv-x="614" 
d="M153 264q29 32 66 63.5t80 60t91.5 52.5t100.5 42q51 18 103 27t96 1q30 -5 49.5 -17t29.5 -29l100 57l12 7q9 5 16 5t10 -3.5t1 -9t-11 -10.5l-29 -17t-32 -18l-59 -34l2 -8q4 -31 -8.5 -65.5t-37 -69t-58.5 -68t-72 -63.5q-37 -30 -85.5 -61t-103.5 -56.5t-112.5 -42
t-112.5 -16.5q-49 0 -76.5 12.5t-39.5 33.5l-108 -62q-6 -3 -15 -9l-18.5 -12t-19.5 -10.5t-17 -4.5q-17 0 -12.5 9t15.5 15q7 4 12.5 7.5t11.5 6.5l74 42.5l69 39.5q-5 22 1.5 49t19 54.5t30.5 53.5t37 48zM257 242q-36 -33 -67.5 -69t-50.5 -72l573 330q5 15 4 28.5
t-12 24.5q-13 11 -35 11t-47 -7t-49.5 -17.5t-42.5 -20.5q-54 -29 -100.5 -63.5t-88.5 -69.5q-22 -18 -43 -37zM127 67q-3 -22 8.5 -39.5t49.5 -14.5q28 3 56.5 12t55 22t51 28.5l45.5 29.5q50 33 93 68t81 73q51 48 93 101l33 46l-120.5 -69.5l-91.5 -53l-76.5 -44
l-75 -43.5l-88 -50.5z" />
    <glyph glyph-name="ugrave" unicode="&#xf9;" horiz-adv-x="783" 
d="M945 229l-89 -64.5t-94.5 -63t-101 -57t-109.5 -46.5q-23 -8 -45.5 -13.5t-41 -6t-33 5.5t-21.5 20q-8 14 -7 30.5t7.5 34t16 35t20.5 34.5l27 38t31 38l-5 -3l-95 -67t-100 -64q-47 -27 -104.5 -56.5t-114.5 -41.5q-47 -10 -72 3t-23 39q1 35 24.5 73t53.5 73
q66 76 153 151l85.5 71.5t91.5 69.5l40 27t43 25q10 6 21.5 7t19.5 -1t12 -7.5t1 -12.5q-6 -13 -20 -27.5l-25 -26.5l-39 -38.5l-39 -37.5l-70 -65.5l-71 -66.5l-56.5 -52.5l-53.5 -53.5l-27.5 -26.5l-28 -27t-24.5 -27.5t-17 -27q-6 -15 11 -15.5t41 5.5t47.5 15t32.5 13
q53 26 103.5 57.5l97.5 63.5l92 65l89 67q38 38 78.5 74.5t83.5 71.5q9 7 28.5 24.5t42.5 32.5t44.5 22t33.5 -8q4 -6 1 -13.5t-9 -15.5t-13.5 -16l-13.5 -14l-33 -37.5l-34 -37.5l-135 -148l-47 -52l-48 -52l-46 -55l-20 -26q-10 -14 -9 -25q0 -8 9.5 -10.5t23 -1t27.5 5
t23 6.5q38 16 75.5 36t69.5 40q40 23 75.5 47l70.5 49q17 11 33.5 23l32.5 24q6 4 12.5 5t11 -1t4.5 -6t-6 -8zM936 683l-154.5 31l-154.5 31q-14 3 -19 10.5t-1 16.5t15.5 17t30.5 11q14 2 27.5 -2.5l24.5 -8.5l177 -59l66 -21q2 -1 5.5 -1.5t5.5 -2.5q7 -2 7 -6t-4 -8
t-11 -7t-15 -1z" />
    <glyph glyph-name="uacute" unicode="&#xfa;" horiz-adv-x="788" 
d="M945 229l-89 -64.5t-94.5 -63t-101 -57t-109.5 -46.5q-23 -8 -45.5 -13.5t-41 -6t-33 5.5t-21.5 20q-8 14 -7 30.5t7.5 34t16 35t20.5 34.5l27 38t31 38l-5 -3l-95 -67t-100 -64q-47 -27 -104.5 -56.5t-114.5 -41.5q-47 -10 -72 3t-23 39q1 35 24.5 73t53.5 73
q66 76 153 151l85.5 71.5t91.5 69.5l40 27t43 25q10 6 21.5 7t19.5 -1t12 -7.5t1 -12.5q-6 -13 -20 -27.5l-25 -26.5l-39 -38.5l-39 -37.5l-70 -65.5l-71 -66.5l-56.5 -52.5l-53.5 -53.5l-27.5 -26.5l-28 -27t-24.5 -27.5t-17 -27q-6 -15 11 -15.5t41 5.5t47.5 15t32.5 13
q53 26 103.5 57.5l97.5 63.5l92 65l89 67q38 38 78.5 74.5t83.5 71.5q9 7 28.5 24.5t42.5 32.5t44.5 22t33.5 -8q4 -6 1 -13.5t-9 -15.5t-13.5 -16l-13.5 -14l-33 -37.5l-34 -37.5l-135 -148l-47 -52l-48 -52l-46 -55l-20 -26q-10 -14 -9 -25q0 -8 9.5 -10.5t23 -1t27.5 5
t23 6.5q38 16 75.5 36t69.5 40q40 23 75.5 47l70.5 49q17 11 33.5 23l32.5 24q6 4 12.5 5t11 -1t4.5 -6t-6 -8zM726 705l189.5 46l191.5 46q16 4 29 1.5t18.5 -9t2 -16t-20.5 -18.5q-14 -8 -32 -11l-31 -4l-243 -40l-86 -14l-18 -3q-17 -3 -17.5 7t17.5 15z" />
    <glyph glyph-name="ucircumflex" unicode="&#xfb;" horiz-adv-x="783" 
d="M945 229l-89 -64.5t-94.5 -63t-101 -57t-109.5 -46.5q-23 -8 -45.5 -13.5t-41 -6t-33 5.5t-21.5 20q-8 14 -7 30.5t7.5 34t16 35t20.5 34.5l27 38t31 38l-5 -3l-95 -67t-100 -64q-47 -27 -104.5 -56.5t-114.5 -41.5q-47 -10 -72 3t-23 39q1 35 24.5 73t53.5 73
q66 76 153 151l85.5 71.5t91.5 69.5l40 27t43 25q10 6 21.5 7t19.5 -1t12 -7.5t1 -12.5q-6 -13 -20 -27.5l-25 -26.5l-39 -38.5l-39 -37.5l-70 -65.5l-71 -66.5l-56.5 -52.5l-53.5 -53.5l-27.5 -26.5l-28 -27t-24.5 -27.5t-17 -27q-6 -15 11 -15.5t41 5.5t47.5 15t32.5 13
q53 26 103.5 57.5l97.5 63.5l92 65l89 67q38 38 78.5 74.5t83.5 71.5q9 7 28.5 24.5t42.5 32.5t44.5 22t33.5 -8q4 -6 1 -13.5t-9 -15.5t-13.5 -16l-13.5 -14l-33 -37.5l-34 -37.5l-135 -148l-47 -52l-48 -52l-46 -55l-20 -26q-10 -14 -9 -25q0 -8 9.5 -10.5t23 -1t27.5 5
t23 6.5q38 16 75.5 36t69.5 40q40 23 75.5 47l70.5 49q17 11 33.5 23l32.5 24q6 4 12.5 5t11 -1t4.5 -6t-6 -8zM656 645q-16 -1 -13 8t16 15l14 6q7 3 14 7q29 12 56 24.5l55 24.5q27 13 55 25l55 24q6 3 15 7t18 7t16 2.5t8 -7.5q3 -29 8 -57l10 -57q1 -5 -0.5 -10
t-10.5 -10q-16 -7 -22 -2.5t-8 11.5l-10 65l-5 35l-133 -60l-89 -40l-24 -11t-25 -7z" />
    <glyph glyph-name="udieresis" unicode="&#xfc;" horiz-adv-x="788" 
d="M945 229l-89 -64.5t-94.5 -63t-101 -57t-109.5 -46.5q-23 -8 -45.5 -13.5t-41 -6t-33 5.5t-21.5 20q-8 14 -7 30.5t7.5 34t16 35t20.5 34.5l27 38t31 38l-5 -3l-95 -67t-100 -64q-47 -27 -104.5 -56.5t-114.5 -41.5q-47 -10 -72 3t-23 39q1 35 24.5 73t53.5 73
q66 76 153 151l85.5 71.5t91.5 69.5l40 27t43 25q10 6 21.5 7t19.5 -1t12 -7.5t1 -12.5q-6 -13 -20 -27.5l-25 -26.5l-39 -38.5l-39 -37.5l-70 -65.5l-71 -66.5l-56.5 -52.5l-53.5 -53.5l-27.5 -26.5l-28 -27t-24.5 -27.5t-17 -27q-6 -15 11 -15.5t41 5.5t47.5 15t32.5 13
q53 26 103.5 57.5l97.5 63.5l92 65l89 67q38 38 78.5 74.5t83.5 71.5q9 7 28.5 24.5t42.5 32.5t44.5 22t33.5 -8q4 -6 1 -13.5t-9 -15.5t-13.5 -16l-13.5 -14l-33 -37.5l-34 -37.5l-135 -148l-47 -52l-48 -52l-46 -55l-20 -26q-10 -14 -9 -25q0 -8 9.5 -10.5t23 -1t27.5 5
t23 6.5q38 16 75.5 36t69.5 40q40 23 75.5 47l70.5 49q17 11 33.5 23l32.5 24q6 4 12.5 5t11 -1t4.5 -6t-6 -8zM730 660q-32 0 -41 13.5t0 30t33 30.5t56 14t40.5 -14t-0.5 -30.5t-32.5 -30t-55.5 -13.5zM946 660q-32 0 -41 13.5t0 30t33 30.5t56 14t40.5 -14t-0.5 -30.5
t-32.5 -30t-55.5 -13.5z" />
    <glyph glyph-name="yacute" unicode="&#xfd;" horiz-adv-x="644" 
d="M804 227q-36 -30 -80 -55t-92.5 -46.5t-99 -40.5t-100.5 -36l-49 -49l-50 -49l-160.5 -149t-180.5 -142q-44 -30 -94 -57t-105 -44q-29 -9 -58.5 -12.5t-54.5 -2t-44.5 10t-28.5 23.5q-15 23 -7.5 50.5t29 55.5t52.5 55.5t64 50.5q75 53 165.5 92.5t184.5 73.5l81 28.5
l82 26.5l139 144l-36 -21l-37 -20q-43 -22 -96 -41t-102 -24q-23 -2 -38 2.5t-23 13.5t-10.5 21t-0.5 25q7 37 35.5 75.5t62.5 74.5q36 38 76.5 74t85.5 71q35 29 73.5 57t85.5 51q10 5 21 6t19 -1t11.5 -7.5t0.5 -12.5q-3 -11 -14 -22t-20 -22q-48 -53 -104.5 -104
l-110.5 -103l-38 -36.5l-38 -38.5l-35 -36q-4 -5 -11 -12t-13 -15t-8.5 -15t2.5 -11q9 -6 24 -6t32 3t34 8.5t29 11.5q46 20 87 43.5t79 49.5l29.5 20t28.5 21l77.5 75t83.5 74q38 32 85 67t101 56q8 3 19.5 6t21.5 3.5t16.5 -2t4.5 -10.5q-2 -6 -10 -11t-19 -6
q1 -1 -2 -3.5l-6.5 -5.5t-7.5 -5.5t-5 -3.5q-30 -27 -55.5 -54.5l-52.5 -55.5l-132 -140.5l-135 -139.5l50 19q48 17 94 37t89 44l40.5 24.5t37.5 26.5q7 5 14.5 9.5t15.5 1.5q12 -5 1 -14zM-107 -147q-55 -26 -104.5 -57.5t-87.5 -66.5q-18 -17 -35 -36t-26.5 -37.5
t-10 -36.5t13.5 -31q13 -13 34.5 -16t47 0.5t52.5 13t50 21.5q54 27 93 60.5t74 68.5l119.5 123l117.5 124q-88 -29 -172.5 -60t-165.5 -70zM704 705l189.5 46l191.5 46q16 4 29 1.5t18.5 -9t2 -16t-20.5 -18.5q-14 -8 -32 -11l-31 -4l-243 -40l-86 -14l-18 -3
q-17 -3 -17.5 7t17.5 15z" />
    <glyph glyph-name="ydieresis" unicode="&#xff;" horiz-adv-x="648" 
d="M804 227q-36 -30 -80 -55t-92.5 -46.5t-99 -40.5t-100.5 -36l-49 -49l-50 -49l-160.5 -149t-180.5 -142q-44 -30 -94 -57t-105 -44q-29 -9 -58.5 -12.5t-54.5 -2t-44.5 10t-28.5 23.5q-15 23 -7.5 50.5t29 55.5t52.5 55.5t64 50.5q75 53 165.5 92.5t184.5 73.5l81 28.5
l82 26.5l139 144l-36 -21l-37 -20q-43 -22 -96 -41t-102 -24q-23 -2 -38 2.5t-23 13.5t-10.5 21t-0.5 25q7 37 35.5 75.5t62.5 74.5q36 38 76.5 74t85.5 71q35 29 73.5 57t85.5 51q10 5 21 6t19 -1t11.5 -7.5t0.5 -12.5q-3 -11 -14 -22t-20 -22q-48 -53 -104.5 -104
l-110.5 -103l-38 -36.5l-38 -38.5l-35 -36q-4 -5 -11 -12t-13 -15t-8.5 -15t2.5 -11q9 -6 24 -6t32 3t34 8.5t29 11.5q46 20 87 43.5t79 49.5l29.5 20t28.5 21l77.5 75t83.5 74q38 32 85 67t101 56q8 3 19.5 6t21.5 3.5t16.5 -2t4.5 -10.5q-2 -6 -10 -11t-19 -6
q1 -1 -2 -3.5l-6.5 -5.5t-7.5 -5.5t-5 -3.5q-30 -27 -55.5 -54.5l-52.5 -55.5l-132 -140.5l-135 -139.5l50 19q48 17 94 37t89 44l40.5 24.5t37.5 26.5q7 5 14.5 9.5t15.5 1.5q12 -5 1 -14zM-107 -147q-55 -26 -104.5 -57.5t-87.5 -66.5q-18 -17 -35 -36t-26.5 -37.5
t-10 -36.5t13.5 -31q13 -13 34.5 -16t47 0.5t52.5 13t50 21.5q54 27 93 60.5t74 68.5l119.5 123l117.5 124q-88 -29 -172.5 -60t-165.5 -70zM724 660q-32 0 -41 13.5t0 30t33 30.5t56 14t40.5 -14t-0.5 -30.5t-32.5 -30t-55.5 -13.5zM940 660q-32 0 -41 13.5t0 30t33 30.5
t56 14t40.5 -14t-0.5 -30.5t-32.5 -30t-55.5 -13.5z" />
    <glyph glyph-name="Aogonek" unicode="&#x104;" 
d="M-62 -129l345.5 305l367.5 298l189 141.5t200 135.5l104.5 63.5t112.5 58.5q48 22 102.5 41t106.5 21q27 1 42 -7t21 -21t5 -28.5t-4 -30.5q-9 -39 -28.5 -79t-46.5 -80q-51 -81 -118.5 -161.5l-139.5 -159.5l-146 -156l-155 -155l-79.5 -76.5t-85.5 -75.5
q-37 -32 -86 -62q-11 -8 -26.5 -16.5t-31.5 -5.5q-14 4 -11 17q-19 -10 -36 -20.5l-34 -21.5q-8 -5 -22.5 -15.5t-26 -22t-16 -21t7.5 -13.5t26.5 0t28.5 11.5t27.5 16.5t22.5 14q6 3 12.5 4t11.5 0t6.5 -4t-4.5 -8q-4 -5 -11 -10t-12 -9q-23 -17 -54.5 -31.5t-63.5 -14.5
q-37 1 -41.5 21.5t15.5 42.5q18 23 51.5 42t65.5 35l59 28l8 11q14 20 30.5 39.5l34.5 39.5l75 77.5l76 77.5l65 66l65 67q-88 -10 -175 -17t-175 -15q-56 -5 -110.5 -9l-111.5 -8q-6 0 -18.5 -1.5t-22.5 -1.5l-58 -50l-89 -76l-87 -76l-81 -73q-5 -4 -14 -14t-20 -20
t-22 -17t-19 -4q-13 3 -2 13zM356 204l109 12l44 4l43 4l102 9.5l101 9.5l103 8l49 4l49 4h6l77.5 80l76.5 81l112.5 120l106.5 121l67 77t58 79l16 28t12 31.5t-3.5 26.5t-30.5 12q-27 1 -56 -5.5t-58 -17t-56 -24.5l-51 -25q-57 -29 -108 -60l-102 -64
q-104 -68 -200.5 -139l-189.5 -144l-144.5 -116l-140.5 -117q4 1 8 1z" />
    <glyph glyph-name="Lcaron" unicode="&#x13d;" 
d="M1285 603q-16 -21 -40 -42t-50 -38q-18 -11 -38 -19.5t-42 -13.5q-7 -1 -9 3t3 9t13.5 7t13.5 5q28 13 47.5 30t35.5 37h-6q-25 0 -35.5 8t-10.5 20l-16 -14q-72 -59 -130.5 -121.5l-120.5 -123.5q-72 -73 -159 -141.5t-190 -128.5l-20 -12q49 -9 90.5 -24.5t73.5 -38.5
q29 -21 54 -45.5t54 -46.5t65 -38.5t88 -20.5q43 -3 89 4.5t91 27.5q41 20 70 47q6 5 13 6.5t11.5 0t5.5 -5.5t-6 -9q-43 -32 -94.5 -54t-109.5 -31q-63 -11 -120.5 -6.5t-107.5 15.5q-50 9 -92.5 23.5t-76.5 36.5q-26 17 -48 37t-48 37q-17 12 -36.5 23t-42.5 21
q-58 -31 -125 -57q-58 -22 -122 -38.5t-120 -12.5q-27 2 -43 11t-20 22.5t6 29.5t36 33q25 15 54 26t59.5 18.5t61 12t58.5 6.5q89 8 169 0q56 38 104 80l93 84l181 175q42 42 98.5 91.5t123 97t140.5 89t150 67.5t151.5 32.5t146.5 -15.5q17 -5 35.5 -12t29.5 -17
q4 -4 2 -8.5t-7 -8t-11.5 -4.5t-10.5 4q-11 5 -18 11t-18 11q-22 9 -47 14.5t-55 5.5q-83 1 -162 -30.5t-146 -76.5q4 1 13 1q38 0 43 -19t-13 -38q-2 -5 -6 -9zM147 33q-23 -8 -45 -21t-35 -26.5t-11.5 -25.5t27.5 -19q22 -6 48.5 -4.5t55 8t57 16t53.5 20.5q63 28 116 60
q-56 17 -122.5 18t-143.5 -26z" />
    <glyph glyph-name="Sacute" unicode="&#x15a;" horiz-adv-x="1239" 
d="M1665 676q54 22 85 54.5t23 64.5q-8 31 -46.5 48t-94.5 11t-100.5 -27t-77.5 -49.5t-55 -61t-35 -62.5q-18 -39 -31.5 -78.5l-26.5 -78.5l-25 -78q-12 -39 -28 -78q-17 -39 -37 -78.5t-47 -78.5t-61 -77t-79 -74q-91 -72 -207 -114.5t-240 -60.5q-60 -9 -121 -14
t-117.5 -2.5t-106 13t-85.5 33.5q-49 30 -65.5 72t-6.5 91t43 101t83.5 101t115.5 92t139 74q54 23 112.5 38.5t116 22.5t112 5.5t100.5 -12.5t77.5 -33.5t42.5 -54.5q10 -32 1 -65q0 -6 -3 -12q-1 -4 -6 -7t-10.5 -4t-10.5 0t-6 5q-2 6 2 14.5t6 15.5q2 18 -0.5 35
t-11.5 31q-17 29 -55 46.5t-88 23.5q-52 6 -109 3t-115 -15t-114.5 -32.5t-108.5 -48.5q-67 -36 -123 -83t-95.5 -97.5t-58.5 -101.5t-12 -94.5t43 -76.5t108 -48q47 -10 104 -10.5t118 6.5t122.5 20.5t117.5 32.5q126 41 208.5 108.5t130.5 144.5q23 39 40.5 77.5t32.5 77
l29 77l29 77.5l32.5 75.5t42 78.5t58 76.5t78.5 70.5q39 28 88 49.5t99 32t96 8t79 -22.5q32 -20 38.5 -52.5t-22.5 -67.5q-14 -17 -33.5 -32.5t-42.5 -28.5l-17.5 -9t-18.5 -5q-11 0 -10.5 6.5t11.5 11.5zM1730 932l189.5 46l191.5 46q16 4 29 1.5t18.5 -9t2 -16
t-20.5 -18.5q-14 -8 -32 -11l-31 -4l-243 -40l-86 -14l-18 -3q-17 -3 -17.5 7t17.5 15z" />
    </font>
</defs>
</svg>
